<mxfile host="Electron" agent="Mozilla/5.0 (Macintosh; Intel Mac OS X 10_15_7) AppleWebKit/537.36 (KHTML, like Gecko) draw.io/24.7.17 Chrome/128.0.6613.36 Electron/32.0.1 Safari/537.36" version="24.7.17">
  <diagram name="Задание 1" id="1a2thrRxbPmIyu8-sEVz">
    <mxGraphModel dx="2069" dy="1984" grid="1" gridSize="10" guides="1" tooltips="1" connect="1" arrows="1" fold="1" page="1" pageScale="1" pageWidth="827" pageHeight="1169" math="0" shadow="0">
      <root>
        <mxCell id="0" />
        <mxCell id="1" parent="0" />
        <mxCell id="GK1FG8dtGfqj12xNYv7O-7" value="Task 1" style="text;strokeColor=none;fillColor=none;html=1;fontSize=24;fontStyle=1;verticalAlign=middle;align=center;" parent="1" vertex="1">
          <mxGeometry x="-790" y="-150" width="100" height="40" as="geometry" />
        </mxCell>
        <mxCell id="GK1FG8dtGfqj12xNYv7O-9" value="" style="line;strokeWidth=2;html=1;" parent="1" vertex="1">
          <mxGeometry x="-780" y="-110" width="160" height="10" as="geometry" />
        </mxCell>
        <mxCell id="GK1FG8dtGfqj12xNYv7O-10" value="pymongo-api" style="rounded=1;whiteSpace=wrap;html=1;" parent="1" vertex="1">
          <mxGeometry x="-780" y="35" width="120" height="60" as="geometry" />
        </mxCell>
        <mxCell id="GK1FG8dtGfqj12xNYv7O-29" value="configServer&lt;br&gt;(metadata for sharding)" style="rounded=1;whiteSpace=wrap;html=1;" parent="1" vertex="1">
          <mxGeometry x="-560" y="-70" width="120" height="60" as="geometry" />
        </mxCell>
        <mxCell id="GK1FG8dtGfqj12xNYv7O-31" value="" style="shape=image;verticalLabelPosition=bottom;labelBackgroundColor=default;verticalAlign=top;aspect=fixed;imageAspect=0;image=data:image/png,iVBORw0KGgoAAAANSUhEUgAABMwAAALkCAYAAADzm6kCAAAMTWlDQ1BJQ0MgUHJvZmlsZQAASImVVwdYU8kWnltSIQQIREBK6E0QkRJASggtgPQiiEpIAoQSY0JQsaOLK7h2EcGyoqsgLrq6ArLYUFddWRR7XywoKOtiwa68SQLosq98b75v7vz3nzP/nHPu3Dt3AKB38qXSPFQbgHxJgSwuNJA1KSWVReoGVEAHZDAGkPgCuZQTExMJYBlq/15eXwWIsr3kpNT6Z/9/LTpCkVwAABIDcYZQLsiH+GcA8BaBVFYAAFEKecuZBVIlXgexngw6CHGNEmepcYsSZ6jxBZVNQhwX4ocAkDX5fFkWAFp9kGcVCrKgDh1GC1wkQrEE4gCI/fLzpwshXgixHbSBc9KV+uyMr3Sy/qaZMazJ52cNY3UsqkIOEsulefzZ/2c6/nfJz1MMzWELq2a2LCxOGTPM28Pc6RFKrAnxW0lGVDTEugCguFiosldiZrYiLFFtj9oJ5FyYM8CEeII8L543yMcJ+UEREBtDnCnJi4octCnOFIcobWD+0ApxAS8BYgOIa0Ty4PhBm2Oy6XFD817NlHE5g3w3X6byQan/WZGbyFHrY7rZIt6gPuZclJ2QDDEV4qBCcVIUxFoQR8lz4yMGbdKKsrlRQzYyRZwyFiuIZSJJaKBaHyvPlIXEDdrvzpcPxY4dyxbzogbxxYLshDB1rrCHAr7KfxgL1ieScBKHdETySZFDsQhFQcHq2HGySJIYr+ZxA2lBYJx6LO4gzYsZtMcDRXmhSt4C4gR5YfzQ2MICuDjV+niJtCAmQe0nXpnDD49R+4PvA5GAC4IACyhgzQDTQQ4Qt/c29sI7dU8I4AMZyAIi4DTIDI1IVvVI4DUeFIE/IRIB+fC4QFWvCBRC/tMIVsmJhzn11QlkDvYpVXLBI4jzQQTIg/cKlZJk2IMk8BAy4n94xIdVAGPIg1XZ/+/5IfYLw4FM5CCjGJqRRR+yJAYTg4hhxBCiPW6E++E+eCS8BsDqirNxr6E4vtgTHhE6CPcJVwidhBvTxMWyEV5OBJ1QP2QwPxlf5we3gZrueCDuC9WhMs7EjYAT7gbn4eD+cGZ3yHIH/VZmhTVC+28RfPWEBu0oLhSUMooSQLEbOVLLQct9WEWZ66/zo/Y1Yzjf3OGekfNzv8q+ELYRIy2xb7ED2GnsOHYWa8EaAQs7ijVhbdhhJR5ecQ9VK25otjiVP7lQZ+Sa+fJklZmUu9S59Lh8VPcViGYVKF9G7nTpbJk4K7uAxYE7hojFkwicx7BcXVzdAFDuP+rP28tY1b6CMNu+cIv/AMD36MDAwC9fuPCjAPzkCT8Jh75wdmy4tWgAcOaQQCErVHO48kJQ7Wx6wBCYAktgB+NxBR7ABwSAYBAOokECSAFToffZcJ3LwEwwFywCJaAMrALrQSXYCraDGvAj2A8aQQs4Dn4F58AFcAXcgqunCzwFfeA1+IAgCAmhIQzEEDFDrBFHxBVhI35IMBKJxCEpSDqShUgQBTIXWYyUIWuQSmQbUov8hBxCjiNnkQ7kBnIP6UFeIO9RDNVE9VAT1AYdi7JRDhqBJqBT0Cx0BlqELkFXoBVoNboHbUCPo+fQK2gn+hTtxwCmgTExc8wJY2NcLBpLxTIxGTYfK8XKsWqsHmuGz/kS1on1Yu9wIs7AWbgTXMFheCIuwGfg8/HleCVegzfgJ/FL+D28D/9MoBGMCY4EbwKPMImQRZhJKCGUE3YSDhJOwXepi/CaSCQyibZET/guphBziHOIy4mbiXuJx4gdxAfEfhKJZEhyJPmSokl8UgGphLSRtId0lHSR1EV6S9Ygm5FdySHkVLKEXEwuJ+8mHyFfJD8mf6BoU6wp3pRoipAym7KSsoPSTDlP6aJ8oOpQbam+1ARqDnURtYJaTz1FvU19qaGhYaHhpRGrIdZYqFGhsU/jjMY9jXeaupoOmlzNNE2F5grNXZrHNG9ovqTRaDa0AFoqrYC2glZLO0G7S3urxdBy1uJpCbUWaFVpNWhd1HpGp9Ct6Rz6VHoRvZx+gH6e3qtN0bbR5mrztedrV2kf0r6m3a/D0BmnE62Tr7NcZ7fOWZ1uXZKujW6wrlB3ie523RO6DxgYw5LBZQgYixk7GKcYXXpEPVs9nl6OXpnej3rten36uvpu+kn6s/Sr9A/rdzIxpg2Tx8xjrmTuZ15lvh9lMoozSjRq2aj6URdHvTEYbRBgIDIoNdhrcMXgvSHLMNgw13C1YaPhHSPcyMEo1mim0RajU0a9o/VG+4wWjC4dvX/0TWPU2ME4zniO8XbjNuN+E1OTUBOpyUaTEya9pkzTANMc03WmR0x7zBhmfmZis3VmR82esPRZHFYeq4J1ktVnbmweZq4w32bebv7BwtYi0aLYYq/FHUuqJdsy03KdZatln5WZ1USruVZ1VjetKdZs62zrDdanrd/Y2Nok2yy1abTptjWw5dkW2dbZ3raj2fnbzbCrtrtsT7Rn2+fab7a/4IA6uDtkO1Q5nHdEHT0cxY6bHTvGEMZ4jZGMqR5zzUnTieNU6FTndM+Z6RzpXOzc6PxsrNXY1LGrx54e+9nF3SXPZYfLrXG648LHFY9rHvfC1cFV4Frlenk8bXzI+AXjm8Y/d3N0E7ltcbvuznCf6L7UvdX9k4enh8yj3qPH08oz3XOT5zW2HjuGvZx9xovgFei1wKvF6523h3eB937vv3ycfHJ9dvt0T7CdIJqwY8IDXwtfvu82304/ll+63/d+nf7m/nz/av/7AZYBwoCdAY859pwczh7Os0CXQFngwcA3XG/uPO6xICwoNKg0qD1YNzgxuDL4bohFSFZIXUhfqHvonNBjYYSwiLDVYdd4JjwBr5bXF+4ZPi/8ZIRmRHxEZcT9SIdIWWTzRHRi+MS1E29HWUdJohqjQTQvem30nRjbmBkxv8QSY2Niq2IfxY2Lmxt3Op4RPy1+d/zrhMCElQm3Eu0SFYmtSfSktKTapDfJQclrkjsnjZ00b9K5FKMUcUpTKik1KXVnav/k4MnrJ3eluaeVpF2dYjtl1pSzU42m5k09PI0+jT/tQDohPTl9d/pHfjS/mt+fwcvYlNEn4Ao2CJ4KA4TrhD0iX9Ea0eNM38w1md1Zvllrs3qy/bPLs3vFXHGl+HlOWM7WnDe50bm7cgfykvP25pPz0/MPSXQluZKT002nz5reIXWUlkg7Z3jPWD+jTxYh2ylH5FPkTQV68Ee/TWGn+EZxr9CvsKrw7cykmQdm6cySzGqb7TB72ezHRSFFP8zB5wjmtM41n7to7r15nHnb5iPzM+a3LrBcsGRB18LQhTWLqItyF/1e7FK8pvjV4uTFzUtMlixc8uCb0G/qSrRKZCXXlvos3fot/q342/Zl45dtXPa5VFj6W5lLWXnZx+WC5b99N+67iu8GVmSuaF/psXLLKuIqyaqrq/1X16zRWVO05sHaiWsb1rHWla57tX7a+rPlbuVbN1A3KDZ0VkRWNG202rhq48fK7MorVYFVezcZb1q26c1m4eaLWwK21G812Vq29f334u+vbwvd1lBtU12+nbi9cPujHUk7Tv/A/qF2p9HOsp2fdkl2ddbE1Zys9ayt3W28e2UdWqeo69mTtufCj0E/NtU71W/by9xbtg/sU+x78lP6T1f3R+xvPcA+UP+z9c+bDjIOljYgDbMb+hqzGzubUpo6DoUfam32aT74i/Mvu1rMW6oO6x9eeYR6ZMmRgaNFR/uPSY/1Hs86/qB1WuutE5NOXD4Ze7L9VMSpM7+G/HriNOf00TO+Z1rOep899Bv7t8ZzHuca2tzbDv7u/vvBdo/2hvOe55sueF1o7pjQceSi/8Xjl4Iu/XqZd/nclagrHVcTr16/lnat87rweveNvBvPbxbe/HBr4W3C7dI72nfK7xrfrf7D/o+9nR6dh+8F3Wu7H3//1gPBg6cP5Q8/di15RHtU/tjscW23a3dLT0jPhSeTn3Q9lT790Fvyp86fm57ZPfv5r4C/2vom9XU9lz0feLH8peHLXa/cXrX2x/TffZ3/+sOb0reGb2vesd+dfp/8/vGHmR9JHys+2X9q/hzx+fZA/sCAlC/jq34FMKA82mQC8GIXALQUABjw3EidrD4fqgqiPtOqEPhPWH2GVBUPAOrhP31sL/y7uQbAvh0A2EB9ehoAMTQAErwAOn78cB06y6nOncpChGeD72M/ZeRngH9T1GfSr/we2QKlqhsY2f4LvaWDBxHtUsYAAAA4ZVhJZk1NACoAAAAIAAGHaQAEAAAAAQAAABoAAAAAAAKgAgAEAAAAAQAABMygAwAEAAAAAQAAAuQAAAAAicqMaAAAQABJREFUeAHs3Qd8VFXax/GHkoSS0BGQLqCCYhcVuy72XrDrutjXhp3Xuvbe167YO3ZFwb6KigULAiooSBGQGiAhjbznOeFM7tzMJNOSuTP5nc9nnDu3nvu9s+74zylNKk0RCgIIIIAAAggggAACCCCAAAIIIIAAAghYgaY4IIAAAggggAACCCCAAAIIIIAAAggggEC1AIFZtQVLCCCAAAIIIIAAAggggAACCCCAAAIICIEZXwIEEEAAAQQQQAABBBBAAAEEEEAAAQQ8AgRmHgwWEUAAAQQQQAABBBBAAAEEEEAAAQQQIDDjO4AAAggggAACCCCAAAIIIIAAAggggIBHgMDMg8EiAggggAACCCCAAAIIIIAAAggggAACBGZ8BxBAAAEEEEAAAQQQQAABBBBAAAEEEPAIEJh5MFhEAAEEEEAAAQQQQAABBBBAAAEEEECAwIzvAAIIIIAAAggggAACCCCAAAIIIIAAAh4BAjMPBosIIIAAAggggAACCCCAAAIIIIAAAggQmPEdQAABBBBAAAEEEEAAAQQQQAABBBBAwCNAYObBYBEBBBBAAAEEEEAAAQQQQAABBBBAAAECM74DCCCAAAIIIIAAAggggAACCCCAAAIIeAQIzDwYLCKAAAIIIIAAAggggAACCCCAAAIIIEBgxncAAQQQQAABBBBAAAEEEEAAAQQQQAABjwCBmQeDRQQQQAABBBBAAAEEEEAAAQQQQAABBAjM+A4ggAACCCCAAAIIIIAAAggggAACCCDgESAw82CwiAACCCCAAAIIIIAAAggggAACCCCAAIEZ3wEEEEAAAQQQQAABBBBAAAEEEEAAAQQ8AgRmHgwWEUAAAQQQQAABBBBAAAEEEEAAAQQQIDDjO4AAAggggAACCCCAAAIIIIAAAggggIBHgMDMg8EiAggggAACCCCAAAIIIIAAAggggAACzbOBYPbcBfY2Jkz8MXQ7bl1oRYoWenbvYs/k3ocO2SRFZ+Y0CCCAAAIIIIAAAggggAACCCCAAAJBEGhSaUoQKpJoHTQk8wZliZ4nmeM0NCM4S0aQYxFAAAEEEEAAAQQQQAABBBBAAIHgCGR0C7MXXh0v9dWSLJ5H5AI7QrN41NgXAQQQQAABBBBAAAEEEEAAAQQQCKZAxo5hpiFVEMIy91iD0NLN1YV3BBBAAAEEEEAAAQQQQAABBBBAAIHEBTKyhZkGZa5Vl/fWjzh4mP3oxhfzbkvlsl4/Uh20Tnrt+r5+Ku+FcyGAAAIIIIAAAggggAACCCCAAAIIhAtkbGAWfhsiGpY1VFDlQjF9126hFAQQQAABBBBAAAEEEEAAAQQQQACB7BHI2C6Z3kegY4c1VFjmva5e07Vqc+sjtXxz23hHAAEEEEAAAQQQQAABBBBAAAEEEAi+QEYGZv6xy9IRlgX/0VJDBBBAAAEEEEAAAQQQQAABBBBAAIFEBDIyMPPfaDoDs3Re2+/AZwQQQAABBBBAAAEEEEAAAQQQQACB5AUyMjDztzBLniF1Zwhy3VJ3l9l9pl69eknXrl3t68ADD6zzZkeOHBna/x//+Eed+7MDAggggAACCCAQj8ABBxwQ+q1x0kknxXMo+yKAAAIIIIBAggIZGZgleK8chkBMAgsWLBD3euONN+Spp56q9bjCwsLQ/osWLap1XzYigAACCCCAAALxCixevDj0W2PZsmXxHs7+CCCAAAIIIJCAAIFZAmgc0rgEzj//fNEfqhQEEEAAAQQQQAABBBBAAAEEEGgcAgRmjeM5c5dJCPz9999y4YUXJnEGDkUAAQQQQAABBBBAAAEEEEAAgUwSIDDLpKdFXdMmMHr0aPn4449Tev2ysrKkz1fXOSorK6W8vDyh65SWlooeT0EAAQQQQACBzBWo67eC3pn+f36iJZbzRzq3/saoqKiItCmudcnUPa4LsTMCCCCAQKMTIDBrdI+cG45HoEmTJqHdTzvtNCkpKQl9jndh1qxZot07d911V2nfvr20aNFC+vTpI4cccohMmjQp4ulWrVolW2+9deilY6R9+umnsv/++0vPnj3tOQYPHixaN20Jp0V/gN5+++0ybNgwe53WrVvLRhttJP/5z3+krh+1v/32m5x++umhc7dr10522GEHufTSS6W4uDhiHVmJAAIIIIAAAukVOO6440K/Fd577z2ZPXu2HH/88TJw4ED7W6F3795y1FFHycSJE0MV1XFaDz30UOnRo4fdp2/fvnLCCSeEfk+EdvQtJPJ7xnuKBx54QHSSJP2NUVBQINtuu6393aK/Xw466KDQffzxxx/ew0LL+ofAJ598Urbbbjt7fMuWLWXAgAH2XvQ3EgUBBBBAAIGUCZj/c8q4css9T1V6X+m+AW9ddJmS2QK5ubnarMq+zA/Qyry8vNDnK664osbN/etf/wpt33TTTWts1xVvvvlmZYcOHUL7ufO7dxPMVd5yyy01jjUTCoQdM2LEiMpmzZqFrXPn2HLLLSsXLlxYedhhh0XcrvvtvPPOlWvWrKlxHV1hQrtK88M16rEmdKv8+eefIx7LSgQQQAABBBCoP4GhQ4eG/v/ZhFw1LrTFFluEtuvvgGi/Ocwf7ConT55sf3Pobw/3G8L7vs4661TOnz+/xjV0RaK/Z/TY1atXV5oQL+I19frmj4GVJvwKbY/2m0N/m3nr613W30hXXnll1N86Wg8KAggggAACsQrQwsz8vywFgWgCG2ywgYwaNSq0+cYbb5Rp06aFPseyoH/B1englyxZYnfv1q2bnHLKKXLEEUdIq1at7DrzP1i55JJLZMKECbWe8tFHH7Xbt9pqK/sXWO/O3377rW2x9vLLL4f20b/gtmnTJrTbJ598Im57aKVZ0L8W77PPPrJixQq7Wut4+OGHy1577WX/6qwrzQ9XGT58uJjAze7DPxBAAAEEEEAgeAL6//P6m6N///6y2267iflDYKiSS5culSFDhtixWfW3h7Z033fffW0rM7eT+eObXH311e5j6D3Z3zPXXHONbRnmTpifn29b3ZuwT0zQJSaMq7M1u7Z4d7OXay+AHXfc0bac099rWrSLp7aof/HFF91leEcAAQQQQCBhAQKzhOk4sLEIaGC24YYb2tvVcTJOPfXUuMb2uummm0L76w867Sbx4IMPyvPPPy/z5s0LBVr6I8/9CIxmq10qtIvC119/bbtVzJw5U7QLhStFRUXSq1cv+f333+0+48ePl19//VX0R6krY8aMcYv2XbuZ7r333vLXX3/Zzxqy6TH6Y3Ps2LG2u2jHjh3tNg3N6qpj2Mn5gAACCCCAAAINKqAB2bhx40SHWfjggw9EA7CDDz44VAf9raABle6jvyneeustmTFjhh2Cwe3k/62g65P5PaOzjd99993u9LY7pf6x7sMPPxT9g5/+nunXr19oe6QF7YZ5/fXX200alr399tt2mIpnn31WpkyZImeddVbosMsvvzzhMVxDJ2EBAQQQQKDRCxCYNfqvAAB1CegPTw249MeZFh0f47HHHqvrsNB2bUmmP/D0pcfpj1RX2rZta8cwc5+/++47txjx/Z577rHji7mNGqAde+yx7qN9v/fee8NCtC5dusgee+wR2kd/FHuLhmJTp04NrbrqqqvCAjYNCy+++OLQ9oceeii0zAICCCCAAAIIBEvgzDPPtOOYulrpbw1d5y3nnHNO2D76W0dbkbuyYMECWblypfto35P5PaO/f1wrdv0dpH80NN1GQ+fXcdQ0+Kqt6Pisruy+++72j33uc9OmTW2g5/7Ap2HhRx995DbzjgACCCCAQEICzRM6ioMQaGQCO+20k5ixysR1ibzooovswPtmnI86Jc4+++yI+2hrNW1V5roR6E5u4P6IB5iVOrCtv+iPRu3m4Mr222/vFkPv2mXhlVdesZ/nzp0bWq8Lr732WuizTg4Q7Xi30/Tp090i7wgggAACCCAQMIFIvxV22WUX0VDJDatQ1//X6y1pK/j1118/dHfJ/J7x/mFO/4inreH9xTuEhG5zf6jUZW2B9sMPP+iiLdra31/0vnXICp30QIv+XtEJkCgIIIAAAggkKkBglqgcxzU6gZtvvtmOr6FdG3RskPPOO0+efvrpmB2+/PJL0dZfP/30k8yZMyc0ppn3BDqeSLzF22JNj410Du/4Jf7t3lmodBZOnXXKX7yzg+r96+ydOvsmBQEEEEAAAQSCL6BhmTeA8v8W0Dvw/lbQz5H20fWJ/J7x/tbw/qFQzxdL8R6v+2v30Ntuu63God5W9P5jauzMCgQQQAABBOoQIDCrA4jNCDgB7Tqg3QFcF8hnnnnGTr/utkd71+nPddp2HSw3iMXMhBWqlnbB0FddRcc708GEKQgggAACCCDQOASS+T3jxklVKZ1YKN7i/a2ix37zzTd1nkJbyFEQQAABBBBIRoDALBk9jm10Asccc4w88cQTooPpazn99NNrzFbpR9FxQlxYpq2ydBIBM3W6/cGYl5cnOi7ZZZdd5j+swT57xxAZOHCgbLLJJnVem9ZldRKxAwIIIIAAAlklkMzvma5du8ovv/xiPdxYZvHgeH+r6HE6k7e2mqutbLPNNrVtZhsCCCCAAAJ1ChCY1UnEDgiEC9x///0yePBgO/W5Nv3XWS+jFf1rrHeCAB0w/+ijjw7bvUWLFqHP3u4SoZVxLkTrQhHtNIMGDbLdK3S7DvCvA/FSEEAAAQQQQCB7BeL9rZDs75k+ffrIJ598YkF1dsx4i/5W8Rb9Q2Msf+DzHsMyAggggAAC8QrU/qeZeM/G/gg0AgGd9vyKK64I3akO3h+tTJ48WVavXh3aHGl8MB34P53F+yNUZ5SKNvGADhTsnzErnfXm2ggggAACCCDQMALJ/p7xDuPw5ptvRvw9UdvvoZ49e0pBQUHoZl944YXQsn+hsLDQv4rPCCCAAAIIJCRAYJYQGwc1doHzzz/ftjKry8H74073femll8IOmTRpkuhkAq642avc54Z41xZvOuW8lmXLlsmJJ55Y44esDvJ/yCGHiM4WqhMDUBBAAAEEEECg8Qgk+3vmhBNOCE0qoL819HeU9zdPcXGxnHnmmWGg/lZwOgyGK7fccouMGzfOfQy9v/POO9K7d295+OGHQ+tYQAABBBBAIFEBumQmKsdxjVogJydHHnzwQdFp2f0/6Lww2hpN/yrqum1qy7QJEybYmSgnTpxof+x5W20tXbrUe3iDLOvguxrauSna3377bdl4441l+PDh0qNHD9FQ78MPP5Q///zT1ufcc8+Na3bQBrkJLoIAAggggAAC9SaQ7O8Z/S00YsQI0WEttOgQFd9//70MGzZMFi9ebMeG9c5wGelGrrrqKnn55Zfl999/l7KyMtlrr73sH/O23XZb0VZlX3zxhWhLeW2pdsYZZ8iOO+5oh5qIdC7WIYAAAgggEIsAgVksSuyDQAQB7V552mmnhX78RdjFrnrqqadk9913tz/gSkpK5PXXX7cvt7/+JdSN56E/+DQ0a9++vdsc93ttAV60k5188sny22+/2VlA9S++Wh/9662/7LfffjYo9K/nMwIIIIAAAghkjkAivxWS/T1z9dVX2z/CffnllxZK/3CoL1c6duxowzP32f/esmVLG5gdddRRdgIBvYcxY8bYl3ff/Px8Ox6rjstKQQABBBBAIBkBumQmo8exjV7ghhtuqHN69J133lk+++wz2WqrrcK8NBS788475fPPPw9bH6mLQdgO9fBBJxvQgEzrMnToUNEfpa7opAS67pprrpHXXntNmCHTyfCOAAIIIIBA4xFI9vdMp06d5OOPP7Yt2tu1axeCy83NFe2y+dZbb4XW6YK25veXzTff3LZMu+iii2wreO/2Xr162dbxn376qey7777eTSwjgAACCCCQkEAT89eZyoSOTONBt977dNjVLzjz2LDPDf0haPVp6PvnerELLFmyRH799Vfp0qWL9O3bN/YDG3hPbWU2ffp00anfdUZQ/TFLQQABBBBAAAEEVCDZ3zP6nx/Tpk2zXSsHDhxow7GxY8fKPvvsY4E1LNPxUyOFZt4noOOh6Xk0LFt33XW9m1hGAAEEEEAgaQG6ZCZNyAkQiF2gQ4cOomNtBL00bdpU1l9//aBXk/ohgAACCCCAQBoEEv098/TTT8vhhx8ueXl5okGZt7z66quhjxtssEGdYZnurC3VMuF3VejGWEAAAQQQyCiBjOyS2bN7l8AiB7lugUWjYggggAACCCCAAAJZLTB69Gg57rjj7GD833zzjR3bVW+4tLRUdIiLRx55JHT/xx6b3t4joYqwgAACCCDQqAWyooXZ7LkLJF1BlV6bggACCCCAAAIIIIAAApEFtAvmE088YTd+/fXXsvXWW9sxUbt37y4zZ860oZk7UluMXXDBBe4j7wgggAACCKRNICNbmKVNK8KF/YFZuoK7CFVjFQIIIIAAAggggAACaRfQyYXGjx8vI0eODNVFxyjTcV21hZkrRx99tGjXzGbNmrlVvCOAAAIIIJA2gYwc9F9DqhdeHR+GdsTBwxq8lVmkegwdsonoi4IAAggggAACCCCAAALhApMnT7azcn/11VcydepU6dmzp+iYZXvttZdsv/324TvzCQEEEEAAgTQKZE1gpoYaVGkLr/pu5eValflDO61Dumfs1DpQEEAAAQQQQAABBBBAAAEEEEAAAQQSF8jIwExvd8LEH+0r8VtP/ZG0Lku9KWdEAAEEEEAAAQQQQAABBBBAAAEEGlogY8cwC1o4FbT6NPQXieshgAACCCCAAAIIIIAAAggggAAC2SKQsYGZPoCghFRBqUe2fCm5DwQQQAABBBBAAAEEEEAAAQQQQCCdAhnbJdOPpl00tbjxxdy7f79kP3vHR9OgTIt3XbLn53gEEEAAAQQQQAABBBBAAAEEEEAAgfQKZE1gll5Gro4AAggggAACCCCAAAIIIIAAAgggkC0CGd0lM1seAveBAAIIIIAAAggggAACCCCAAAIIIBAcAQKz4DwLaoIAAggggAACCCCAAAIIIIAAAgggEAABArMAPASqgAACCCCAAAIIIIAAAggggAACCCAQHAECs+A8C2qCAAIIIIAAAggggAACCCCAAAIIIBAAAQKzADwEqoAAAggggAACCCCAAAIIIIAAAgggEBwBArPgPAtqggACCCCAAAIIIIAAAggggAACCCAQAAECswA8BKqAAAIIIIAAAggggAACCCCAAAIIIBAcAQKz4DwLaoIAAggggAACCCCAAAIIIIAAAgggEAABArMAPASqgAACCCCAAAIIIIAAAggggAACCCAQHAECs+A8C2qCAAIIIIAAAggggAACCCCAAAIIIBAAAQKzADwEqoAAAggggAACCCCAAAIIIIAAAgggEBwBArPgPAtqggACCCCAAAIIIIAAAggggAACCCAQAAECswA8BKqAAAIIIIAAAggggAACCCCAAAIIIBAcAQKz4DwLaoIAAggggAACCCCAAAIIIIAAAgggEAABArMAPASqgAACCCCAAAIIIIAAAggggAACCCAQHAECs+A8C2qCAAIIIIAAAggggAACCCCAAAIIIBAAAQKzADwEqoAAAggggAACCCCAAAIIIIAAAgggEBwBArPgPAtqggACCCCAAAIIIIAAAggggAACCCAQAAECswA8BKqAAAIIIIAAAggggAACCCCAAAIIIBAcAQKz4DwLaoIAAggggAACCCCAAAIIIIAAAgggEAABArMAPASqgAACCCCAAAIIIIAAAggggAACCCAQHAECs+A8C2qCAAIIIIAAAggggAACCCCAAAIIIBAAAQKzADwEqoAAAggggAACCCCAAAIIIIAAAgggEBwBArPgPAtqggACCCCAAAIIIIAAAggggAACCCAQAAECswA8BKqAAAIIIIAAAggggAACCCCAAAIIIBAcAQKz4DwLaoIAAggggAACCCCAAAIIIIAAAgggEAABArMAPASqgAACCCCAAAIIIIAAAggggAACCCAQHAECs+A8C2qCAAIIIIAAAggggAACCCCAAAIIIBAAAQKzADwEqoAAAggggAACCCCAAAIIIIAAAgggEBwBArPgPAtqggACCCCAAAIIIIAAAggggAACCCAQAAECswA8BKqAAAIIIIAAAggggAACCCCAAAIIIBAcAQKz4DwLaoIAAggggAACCCCAAAIIIIAAAgggEAABArMAPASqgAACCCCAAAIIIIAAAggggAACCCAQHIHmyVRl1qxZyRzOsQgggAACCCCAAAIIIIAAAggggAACCAROgBZmgXskVAgBBBBAAAEEEEAAAQQQQAABBBBAIJ0CTSpNSWcFuDYCCCCAAAIIIIAAAggggAACCCCAAAJBEqCFWZCeBnVBAAEEEEAAAQQQQAABBBBAAAEEEEi7AIFZ2h8BFUAAAQQQQAABBBBAAAEEEEAAAQQQCJIAgVmQngZ1QQABBBBAAAEEEEAAAQQQQAABBBBIuwCBWdofARVAAAEEEEAAAQQQQAABBBBAAAEEEAiSAIFZkJ4GdUEAAQQQQAABBBBAAAEEEEAAAQQQSLsAgVnaHwEVQAABBBBAAAEEEEAAAQQQQAABBBAIkgCBWZCeBnVBAAEEEEAAAQQQQAABBBBAAAEEEEi7AIFZ2h8BFUAAAQQQQAABBBBAAAEEEEAAAQQQCJIAgVmQngZ1QQABBBBAAAEEEEAAAQQQQAABBBBIuwCBWdofARVAAAEEEEAAAQQQQAABBBBAAAEEEAiSAIFZkJ4GdUEAAQQQQAABBBBAAAEEEEAAAQQQSLsAgVnaHwEVQAABBBBAAAEEEEAAAQQQQAABBBAIkgCBWZCeBnVBAAEEEEAAAQQQQAABBBBAAAEEEEi7AIFZ2h8BFUAAAQQQQAABBBBAAAEEEEAAAQQQCJIAgVmQngZ1QQABBBBAAAEEEEAAAQQQQAABBBBIuwCBWdofARVAAAEEEEAAAQQQQAABBBBAAAEEEAiSAIFZkJ4GdUEAAQQQQAABBBBAAAEEEEAAAQQQSLsAgVnaHwEVQAABBBBAAAEEEEAAAQQQQAABBBAIkgCBWZCeBnVBAAEEEEAAAQQQQAABBBBAAAEEEEi7AIFZ2h8BFUAAAQQQQAABBBBAAAEEEEAAAQQQCJIAgVmQngZ1QQABBBBAAAEEEEAAAQQQQAABBBBIuwCBWdofARVAAAEEEEAAAQQQQAABBBBAAAEEEAiSAIFZkJ4GdUEAAQQQQAABBBBAAAEEEEAAAQQQSLsAgVnaHwEVQAABBBBAAAEEEEAAAQQQQAABBBAIkgCBWZCeBnVBAAEEEEAAAQQQQAABBBBAAAEEEEi7AIFZ2h8BFUAAAQQQQAABBBBAAAEEEEAAAQQQCJIAgVmQngZ1QQABBBBAAAEEEEAAAQQQQAABBBBIuwCBWdofARVAAAEEEEAAAQQQQAABBBBAAAEEEAiSAIFZkJ4GdUEAAQQQQAABBBBAAAEEEEAAAQQQSLtA87TXgAogkGUCL0/6QqbOn2Pv6tDNt5NBXXtk2R1yOwgggAACCCCAAAIIIIAAAghkt0CTSlOy+xa5OwQaRkCDsjHffxnxYodutq0cZsIzCgIIIIAAAggggAACCCCAAAIIBF8gKwKz2XMXWOkJE38Mibt1oRUpWujZvYs9k3sfOmSTFJ2Z02SqQG1Bmf+eCM78InxGAAEEEEAAAQQQQAABBBBAIHgCGR+YaUjmDcrSQayhGcFZOuTTe814gjJ/TQnO/CJ8RgABBBBAAAEEEEAAAQQQQCA4AhkdmL3w6nipr5Zk8T4iQrN4xTJ3/1iCMg3EtETroununuDMSfCOAAIIIIAAAggggAACCCCAQHAEMjYwC0LLMv9jJDTzi2TX51iDMv9YZYkel1163A0CCCCAAAIIIIAAAggggAACmSOQkYGZtirT1mX+csTBw+wqN76Yf3uqPuv19RWpK6jWob6vn6r74DyxCaQq8ErVeWKrNXshgAACCCCAAAIIIIAAAggggECiAhkZmEVqXZaOoCpScJeOeiT68DmudoH6Crjq67y13w1bEUAAAQQQQAABBBBAAAEEEEAgVoGsCMzS2RXSH5pp6zLX0i3Wh8B+wRJoqECroa4TLF1qgwACCCCAAAIIIIAAAggggEDwBZoHv4o1a6ghlbfQBdKrwXKiAg0dYOlYZ/qq7bo6aYC+mBwg0afKcQgggAACCCCAAAIIIIAAAgjEL5CRgZn/NtMZmKXz2n4HPicmMGX+HLlm7Eu1HlyfgVU8wdnlex8ug7r2qLWubEQgGYHhVyyUGXPLQ6d46+Yu0q1js9DnTFo447bF8tWUklCVHxvVSTbtnxv6XFi0RsZNLJZ5iypkzyEtZYNeOaFtLCCAAAIIIIAAAggggEDjFsjIwMzfwixIjzDIdQuSU5DqMmbSF1GrU59Bmf+isQRnGuw9d+JI/6F8RgCBBARufGq5vGcCMy3Pjl8lY2/tIu0LmiZwJg5BAAEEEEAAAQQQQACBbBPgvwyy7YlyP3ELaAuzTCm0LsuUJ0U9M0Hg219KQ9UsK6+UH6ZXfw5tYAEBBBBAAAEEEEAAAQQapQCBWaN87Ny0V0C7OUYrOn7YUaPvsOOMRdsnVet1LDO9ll4zWjnUjHlGQQCB1AgcsEPL0Ik6tW0mQzfOC31mAQEEEEAAAQQQQAABBBq3QEZ2yWzcj4y7T7WAttrSbo7pGny/tuu6e23IrqHumrwjkO0C/z6kjR27bM7fFTJ0cJ7kNm+S7bfM/SGAAAIIIIAAAggggECMAgRmMUKxW/YLxDKGWCpnrWwMQVl5RaU0bxY9hFizxnyvzOam0XeJ+sUrLauU3JwEDvSdsa46+nYPfUz0uNAJzIJ2A1SfJsnfhve0EZe1vk0NdCLW7oSVlSJrzKtZAm2T9V5zkgyk6jKva7u7D+97/x45oq94SyLX0mskely89WN/BBBAAAEEEEAAAQQQSE6AwCw5P47OQoH6Ds6yKSh747MieemjVaFvwf8d384Omn7fK4Uy+Y8ymb2gXHqs09zOTHj6QQXSpUMzG7g8+e5K+WJyiUz5o1TKTWjWt1tzOXSXVnLozq1D5/IvaLg27utieeWTIvltdpnoDIft8ptKv+7NZcjAPDl+r/yIAZqOU3Xni8tDpztuz3zZcdMW8sBrK+SbX0pk+pxyyTMTJ/bvniP/PqRAttwgere8qbPKROv+8++lMm9xhXTv3Fy2WD9XRg5vY9e7GRk1yHv0kk6ha3oXJv1aKi98uEr0fXFhhbTIbWLvf1CfXDlp/3zp3C51M1L+bHwfe3ul/Gq85i+pMEFXEzvjpc4GeeI++THPCjnBPKtnxpn7Ns+0uKRSendpJnuYWSVP3LcganimgebzH6ySycZq2p9lMte04mrTqqn01GO3binDd28dsUXXP69bJBWaypkywARZlxzXVm57vlD+9/1q+XtZhVx7SnvbKsyZriqulPteLZRJv5WaZ1km7cyg/ZsPyJPzjmzjdon6fvXoZfKbOcYVPXfvLlX/txi0742rI+8IIIAAAggggAACCCDQMAIEZg3jnPFX+XXGLFm/X++47iORY+K6QD3vnOrgLJuCMkevAcaUmdWBw5smQNNZB5et1KZjVeVPE5rpS8Ob+y/oKDc9vVw+/G6122zffzGByvVPLrfh1cXHtA3bph+0ZdN/TLjx1oSisG16HQ029PX2F8Vy1b/a2XDOu9MKE6x56/j5TyU2RPIGJeVmokQd8P20WxbL9ae2l2Em0PGXd78qlqsfXyYlpVVhjm6fs7Dcvr6eWmJab4kNhXR9tJZvrxsfDWm8RQMorZ++9Boavh20UyvvLgkt3/5CoQ25vAevMUGUex7jTfh4zB75ct4RtQdLj49dKa98vMoGne5cM+aVy/0mcFR3fab+ouHYhfctEX2u3qIh589/6KtMXjSh4SMmVFynfXhAOGVmqQnMqo5atbpSRj2wVD6eVP19Ka+oPqNe59y7F8vvpj6uLF6+Rt7/pli+mVZiw0i3PtL7H3+Vh303vM82SN+bSHVnHQIIIIAAAggggAACCNSvQAIda+q3Qpw9eAIafN1531P2FWvt3P56bKYXDc50jDMdRyxaqW1yAA3K6hzM35xbr6HXyuSiLae8YZn3XjTUOOCShTXCMu8+L5tgRgMdf7nrpcIaYZl/Hz3u3LuXyKLlnkTFv5P5rKGbNyzz7qINm+59ZUUosHHbNPi57OGlYWGZ26bvf5nWZhre1FY09Ln2ifCwzL//yuI1co3ZR1vfJVNe/bSoRljWvXMz28LLe15tNabmtZWXTQvCtQ2+auw20QSFH/nCT23xdczVf9cIy1q3DO93OndRhTFdFvXcerFZ88vDwjJd5+0OeskDS8LCMt3uin4PtVVdqkq6vjepqj/nQQABBBBAAAEEEEAAgfgEaGEWn1ej3Pud9z619+2Cs3PPOK5WBw3LXFCmx65fx/61nixAG+NtcaZVr23GS92ejYP5H/mP1rL7li1t97kxHxeZVkjV4Y+24Mlv2VROM90zN+qbI9+ZFkrPvr9StFWQFu12+cG3q213QbvC/EO7YD713kr30bYaOvvwNrJZ/1zR0OW/pvvnTNNSSEvhqjWmFdhyufucDqH9Iy3ssEkL2wVUu0N+YoIs7TroirYa04BsUJ/qca0eemOFbeXm9unQpqmcY+qw3ro5thvgg6+vqDWc0S6Rox5cau/PnePoYa1tt8Yi04rqBXP9T0yXQ1e0JduLV3eWAtOFMZHy2v/CW+I9dFEn09U0146fpfd6h2l95oo+o8N2id4Vtk3rprar6sDeOfLjjDLbBVeDLFfe/qJIdt2ihfson/6wWrR1livaxfXqk9rJOqar6Rc/l8jF9y+x3Tp1u343tHutdhGtq3QxLdH0ebVqURW82S69ntaNOg7cSfsXyA5m8P555nvx3PurTH1L6zptXNsb+nsTV+XYGQEEEEAAAQQQQAABBFIqQGCWUs7sPJkGZC4Eqys0c/uphHbhrCtcC4LYlPlz5JqxL4nOljnQvOpq5RVrcFbbvcUTlHm7cl6+9+G2nrWdO53btCvhhUdVd6lcv2eOHHbZwrAqXf7PtvKPraq6PG7SL1dWmFZVj79THYj9ZcIOb3neBGrecs3J7WW3tQGNBi1bmjHEtOWats7S8vmPq22Q1r1TeFc/dw695u1ndQi1VNLxz3T8K2/3wXmLykOBmYZy3i6BOmj+Axd2kn7rVv3rU4O1rTbMk/0vXuAuUeNdW3zpmF6uHGnG7zr/yGqnrU0dTr15kXxnxjXTsnBphW25dcAOVV0zS82A+UsKq0Modx73rmODuSBJ13lb0Gm4t2n/qkBKJxgYvltrO36a69qoLbY0qNQupZHKbWd2sOO06baN+ubaLpQXme6Wrvhb1q0yz2Gvbaq7tOr1upqx67Rsb8Ks7Qe3sF0m3fFa19oCs+02NoHbiPai9+Et2qXTW/65d76cdmCBXbXxeiJ63FFX/W1b/3n3S3Q5Hd+bROvKcQgggAACCCCAAAIIIJC8AIFZ8oaN4gyxhGaZGJbpwxtjukxq0eBMX9oqLJZAK5bgzJ7Y849Yzut29wZlbp0Ge9p1M6ilpxng31t0MH8NOrxhz5BB4YPqb7F+XlhgtsCERa5oWKXjZbmirYx22by6NZOub2sG/t9v+5byvGlR5MqPZjyy7p2qQxu3Xt97rtMsFJa59duYOnkDswWernx/zAsfh2vbjfJCYZk7fl1fOOef9fJTT+sxPeYIE5h5i4ZwRw/LN4FZdRD1g2kd5QKzyb+Xyck3LfIeEras454dayYzcEUHrtdWbVrU/hrT6u5f++ZL767N7UD7GoLFWrp1DA8et/U9P+2O6i2H7dpa9OUvOi5ZuQn++ptJGt7/pnrrfN/x1VvEziB66787RByLzNvKTY85eKfwa2rrvF7GwV8/7/njWU7H9yae+rEvAggggAACCCCAAAIIpFYg/L9uU3tuzpZlArWFZpkalukj0pDMXzQ0S2VwlmxQ5q9fJn1uabrRhZXqhlZ2dau88O1uhkTd6A9T+ppWXRou+csAM8Olt/xkwqa9t40cmHn3c8v+OnjH7NLQzls2NF0T4ynaemuhmRzBldzmTWyQ4z679/49wv91rPeQaNHw7IpHloYO1/G39KUD7GuLOg0Id9+yhZkdNAJm6KjICzoWmQaCOhGDlvIK3wOtWi2zTddWDTF/MrNkLliyxgR3FRHHK3PnWXtY2Ju2etNumP6ix/zlCTV1kgUdo62hS31+bxr6XrgeAggggAACCCCAAAIIhAuE/xda+DY+IVBDIFJopju5McsypRum98a0m6O23IpUEgnObCu1ta3WYuni6a4bqUWZ2+beta6NqfgnEOjo65bnLNoVhHfX8x/n9kvkfaEnmNHjO7aNL5jR8bw0NHOlfZR7aJ/Ce9h3u5ay3Ax6f9+rhaHxwvT62tXThWcPv9k84qyirp7JvN87plCeMLNreoPHZM7nP1a78Xq7uHbw2fn3T8fnZL836agz10QAAQQQQAABBBBAAIFqAQKzaguWYhTwh2busEwMy7TuOnaZdnOsLbCKJzjT8w2KI9iq7brONp4Wau6YbHjv0j48CCsqidyaabkZ7N9bOpuWVKkq/rGziqPUIdr1dNB8bcmlEx5oKTaD/Ecqy1eGr9dB8l3Z1Exw8NE9Xd3HGu+RWmHppAL/2KqFvG4mANCB+KfOKgu1CtMT6KyiJ924SG44rX1oTLkaJ05ghU44MNozJp12jdRutHoP2r1z3MRief2z8EkJ4r1MgZk4Qlvq6dhuWorX2sZ7nvrcP9nvTX3WjXMjgAACCCCAAAIIIIBA3QIEZnUbsUcEAW9oppszNSzz3losY5LFE5x5zx1pubEGZbV1wfM79TJjbnmLf4B5t23e39VdHnVdH99xbr9E3rt3Dq+DBk3xFO2+2MuM7eYG4i80Lc601Zl/Bsy5ZqIBb9HxxlzRgfl1YP94i3bBPPmAAvvSscwmTi2RZ8evkp//qOruqS3ANFBzkzDEe/5I++uspt5ywVFtZL+hVZMX6PppJrhLtqhpVxO+uWehrek0TPV3kUz2Oskcn+z3JplrcywCCCCAAAIIIIAAAggkLxD/f4Elf03OkCUCGpppUJYNYZn3kWhwpi3OtFVXtKLB2VGj77Ct0qLtE229BmV6rJ4jWtFrax20Lo25aEjkbamjA9l7B+dXGw193vkyPKRZb+0Mlqmw62kGjveW978pDs3I6davrqOFk4695i1vfl7s/WiX3/o8NfegrcnOuWtJ6KWftaijzl5573kdxNv9c+LU0rBum3bnBP+h45m5yQb0FDpz5z7bVodluq48Rf00/RMtaMs1b9FusN7JJrzbGmI5Fd+bhqgn10AAAQQQQAABBBBAAIHIAgRmkV1YG6OAhmb6ysaS6uCMoCyxb8lxntkf9QwX379Upsys6l6ogcilDy2VeZ6B+Qevlyub9MtN7GIRjupnwi7tTuhKkelSefadS+yg9tpa7o+/yu1nt13f/a3ojjHdI70zZ+rYYuO/LpYy06VQW0bpeF9jv6wOfHRg/YN2DJ/10Xv+2pa1e+ZnP64Ove55uTBsYP5KEySVlFV1ZdTztDSTLiQy+H+kOjRv1kS8kzyo1Thzn658NaXE3qv7rO+J5mduBlF3rrteLBQ9vwZl+n249olloVZ9bp+GfE/F96Yh68u1EEAAAQQQQAABBBBAIFwgvNlD+DY+IYCAEUi2q2Zj7XqZqi+PjsWl42LNml/VZVFnXzzumr/DxgVz19IZNC8+tm1YOOW2JfN++kEFctqti0On+GF6qRw0aqHkmHG0NPSqq2xsQrz9t28lb6wdu0vHQbvkgaX2+ArTKssfGp1qulF2bJvY3zO23jBPBvXJsaGi1uv3eeWy+zkLZNuN8kRnnfxmWolokOXK9oPN+poTUbrNcb9vsUGufDypqlWbHqyBppt8IFKLr0Lf+HOxXnDY1i3lgddWhLplalfXM25bLBraRZu5M9Zzp2q/ZL83qaoH50EAAQQQQAABBBBAAIH4BRL7L7L4r8MRCGS8QLwtzmhRFvmRV0c1kbf712oAcvPp7aVvt/B83w2i7/bXllKX/7OdDOyd41al7H3rgXnyr33za5zPhWWxjJ018og2stOmLcLOocd7wzJthXbk7q3lyH/UvFbYgbV80HPcd35HGbpxXmivlWZWSe1Kqt0WvaHVhsbq0uPbhfZLxcJFx7SVdvnh/9eiY8+563q72Or1/locPv5crHXQkO/KE9uJTqrgLS4s0++N3l86Syq+N+msP9dGAAEEEEAAAQQQQKAxC4T/l0ZjluDeG63AlPlz7Jhi14x9KaYxyWINzlI1RpkL3nTcM61rYyz9e+TIs1d2lmNN98wuvhkwtfuitpJ6/qrO4u+ml0qrfx/SRq47pb30MAP4e4t2AX3y8s7eVdI8wr9ZdTy2O87uYEO9Pib809ZeruiMjxr0/fe8jnLh0W1FB/lPpuiEAned21HOOLhANuqbY2eU9J6vS4dmcv6RbeWRizvZcca825Jd1uejHrtu0SKspZ92+zx+r3zznNYJu3ediMDNdhnvtTcbYOwv62S7zHrN9BlpaHjYLol1a423HrXtn+z3prZzsw0BBBBAAAEEEEAAAQTqT6BJpSn1d/r6OfOt9z4dduILzjw27HNDfwhafRr6/jP9ehqU+YMoHXRfg7FYSixdLt15UnFenQygsRftfjfTjB3WuV0z6WZmS2zosszMyqhdQ3U2Tg2ntC6HXrYwVA2d4fKV69YJfY60UGrGEdPukjk5Tex5vIFPpP2TWaetrmbMLbdjq+lg+f5WWcmcu7ZjtevpTNOVNtfcY19j4g0JazsukW3a4nD63DLzfWgeNlFEIueqr2NS8b2pr7pxXgQQQAABBBBAAAEEEAgXCG8qEb6NTwg0CgF/WKY3ra3D9BVLwBXLGGexnMdhxxPAuWPS8b7liHnpuGxarvnto+vK5N9LRWe3PP/INrbLYbv86okAnnx3ZVi9NuxV1RWwMRmFAfDBCiTzvXnx6s7Sr3t6u5TyGBFAAAEEEEAAAQQQaMwCGdnC7IVXx8vsuQtCzy1ILcx6du8iRxw8LFQ3FoIvoIGZtjKrrcQTeOn5xkz6wp5uYNceKW2pdvneh8sgc05KwwqsKq6Uo65aKHPN7Is6++HuW7WUDUwotsK0dNNxwSZMLgmr0MOmq+MW61cHamEb+dBoBPjeNJpHzY0igAACCCCAAAIIZKFAVrQw0/BMg6p0FG9wl47rc83kBTSA0m6OtbXsiqfFmZ5vkAm2Yi21XdedI57Azh3De+oExpsB8zUs0zLDdKOc8caKiCfXLoejjm1HWBZRp/Gt5HvT+J45d4wAAggggAACCCCQPQJZEZil83H4A7N0BXfpNMiWa8fStTKe4KwuF4KyuoSCs/2gHVvZscqufXyZ6PhpkYrO0nnjae1lh03CZ8KMtC/rGocA35vG8Zy5SwQQQAABBBBAAIHsFMjILpkaUmm3TG/RbpANHVZFqsfQIZuIviiZL1BfgVZ9nTfzxYN/B0sK18g300pkyswy+8o3M3Tq7JYD++SY2ShzpX1BktNbBp+AGiYgwPcmATQOQQABBBBAAAEEEEAgzQJZE5ipowZVGprVd3DmWpX5QzutQ7rHU9M6UFIrkKqAK1XnSe3dcTYEEEAAAQQQQAABBBBAAAEEEPALZGRgpjcxYeKP9uW/oXR+pnVZOvXr/9qJBl6JHlf/d8QVEEAAAQQQQAABBBBAAAEEEEAgkkDGBmZ6M0EKzQjLIn29snNdrAGY3r2OeVZbYTD/2nTYhgACCCCAAAIIIIAAAggggEB6BDI6MFOyIIRmhGXp+fKm+6qxBGfR6khQFk2G9QgggAACCCCAAAIIIIAAAgikXyDjAzNHqMGZFje+mHt321P17h0fTYMyLd51qboO58kcgXiCM4KyzHmu1BQBBBBAAAEEEEAAAQQQQKDxCmRNYNZ4HyF3HhSB2oIzgrKgPCXqgQACCCCAAAIIIIAAAggggEDdAgRmdRuxBwJxCUyZP0fGTPrCHjOwaw85bPPt4jqenRFAAAEEEEAAAQQQQAABBBBAIL0CBGbp9efqCCCAAAIIIIAAAggggAACCCCAAAIBE2gasPpQHQQQQAABBBBAAAEEEEAAAQQQQAABBNIqQGCWVn4ujgACCCCAAAIIIIAAAggggAACCCAQNAECs6A9EeqDAAIIIIAAAggggAACCCCAAAIIIJBWAQKztPJzcQQQQAABBBBAAAEEEEAAAQQQQACBoAkQmAXtiVAfBBBAAAEEEEAAAQQQQAABBBBAAIG0ChCYpZWfiyOAAAIIIIAAAggggAACCCCAAAIIBE2AwCxoT4T6IIAAAggggAACCCCAAAIIIIAAAgikVYDALK38XBwBBBBAAAEEEEAAAQQQQAABBBBAIGgCBGZBeyLUBwEEEEAAAQQQQAABBBBAAAEEEEAgrQIEZmnl5+IIIIAAAggggAACCCCAAAIIIIAAAkETIDAL2hOhPggggAACCCCAAAIIIIAAAggggAACaRUgMEsrPxdHAAEEEEAAAQQQQAABBBBAAAEEEAiaAIFZ0J4I9UEAAQQQQAABBBBAAAEEEEAAAQQQSKsAgVla+bk4AggggAACCCCAAAIIIIAAAggggEDQBAjMgvZEqA8CCCCAAAIIIIAAAggggAACCCCAQFoFCMzSys/FEUAAAQQQQAABBBBAAAEEEEAAAQSCJkBgFrQnQn0QQAABBBBAAAEEEEAAAQQQQAABBNIqQGCWVn4ujgACCCCAAAIIIIAAAggggAACCCAQNAECs6A9EeqDAAIIIIAAAggggAACCCCAAAIIIJBWAQKztPJzcQQQQAABBBBAAAEEEEAAAQQQQACBoAkQmAXtiVAfBBBAAAEEEEAAAQQQQAABBBBAAIG0ChCYpZWfiyOAAAIIIIAAAggggAACCCCAAAIIBE2AwCxoT4T6IIAAAggggAACCCCAAAIIIIAAAgikVYDALK38XBwBBBBAAAEEEEAAAQQQQAABBBBAIGgCBGZBeyLUBwEEEEAAAQQQQAABBBBAAAEEEEAgrQIEZmnl5+IIIIAAAggggAACCCCAAAIIIIAAAkETIDAL2hOhPggggAACCCCAAAIIIIAAAggggAACaRUgMEsrPxdHAAEEEEAAAQQQQAABBBBAAAEEEAiaAIFZ0J4I9UEAAQQQQAABBBBAAAEEEEAAAQQQSKsAgVla+bk4AggggAACCCCAAAIIIIAAAggggEDQBAjMgvZEqA8CCCCAAAIIIIAAAggggAACCCCAQFoFCMzSys/FEUAAAQQQQAABBBBAAAEEEEAAAQSCJkBgFrQnQn0QQAABBBBAAAEEEEAAAQQQQAABBNIqQGCWVn4ujgACCCCAAAIIIIAAAggggAACCCAQNAECs6A9EeqDAAIIIIAAAggggAACCCCAAAIIIJBWAQKztPJzcQQQQAABBBBAAAEEEEAAAQQQQACBoAkQmAXtiVAfBBBAAAEEEEAAAQQQQAABBBBAAIG0ChCYpZWfiyOAAAIIIIAAAggggAACCCCAAAIIBE2AwCxoT4T6IIAAAggggAACCCCAAAIIIIAAAgikVYDALK38XBwBBBBAAAEEEEAAAQQQQAABBBBAIGgCBGZBeyLUBwEEEEAAAQQQQAABBBBAAAEEEEAgrQLN03p1Lo4AAgikSeDmZ5bLCx+uCl39PyPayX5DW4U+Z9LCo2+tkPteXRGq8hkHF8iI/QpCn1lAAAEEEEAAAQQQQAABBBCIT4AWZvF5sTcCCCCQNQIri9fI658Vyam3LJYXPeFh1twgN4IAAggggAACCCCAAAIIJChAC7ME4TgMAQQQyESBsvJK+fynEhn7ZbF8+sNqKS2rtLex4yZ5mXg71BkBBBBAAAEEEEAAAQQQqBcBArN6YeWkCCCAQHAEKk0m9sP0Unnni2IZ/02xFK5aE5zKURMEEEAAAQQQQAABBBBAIIACBGYBfChUCQEEEEilwM9/lMqIGxel8pScCwEEEEAAAQQQQAABBBDIagHGMMvqx8vNIdD4BNaY1lTa7TDZUl6R2Dn0OG3RlUyp69prTAMxvc9ES9MmIm3z+dd/on4chwACCCCAAAIIIIAAAtkvQAuz7H/G3CECWS+wYGmFPPbWSvnmlxKZ93eFaODUuV0z6d21uQzfrbXssnkLaWJCorrK7IXlcu+YFfLTjFJZuKxCunVsJltukCcjh7epNWB696ti+WJyifzyZ5n8Pq9MmjdvIj06N5OtN8yzs1V2aFMznLrJzNI5+ffSUJUev7SzHXj/tf8VyYy5ZXLoLq1l1LFtQ9s1hHt63Er55PvVMm1Wmb2fgb1z5fSDYpsNMzeniWwzKM9a7LRpC3n541Xy4OvVM2uGLsQCAggggAACCCCAAAIIIICAEJjxJUAAgYwWGP91sVzxyDIp9bUq0xBNXxOnlshmA3Llv+d1lBa50VOzL38ukVufK5QVRdXje81bVCHzFhXZMOy5qzqLP/gqLqmUa59YJhqYeUtFaaUJvcrt6w0zC+Ut/+4g224UPqj+rPnlMmVmWeiw+14plMfHrgx9Lls7GL+uWG3Od/nDS+XD71aHtuvCtyYgPPWWEllv3Zyw9f4P/brnyId3dZWWedHv338MnxFAAAEEEEAAAQQQQACBxixQs9lDY9bg3hFAIKMEfptTJlc+Fh6WtTNdDbVlmLd8/1up/Gf0Mu+qGss6a6Q3LPPusGh5hTz6ds3WWCPvWVIjLMtvGf6v1SITql3+yFJZvLw6iPOe2y17wzJd18xzCw+8tqJGWOaOqzCnVYfaigZlhGW1CbENAQQQQAABBBBAAAEEEAgXCP8vu/BtfEIAAQQCLfCuCblKTOsrV04/uEDG39lV3rq5izw2qpM09fwbTluiFXpaj7lj3LuO63XSfgXy6CWd5LpT2tvui26bvr8zIbwV2YIlFfLNtJLQLhrUPXtlZ/nk3q7yzBWdZYNe1a2+lhSukfcmhh8fOtC30KZVU9NirLno+bQsX7nGdp/07jZs65by0EUd5d6RHWXf7Vp6N7GMAAIIIIAAAggggAACCCCQAgG6ZKYAkVMggEB6BPwtq3RsLg2+tGzaP1eO3zNfppuuka4sNCGXBlKRyikHFMjJ5uWKjve1x8j5ocH1NWzTFmgFa4+fY8ZK23NIdVi19cC8UEi2Ye8cOWjHVqLjlLny6+zaW4F17dBM7jyngwzoUR206bFvTigS7frpit7X9ae2D92ndvVctbpSPp4U3l3T7c87AggggAACCCCAAAIIIIBA/AIEZvGbcQQCCAREoFeX5vL5T9WtvK57crkdoH+Tfrm2ddlZh7WJuabdOnn6QJqj2hc0lQE9c+xA/u4kfy2uCAVmW26QayYEyHWbQu86OH+pGX+sX/fwf73ON2FdbeWKE9vVCMt0fx3rzFsONEGcCwV1vU5mMKhPDoGZF4llBBBAAAEEEEAAAQQQQCBJgfD/okvyZByOAAIINKSAziT5uplVUscJ06KzTo64cZG0btlEtjKzWw4xrcR237KFnTEzkXq51mTu2PIImZe2PHvlkyL57MfVot00Fy5dY2fpdMe4dw3SaiutW0QekF8nHvCWfqa7JgUBBBBAAAEEEEAAAQQQQKB+BSL3Tarfa3J2BBBAICUCfbs1l1vP7FBjkP9VxZXyyfer5ZZnl8uhly2U10yoVh9Fu0Huc8ECueflQpn0a6mZUbMiYliWzLX9kwW0bxPeEi6Zc3MsAggggAACCCCAAAIIIIBAZAGaKkR2YS0CCGSIgI41NubadeSNz4tsSPbttFIpLa9uzqXh2TWPL5PfzBhiF440I8wAAEAASURBVB7dNmV3peOnXfrQUlm9dtIB7Rq5y+Yt7Nhp/brn2K6Utz5XPYZZohfu2LapmQWz+ujVnvHMqteyhAACCCCAAAIIIIAAAgggkEoBArNUanIuBBBIi0BebhM5fNfW9qUD5H//W6kN0MZ5ZqZ8y8xyee7wNpLTPHLXx3grPtbM0OnCMj12/+1byZVmHDJXClql5jrdOoa3KPtrcXmN8dHcNXlHAAEEEEAAAQQQQAABBBBIjQCBWWocOQsCCDSwgHZ/9M5CqbNH/mvffGmZ10S22zjPvpavXCNfTamaFGBl8Rr5znSb1BZpqSg//xE+6+VhZjw1b6kIH3rMuymu5e6dw/81/Z4JAXfYpEXYORYtXxP2mQ8IIIAAAggggAACCCCAAALJCTCGWXJ+HI0AAmkS0FksJ04tsYPt64D7D76+wo4h5q2OtwWYrm+Xn7p/5eWbiQW85a0JRVKxNreaa8K8655c5t0slXWN+h+2d/WHfbZtKc2bVV/rXdOy7bn3V9nWbYWr1sjzH6ySlz5aVX0ASwgggAACCCCAAAIIIIAAAkkLhDddSPp0nAABBNItMGX+HBkz6QsZ2LWHrcphm2+X7irVy/W1Jdnw3VrL0++ttOcvr6iUg/9voWy+fq5079TMDsI/a0F56NpdOjSTAT1yQp+TXdhqwzzRQf9defHDVaKtv9q2bip/eq7rti9fVT2umlsXy7vWe9/tWsrrn1VNXLDGnEbHRrvjheWiywnmcLFcmn0QQAABBBBAAAEEEEAAgUYrQGDWaB89N55tAi4o03ct7n3M91/KoZttK9kYnJ1zuBmTzAzxNfqd6tDsa9Pq7Gvfwy1o1VTuObejNE1dAzMb1r3/TbEdL81dTruA6ktLhzZNZUlhdVfJhUsqbMDVtLqxmDuszvczDimQqbPK5FczcYErrjWbfh68Xq789Hup28Q7AggggAACCCCAAAIIIIBAkgJZEZjNnrvAMkyY+GOIw60LrUjRQs/uXeyZ3PvQIZuk6MycBoHEBPxBWaSzaGjmSjYFZxo+nXloGxnYJ9d2S5xmQqUVRdUhVSvTCu3gnVvLMXu0li7twwfPdx6Jvjcz4ZuGcI+8tUKeG78qNDOnhnLbD24hV/yznZx5x2L55c+qkKvQ1OvH6aWy2YDcuC/ZqW0zeXRUJ7nedPP8xLRqK1o7U2Zb08X0lP0LZOjgPNu6Lu4TcwACCCCAAAIIIIAAAggggEBEgSZmXJ3E+glFPF3Dr9SQzBuUNXwNRDQ0IzhLh3zjvmYsQVkkoWxtbab3qv82m/N3uSxdsUZ0dkkNmpok0KIrkltt67Q76OyFFVK0ulL6d28uOmtnfZU1Jg+cMa9M8nKaSK8uWfE3j/qi4rwIIIAAAggggAACCCCAQMICGR2YvfDqeKmvlmTxihKaxSvG/skIvGzGKPO2GvOfS0MxLXXtk8mtzbYcMc9/23yuB4FHL+mUUKu4eqgKp0QAAQQQQAABBBBAAAEEGkwgYwOzILQs8z8lQjO/CJ9TLVBXUDbIDPR/qBnkX99dqeuYbG5x5gx4RwABBBBAAAEEEEAAAQQQQCAegYwMzLRVmbYu85cjDh5mV7nxxfzbU/VZr6+vSF1BtQ71ff1U3QfnyRyBurpfRgrKvHenoZmWbG5x5r1flhFAAAEEEEAAAQQQQAABBBBIRiAjB8CJ1A2zIYMqDcTcK1Jwl8wD4VgEvALJBmXuXN6ul9FCM+967/7uHLwjgAACCCCAAAIIIIAAAggg0FgEMrKFmb87Zjq7Qvpbu2mQ5lq6NZYvEfeZeoG6gjK9YjJdKemmmfpnxhkRQAABBBBAAAEEEEAAAQSyRyArWpjRBTJ7vpDciUhDhFnagkxf0a6lrc30lUwox7NEAAEEEEAAAQQQQAABBBBAIFMFMjIw82OnMzBL57X9DnzOfIFrxr4k2rosUqlrnLJIx9S1LpbgbKqpz+V7H17XqdiOAAIIIIAAAghkjcCCJRWyz4UL7P2MOratHLZr66y5N24EAQQQQCA2gYwMzCKNYRbb7db/XkGuW/3fPVdIRkBbe0UKy+ojKPPX0ztmmXcsM91P66R18+7jP57PCCCAAAIIIIAAAggggAACCGSTQNNsuhnuBYFMFtCWXJHKwK49ZMpfsyNtSum6Qd16SrQ6RFuf0gpwMgQQQAABBBBAoJEIFBatkTc/L7KvuYsqAnfXQa9f4MCoEAIIZKVARrYwy8onwU01eoFIrcsUxdviqz5aeel1x0Rp3eYeSrS6ue28I4AAAggggAACCMQuoF0+r3psmT3g+lPbS/dOLWM/uAH2DHr9GoCASyCAAAJCYMaXAIEMEaiPgfijDfqfISRUEwEEEEAAAQQQQAABBBBAAIF6EaBLZr2wclIEkhfQGSojFQ3Ojhp9hx1XLNL2WNZpUKbn8LZe8x6n46ZREEAAAQQQQCBYAuUVlXVWKJZ9op1Ej11T9yWiHR5aX1ae2Ekq1ohUJnZo6NqpuofQCeNY0Pqnwq+uSybqq+ctTfDZ1FUntiOAAALZKEALs2x8qtxTVgh4u19GCrYSaXFWV/dL7wQDGqhREEAAAQQQQKBhBZatXCNn3bHYXnTkEW2lV5dmcv+rK+Sn30tl5l/l0qFNM9m0f64cuGMrGbpxnt1vzsJyeemjIpn0W6n88meZ5OWK9OmaI//cJ19226JFrTeg42c9N36lfDxptSxYWiF5OU1k/Z45Mni9XBmxf760aRX57+tfTSmRe8cU2nPff0FHKVxVKQ+/aeo5w9Rzfrm0y28qG/bOkZHD20q/7tH/k0MDpiffXSn/+2G1TJ1VJs2biWzYK1f2GNJCDtultfxn9DKZPqdM9tqmpRyzR37Ee0n0Hn6dXSY3PLVcClo3latObGdsI99rxIuuXanP5MUPV8mUmWXyq6nnGhOardupmWy3UZ6ctH+BtC8IP+fIu5fIouUVUlJanQz+95VCefq9lfaMd5/bscYxumGyef6Pj10p3/1aKsvNd6Rbx2b2OR2xe2vZZlDV92BtlcLeNFwb83GRvGHGS5u9oFyKzXU7t2smA8wzHrFvvv0ueQ9ItH7ec7CMAAIIZItA9P/3ypY75D4QyGCBukIzvTVvmObd33vb8QRl3uNYRgABBBBAAIGGFdAWUhq+aHn3y2L5aFKxLCk0Kcza8veyCnn/m2L55PvVcve5HSS/ZVM5567FYfuUF4v8/EepXPjfJXLqgQVyygEF7vCw91kmQDnx+kU2gHEbiksq5YfppfY13lznupPby+brmwTOV1aYQetdPT/9vkRue365aNjnytIVa+SLySXy7bS/5cGLOsom/Wqeo2h1pYx6cKl89uNqd5iUmKVvfzHHmdckEw79aAK4eSbU22xAzeP1oGTuQQfd1/Nr+dR4HrRTK7sc6z/em1gs1z6+TIqMmbfMMoGhvt6aUCyP/V8n6bdu9X9y/WZCtb8Whw/yP/fvCtGXlkitx/RZX3DvkrDWa3oOfWnQeOK+BXLGwTWfsT6jETcskhnzyr3Vk4UmGNXX58b9+L3y5ZzD24S2J1K/0MEsIIAAAlkmUP1v7yy7MW4HgWwS0CBMX9HGHIsWmtUVlKmRdv2MFrRlkyH3ggACCCCAQKYJjPlklW2dpYHXFhvkSaVpjvXZTyXy8BsrZLVpKXS+CVG0C2OuaRU26ti2svXAqpZG2hrtnpdX2JZMo99eKfsObWUGlTdNtzxFQ7izbl9swzJtWXX+kW1tMFZucptvp5XIHS8Uig78fvpti+WlazpLz3Wi/2fD5Y8stduP3TNfth+cZ8MfDZM++LbYdgG866VCefSSTp6rVy3e8eLyUFi25Qa5tgWZhkvTTCu58V+vlne/MslfLSXZe9hx0xYy1oSSrU3ouNWGkQO5aJefYMLA/zNhn5Yhxt21+PvThJBa95c/XiUri9fIqAeWyPNXrSNN1zY009Z4aqyBmj4/LSOHt5HtN6lqCdixbfhz+vmPMnsdbYm3g9lHvwu9uzaT2Qsr5MHXV9jA7NG3VshA05pvV19rQp1UQMOyJk1E/mVCNX02XU3LtI++Wy2vfVokGo5p675BfXJk2NZVkw7EWz97A/wDAQQQyFKB6P/Pl6U3zG0hkMkCsQRnGp658c+8QZr/vgnK/CJ8RgABBBBAIFgCnUx4cu/IjrJO++oQpX+PHMlt3sS26NIWWlquNN0JXeChn3t3bS667aZnltvA6qufS+SQnatbT2nIpq3StCujhmVPXd5Zunaovkb3HVrJpqZF1z+vXSSFppWShme3n9VBTx2xaBe/hy/uaLv66Q7apVPDm2ufaCKvmmDme9NVVM/j7d6praPe+KwqENvOdC29w5w/x9yXlh4mnPvHVi1Nd8wmZp8iu87/j1TcgwZd427vGgqz/Neo7bOrl3Y3vfe8jtJsbSC2senKqi9t3fW6qfuMueUmtCqTAea5aXHBo3esuc7m+fbtVvM/yzQQPPfuxTYc3WXzFnLbmdXPYGDvpnLn2R3klJsXmdZ4pabbbqHsbPZpWkVoj9HWZ1q0W663BdqRphvnfkNbyqGX/m1D1Xe+KA59f+Kpnz05/0AAAQSyWCC8U30W3yi3hkA2CWhw9tyJI0PBmP/eNCiLFpbpOGWX7314WKuyD3+dLJ//Ps1/Gj4jgAACCCCAQBoFjturdVhY5qqy25bV45L17tJcdjfhkr/svFn1PtqayVu0G6LrTnmsGRfMG5a5/fS8x+zZ2n7ULoFuf7fd+36FCew0NPOX7TauroPrcuj20RZYLjQ6/aCCUFjmtuv75Se0ixpmpeoeXMsv73VjWT7QhIoaYF1zUvtQWOY9bv/tqwPKaWZstkSKtrDT0ExbiF10dNuIpxixX1VXTG1JNnVmVfdS3XH5qjWikxBo6dOtKqyr+lT1T+3K++9DCmyrvsERust692UZAQQQaKwCNf+U0VgluG8EMlDA25UyWkDmbss7oL9bp+83jntVfpg7066aOn+unDR0d7vMPxBAAAEEEEAgvQLNm61tLuSrxjqecGonE4y5VkXe3bqYFmMaYumYZ0tWhI+ZpeN1uXJwLeN2HbJTazvhgO6roY923YtUOkYZLL9T2+q/zS82A92LVB/vQjxt0bRR38jdITXMcgJNNDXylFTfg+fUMS1qq7jaSk8zWYMrq9a2BHSfY33XoFJL/+45os8zUvE+kzlmHLSN+lbt1cW0WutjWq3ppATPvb/STkLgH4vuABP6URBAAAEEogsQmEW3YQsCGSFQV2gWLSjTm1uxujgUlunniTN/IzBTCAoCCCCAAAIBFvBmR64rYKTqRgrSdD836HyBmQGzjZkhMlrR7pqtWzaRVcWVdnD9aPvFsl67UHqLDuSvRcfUSqSk4x4i1VODP50l87c55XaW0UUmoNSZMlNR5i2qahmos2pq18toRZ+zjnHmTN1+F5hx6S42Y6jp8zvppkXSvbPO3tnCdpfV8e5q++64c/COAAIINGYBArPG/PS596wScOObHTX6jrD70u6Xrnw3+3eZs2yxbN6jr/RsX3Pw3dCfcd0BvCOAAAIIIIBA1gnoDJZa1mkfPSxzN92pTTMTuJSbgfzDu3W67Ym+awikpXO7uusQ6RrpvgcNAK97cpm89r8iO/GC1lG7OWqrvrzcJra7qbbussUXFlatrPufi9fOjqr3quOU1VWcqdtPW8E9eWln+e8rhaKTFGi3WO0Kqy8NSv+xVQs5+7A2osEpBQEEEECgpgCBWU0T1iCQlQKfTJ8iD/zvPXtvOtvmbYf8U1o0r+4akZU3zU0hgAACCCCAQA0BN4mAtjyqq7jQpmVeeJfIuo6ra7tOaLB4+Ro7OUFd+0banu57uP+1FXZCA63bCXvny6G7tA6biVTDqz3PW1BV9QTpCkwAV1JaYWfhPGzXqvHkIlm4dT1MCzJ/0W6Zt/y7g50E4HMzw6p2Zf3STAKh9XvlkyL5ZlqpnXBB96MggAACCIQL8G/GcA8+IZC1ApPn/Rm6t7KKCvllwVzZtHuf0DoWEEAAAQQQQKBxCOgsmloWLq2wLaGijZW2sniN6EuLd9w0uyLJf3QzXTF/+bNM5i8JH18t1tOm8x60++Nz41faquqMk9pKqz6KhlgabOnkCLt7JnpI5FotTKs3PYe+tP6vfrpKrn9yufy5oFweeH2F3Hha+0ROyzEIIIBAVgvQ/jarHy83hwACCCCAAAIIIIBAuMB661YFZhqcfPJ9SfhGz6f3v66eHGDIoNoHufccFtOiDvavZboZ+0uDu2glWhu4dN7DH2ZGyqKSqppFm2EyFeOY9V3b6ksnXHBdUKM5+deP/7pY7nihUB56Y4V/k50k4tCdW8uWG1RNtvCVaXGm3wUKAggggEC4AIFZuAefEEAAAQQQQAABBBDIaoEdN21hZ1DUm3zYBCql5TXTktWllfLEu1WtqLqaGRq32jC1gdlBO7aywY22nnpibNV1/OiPm/UueKr0zRqQznvI84xo8cE3xf5q2xZhNzy1PLTeV3W7Prd5dT/NFUWRZwnQWSx1QH8N5+5+uTB0Pv+COn1hxijzlpKySnl63Ep50LQe01ZkkUo/M/umFp2N1D9BRCz1i3RO1iGAAALZJEBglk1Pk3tBAAEEEEAAAQQQQKAOAZ0d8Xwzg6KW3+aUyak3L7YDwrvDNGA52cyqqO86S+ad53RI+YyK2t1w961a2ks+/8Eq2xpqydpB7nVw+tHvrJR7x0QPiVJxD3+YQfnPuWuJXPnoMokWWjkT73sP0zpOB/fX8rEZE+xJEyzqDJU6JtzHk1bLuXcvkU9/qG6dF+ncGkK68uG3q2X5yqrQzBuuDeqTI27ssjc+K5JLH1oqzkj3+920dLvm8WVyjwnTzv/vktDsp3renTZrITlrQ7nz710i4yYWh+5RW6u9+XmRvG7OqSVSGBpL/ezB/AMBBBDIYgHGMMvih8utIVCXQEGLljKwaw+ZOn+O3XWLHuvVdQjbEUAAAQQQQCALBIaaGRTPObyNDaV+nFEqB1yywIZAa0wSo4Pxa9GxzW41A8YP6OFpUpXCex85vI38PrdMZpjgR1tD6auNmbGxcG2Lq15dmsvsheWhWSj9l072HnS2yM9+rAq2th6YK/sNbeW/RNTP/xnRTs68fbFtAXfXS4WiL22p5VrEbbF+rnz/W6nt6rggwjhtOpPm9oPzRAfi/2pKiexhJgjIMf9l9vj/dZL+Hu8zD2ljg7D/mQDu3a+K7UvHfys2rc6WrQ3ZWrVoYgfu1/WuqOO9IzvIRfcvtcHaqAeX2tCzW6fmdsZTF8yt26mZXHxMVXjqjtX3WOvnPYZlBBBAINsEaGGWbU+U+0EgToFRexwix2+zi4wYuructuMecR7N7ggggAACCCCQqQLH75Uvo01AM3i9XNEueH8vqwiFZZubwOfuczvYGRrr6/66mFZWo/+vs+wxpKW4WTg1LNMB6rU74jNXdpYma3suNvX3GVxbqWTuYWvTzVSv1b6gqTWI5z63MWO6PXhRJ9mgV3WYqGGZnussMwmAbnNdHr+eFt5d0l3n4mPahY7XrqkagvmLbeF3dge54sR2ogGievy1uMKGZTrT6K5btJCHzLUitRLTdU9d1ll22byF6L4Vpn5z1gaQet/H7JEvT1zaWTq0ifyfhLHUz19fPiOAAALZJNDEjAdQ89/MAb/DW+99OqyGF5x5bNjnhv4QtPo09P1zvdQIXDP2JZmytqWXO+Ohm20rh22+nfsY0/tRo+8I2++5E0faz//99F35bMbU0LYzd95btl9vw9Bnt6B1GDPpi7C6DDKt0C7f+3C3S6N8Lysrk6KiImnWrJnk5+c3uMHff/8tU6dOlebNm8vgwYOloKCgweuQzgtm8/2//d6n8tuMWfKreZ17xnGyfr/eouveHvepJd93j51k3z13Cq3T7QPMS9dREEAAgVQJaJjy+7wyKS0T6d65mbTLjxyipOp6/vNo2DTdtDbT4K6XmcVT8zHtfjhs5Hy76yXHtpXDd23tPyzscyL3oCFVbk6TpLqcaksv7b66Tvtm4u3KGFa5KB90sH0NsbSbZI/OzaVj29rdtb7aFVP3i/daGohq11GtZxfz0hZxdZV461fX+diOAAIIZJIAXTIz6WlR16wW0K6R/sBszPdfhu453uAsdODahU279w4FZi1zcmXDLt3DdokUlLkdtG7ZWIqLi+WXX36RmTNnSvfu3WX99deXtm1rdkvQe3/ppZfkmGOOsWHVjz/+mBBHPNdzF1i+fLmcc8458sQTT7hV8swzz8jRRx8d+qxhkp67ttKzZ0/zV+m1f6Zfu2Oix0W7zvz586Vr167RNie0Ppb71xMvXbrUBop6T/369ZMBAwZIXl5qB6hO6AbqOMgbjOmuv02fZQOzSIcN6N9bZJzYYE3DNS2EZpGkWIdA5gpsOWJe5lY+gZp/88i6smr1Gslv2dSGN+v3rG6tpafTrqKuuFkxG5uRu/8gvWvruvvO7xikKlEXBBBAoF4EMjIw69m9i8yeu6BeQJI9qdaNgkAiAhqI6Vhi9RWa7dBvoLRt2UrmLFsim/foKx1bV7VQqi0o0/vQ1mXJhnWJeNTnMdpa7M4775Srr75aVq6snplLW2+dddZZctVVV0mbNm1SVoVkrnf++eeHwrJtt91WNt98cxk4cGBY3Q466CCZMGFC2Dr/Bw2U2rVrF7Y60ePcSebOnSt33XWXfPfdd/L999/b0G7VqlVuc0re67r/RYsWyahRo+TRRx81Y9xUN5ju2LGjXHvttXLKKaeY/wiL4U/oKalt/CfRlmVaXMsydwYNwvxhmLYsu++2y2xgdud9T9lWaW5/3hFAIDsEvn103ey4kRjv4r+vFMq4r1fLnabLYV8zCYC3aNfMu824YFq0NdSgPrl2ubEZ2ZvmHwgggAACaREI/3+mtFQh+YtqeJauoCqowV3yqpwhHQLa7fFl0x3S27LM1UPX6SuRbpruHIPX7S36ciXatdz2ZK7lzhHE95NPPtmGUC1btpQRI0ZI7969Zfz48fL555/LHXfcYVudvf322ymreqLX09ZVjz32mK3Hww8/LCeddFLEOs2bV9UiQVt3aZfRSCVSaJTocXr+d999V4477jjRwEpLt27dZMiQIXY5Vf+o6/61i+xOO+1kW5ZpC8Hhw4dLixYt5NVXX5Vp06bJ6aefLitWrJALL7wwVVVK+XlcSzENw2Itbl93bKzHsR8CCCAQJIHSskoz2H2p7Y54wnV/yzAzY+am/XOlrekKql0Onx2/MjQj5P8d3zY0xlmQ7oG6IIAAAghkt0BGjmH2wqvjw1qYHXHwsLQFZhMm/ij6cmXokE1EXxQEkhVINMyKNoaZtz51nVtblR1qWrzpe7aVt956S/bff39p1aqVfP311zJo0KDQLf7888+y8cYb28+vvfaaHHjggaFtzz77bEJdMhO9nl544sSJss0220hubq4sXLgwandRDYlKSkpkyZIl0r59+1Cd61pI9LiHHnpITjvtNHt6DfGuueYa6dIl9a1r67r/Cy64QG677TbbTVbDTu+4bvfdd5/8+9//tt0yZ82aVS/1q8s3lu3aJVO7WroQLJZjdJ9Ej4v1/OyHAAIINIRAaXml3PDUcnnjs6KIl2vTuqmca2bSPNBMAEBBAAEEEECgoQWC20+lFgl/IOUP0Go5NKWbtHWZNyxL6ck5WaMX0G6Q2sJLX5GKtjbTcEzDr1iLdr/UyQUitWDTc7jB/bWlWzaGZXqP2pJMi7aO8oZlum6jjTaSrbfeWhfliy9id7UHRPlHMtfTAExL586do4ZlixcvtmGZBoDxhGWJHqddLi+99FLb/VFDRA3P6iMs0/uu6/6drdbHG5bpsTrGmwaNGiROmjRJVwWyaLfLeMMyvZFEjwskApVCAIFGK6AD/F9pZn980szkeMFRbWVPM1vmJv1yZb+hreRsM9PkK9etQ1jWaL8d3DgCCCCQfoGs6JKpjBqaaZCmXTPru3um64ap1/QXf5jn385nBOIR8I4dFi3k8q737u+9TizjlGVyi7Jly5bJm2++KR988IF8/PHH0rp1a9l0001tsKMhmLcccMABssUWW8iWW27pXR1a3nXXXW3LM9ddMbTBs6AD7Gurqk8//VRmzJhhg7a9995bRo4cWWO8rESupy2rrrjiCtEB7LVot8e99trLLuv7ueeea5f1H66ePXrE1xow0eO05ZbWRwOpI488MlSPWBZifU6x3v/FF18sOj7c7rvvXuPyOl7bZpttZlvpuXv17/THH3+Evjd6TZ0YYfvtt5fLLrtMdAy0VBdtFeZmw4z13G6GTP/+ei4t/nHO/PvxGQEEEMgEgY365oi+jvpH7bNgZsK9UEcEEEAAgewRyMjATAMxDab8rbv8nxv6MRGWNbR447meBmH6itaV0hua+VW0RZl/IgHvPpk+TpkO2r/bbruFWhGtu+66dkyrKVOm2Jkt77///rCxvyKFK14P7ZapZY899vCuDi1rq6fttttOfvjhBzteVkVFhQ3qNKzTAO2FF16w690BiVxPr/G///1P9NxaSktL7Wdd1hkgvcWFQS4w04HvtQuijumVkxM+21gqjrv99tvtac477zz7rmOEafDUv39/283Vew3vcjzPKdb7984U6r2WLmvLMg0zdWbQYcOG+TeLfj80HNMQT8d901Z82kVXX08++aRtiajBaqqKBlxvj6sKueI5pzvGH4xFWx/PudkXAQQQQAABBBBAAAEEogtkZGCmt+PCqXSHZI5W6+Pq5NbxjkCqBRIJzqKFZZkelKmtBkpHHHGEDcs0mNKgQwOzmTNnigZlN998s5x55pl2MPpNNql9bEGdRVIH2NfB/jU80ZZhkYrODKkBy7hx42THHXe0u7z44ot2NsY33njDdlE8++yzIx0atq6262krMu36qAPra8s1vac5c+aEHe8+uMBMW6MdfvjhtoWdtgDT7og6/pk6+FvZ6bGJHKd1nj9/vuTn59sZMQcPHiwaMGpIpyY77LCDPP7449KnTx9XPfse73OK5/7DLrT2gwZ4V155pWi30z333NO2HPPup/ewzz772LBMZ+HU2VK1S+tXX30l119/vehz1O+VhqK6PhXFBVz+2TBrO7cO6s9smLUJsQ0BBBBAAAEEEEAAgfoTyMgxzBxHUEKqoNTDufCe/QIanD134sio45vVJuDGKdNzZHrRYOOdd96RddZZR3RwfQ2WtGhgc9NNN9nASFsaPf300xFv9aOPPpJ//etftrujjsOlg8hvtdVW8u2330qbNm0iHqMBil5XWy3poPn6Ov744+WGG26w+9966622m2CkgxO5XqTzeNe54Ounn36Sl19+2bYq69u3b6hVmo7Jpt1U/SWR47TlmpY1a9aIdl3VsExDucMOO0w6dOggn3zyie3uOn369LDLJfucwk4W5YMGg/os9X7XW289eeqpp+SEE04QnbzBX/RZ6b1oKKrPy4Viei8amupnvYdIbv5zxfs5nvHK3L6RZsO0XTX32Cney7M/AggggAACCCCAAAIIxCiQsS3M3P25sMq1NHPji7l3t1+q3r3jo7kWZd51qboO50EgFgFv6FVbt0w9lwZlmTxOWSQPHXdKy4gRI8K6Qbp9r7vuOnn00UejDoY/depUGT16tNvdvh988MG2O2PYSs8H7RKp46P5i9ZBx9SaPXu2DVsGDhzo38V2FY33ejVO4luhAZEGPxoWnn766eJa0um9DR8+XCZPnixnnXWWfP/997YVmDs8keNcYFZUVGQNNKR0XUG1hZu2htOw8ZJLLrHhnbtWss/Jnae2dw0jX3rppdAuOo6djrGmgaa/uProLJr+omOX3XjjjXbSB+0KG9Ti76IZ1HpSLwQQQAABBBBAAAEEMlWgielKU5mplafeCCBQLRBtfLNsDMrcXWsrr/fff1+eeOIJ28rLrY/1Xcev0u552v3xl19+kXvuuUe+/PJL29VyzJgxtmumO5fOCHnMMceIdkP88ccf3eqwd23Zpd1Bx44dGxqk37tDPNfT41yXTB2PLFqXTO/5/csammmAVl5ebp3qGk/NHR/tuHvvvdeGb23btrXBmH88NQ2itJWWloULF4b8En1O8dy/tpgrLCy03TC/++47ueWWW2x4edppp9luqe7e1EJn1Fy9erVtZdarVy+3qV7fzzj/Wnv++267LK7rRDtOW539Nn0Wg/7HpcnOCCCAAAIIIIAAAgjELpDRXTJjv032RCD7BbzdNHV8Mtf18vK9D7fL2SigA7dr6datW0K3pzMpbrjhhnbGTB1A/vPPP7dhmQ64/9xzz8V9Tu0aqiVauJXq69VVQW3l5gIsDQRjLdGOc39f0cHw/WGZnnvIkCHSqVMne5lff/01dLlkn1PoRLUsaAs7fZY6kL+2qNPwTuvywAMPhAWcOr6ZhmVaEv3e1FKNBtukY5u5cdEa7KJcCAEEEEAAAQQQQACBRiRAYNaIHja32jgENDjTVzYHZe5JuoBq+fLlblVS702bNhVtkaRFx92Kt+jsjlrat28f06HJXi+Wi7gB+P/8889Ydg/tE+m43r172+0LFiwI7edf0NZwWv7666/QplQ/p9CJa1no2rWraPdaLd5nqRM6uJKq7407X0O9uzHN3BhnDXVdroMAAggggAACCCCAQGMSyPgxzBrTw+JeEUAgXKB///52bC43tlb41qpPOkB9kyZN7EvX3HXXXaKzSOosiBtvvHGNQ3Twfy3aLTGeol39dAZNLdo105X6up6eX7t43nnnndK8eXMZNWpU2Bhl7vraNVKLG2tMlxM9bsCAAXq47XZaVlZmJxiwKzz/cEGZC9x0UyLPyXPKiIsrV660EzvoRh0zTccs85dIz1Jb+WnLM/0O6Pfm/9k7D/Amy/WNP6WbDsooWxBZgiLiFhU3qDgQ3KJ/FT1uARfD4zq4j4oi7gHKUVyAe+ECcYPgApThYMjq3ov83/tt3+TLl6RJ06Rtkvu5rvRb7/x9udDefYbxiLP2hScdPtbvjfV5c52/++FiN6+yvr1rBczmWg/nJQESIAESIAESIAESIIFoJkAPs2h+u9wbCUQ5ASSuh7388stedwohJT4+XhcFMA0++eQTueOOOwQ5yrwZkuTDvIlpuA/vqry8PJy62fz586WsrEwLN/369XM+a+x8zoG8nCCXGPKK3XzzzW5J9k1T5PRaunSpvuzfv7+5LcH2g2AGIQxJ/1GF0m7IHQaBDp5zVgbBvCf72PZrCGQzZszQ79Ls0d7G17s06/EVdjt06FD9vfG2R/scTXndt0+tQAbPMl0lcwSrZDYlf85FAiRAAiRAAiRAAiQQWwQomMXW++ZuSSCqCKDKIfJQQTBBZUOrITE/vLtgY8eOdT464YQT9PmDDz6ovdOcD9QJ8luZcUaNGmV95DyHIDRmzBgtGpmba9eu1R5euEZIZ3p6unkkjZ3POZCXE3hAmbDDu+66yy0MEh5g48eP1+IecpIdccQRzhGC7QdPtttvv12PM3XqVPnxxx+dYyIc9aqrrtLXF198sWRmZjqfBfOenJ19nGAPqMoJu/baa7XHmLXpe++9J2+++ab2ghs5cqT1kUybNk17jyG/GYpGGINX2TPPPKMLP7Ru3VpGjx5tHrWII4QyFA2YcMV5TPbfIt4IF0ECJEACJEACJEACJBDVBNQvCDQSIAESiFgCCxYscKSkpKDar2Pvvfd2KLHGse++++pr3LvhhhscKizTuT+cn3TSSfq58j5zKEHLoQQdhxLIHKmpqfq+EmLc+qDziy++qJ8pgc6hvJv0nMccc4wDH1xjLhWK6VBVN51z4STY+dBXVdvU46q8YLj0aioPl0OFPOp2yrPLMWzYMMdFF13kUB5e+l5ycrLj008/9egbbL+amhqHEpL02EpUcigxynHWWWc5VM4wfU9VnXRs377dY76GvicM4G//OTk5DswH9ipvnOOMM85wXHHFFY4jjzxS38N9JYB6rAU3Jk2apNvgO3DUUUfp740ZC9+DV1991Wu/YG9efu00Bz4NtWD7NXQeticBEiABEiABEiABEiABEnAngDwtNBIgARKIaAI///yzQ4XRORITE7UIAuFo8ODBjueee87rvpT3lUOF8zlFHggr+KiE8I7p06c78NxuRjBTHl0O5b3mGDJkiAPzoB/mPe644xzK+8zeTV8HMx86+hOMzGQqH5cWiiCOmb0obzDHYYcd5lBhiaaZxzHYfhABVVirGz+ITOeee65Dhat6zGNuNPQ9BbJ/iGbXXHONA+Kd2TuOAwcOdLzzzjtmaq9HFZarxUblrab7QniF4PjNN994bd+Ym8EKX8H2a8xa2ZcESIAESIAESIAESIAESMDhiAME9csFjQRIgAQinkBlZaX8/vvvOsE9krsHYkj+jgqSSIpvqjkG0g9tkHh+/fr1Ol+XElsC6taY+fxNoIQsnZAfOcaQQywpKclfF/082H7ovGHDBh2eisT+yBcXiAXznvyNi/+UYS0IDcVarGGx/voWFRXpcFzkeVOio7/mQT1/6LE5guqWCKcMtLol2qMfDKGYNBIgARIgARIgARIgARIggaYjQMGs6VhzJhIgARIggRglYK9w2RAMTPDfEFpsSwIkQAIkQAIkQAIkQAKhIZAQmmE4CgmQAAmQAAmQgC8CI+sqWr770WJfTTzuwxOtLypishqmBxveIAESIAESIAESIAESIIFwE6CHWbgJc3wSIAESIAESIAESIAESIAESIAESIAESIIGIItAqolbLxZIACZAACZAACZAACZAACZAACZAACZAACZBAmAlQMAszYA5PAiRAAiRAAiRAAiRAAiRAAiRAAiRAAiQQWQQomEXW++JqSYAESIAESIAESIAESIAESIAESIAESIAEwkyAglmYAXN4EiABEiABEiABEiABEiABEiABEiABEiCByCJAwSyy3hdXSwIkQAIkQAIkQAIkQAIkQAIkQAIkQAIkEGYCFMzCDJjDkwAJkAAJkAAJkAAJkAAJkAAJkAAJkAAJRBYBCmaR9b64WhIgARIgARIgARIgARIgARIgARIgARIggTAToGAWZsAcngRIgARIgARIgARIgARIgARIgARIgARIILIIUDCLrPfF1ZIACZAACZAACZAACZAACZAACZAACZAACYSZAAWzMAPm8CRAAiRAAiRAAiRAAiRAAiRAAiRAAiRAApFFgIJZZL0vrpYESIAESIAESIAESIAESIAESIAESIAESCDMBCiYhRkwhycBEiABEiABEiABEiABEiABEiABEiABEogsAhTMIut9cbUkQAIkQAIkQAIkQAIkQAIkQAIkQAIkQAJhJkDBLMyAOTwJkAAJkAAJkAAJkAAJkAAJkAAJkAAJkEBkEaBgFlnvi6slARIgARIgARIgARIgARIgARIgARIgARIIMwEKZmEGzOFJgARIgARIgARIgARIgARIgARIgARIgAQiiwAFs8h6X1wtCZAACZAACZAACZAACZAACZAACZAACZBAmAlQMAszYA5PAiRAAiRAAiRAAiRAAiRAAiRAAiRAAiQQWQQomEXW++JqSYAESIAESIAESIAESIAESIAESIAESIAEwkyAglmYAXN4EiABEiABEiABEiABEiABEiABEiABEiCByCJAwSyy3hdXSwIkQAIkQAIkQAIkQAIkQAIkQAIkQAIkEGYCFMzCDJjDkwAJkAAJkAAJkAAJkAAJkAAJkAAJkAAJRBYBCmaR9b64WhIgARIgARIgARIgARIgARIgARIgARIggTAToGAWZsAcngRIgARIgARIgARIgARIgARIgARIgARIILIIUDCLrPfF1ZIACZAACZAACZAACZAACZAACZAACZAACYSZAAWzMAPm8CRAAiRAAiRAAiRAAiRAAiRAAiRAAiRAApFFgIJZZL0vrpYESIAESIAESIAESIAESIAESIAESIAESCDMBCiYhRkwhycBEiABEiABEiABEiABEiABEiABEiABEogsAhTMIut9cbUkQAIkQAIkQAIkQAIkQAIkQAIkQAIkQAJhJkDBLMyAOTwJkAAJkAAJkAAJkAAJkAAJkAAJkAAJkEBkEaBgFlnvi6slARIgARIgARIgARIgARIgARIgARIgARIIMwEKZmEGzOFJgARIgARIgARIgARIgARIgARIgARIgAQii0BCZC2XqyUBEiCB0BC478UCeeXTEudgt4/LkhOHtnZeR9LJs+8UyWMLipxLvuLUDBl3Yobz2ttJfvFOKSzZKZ3bxUtSYpy3JrxHAiRAAiRAAiRAAiRAAiRAAjFLgIJZzL56bpwESCDWCGzaXiOz3y+Shd+XS1HpTr39OKWVZWfFy2F7pci/TkmXDm3iYw0L90sCJEACJEACJEACJEACJEACHgQYkumBhDdIgARIIPoIrNtULRfctV3mLyp1imXYpcMhsi2vRuYtKpFTJm+TL38qj77Nc0ckQAIkQAIkQAIkQAIkQAIk0EACFMwaCIzNSYAESCDSCKz+q0ouuW+H5BbWepX5Wn95pUNueTZfdhTU+GrC+yRAAiRAAiRAAiRAAiRAAiQQEwQomMXEa+YmSYAEYpUAPMgmPZEnBSpnmbFhg1PktWkd5b37O8mVozMlM831nwLkNpv3ealpyiMJkAAJkAAJkAAJkAAJkAAJxCQB5jCLydfOTZNA9BLYqQSimhqHJCY0LpF9tRojIb7hY6BffKs4QW6wYM3f3Duhfanx1TR+bdlvFbJxW7WzHRL833VpW0lNru180ch0nfx/zofFzjZrNlY5z3lCAiRAAiRAAiRAAiRAAiRAArFIgIJZLL517pkEoozAVpWD67l3imWpEoc2q8T2EJyQyL5n5wQ546g0OWJISkAC1gYlLM2cVyQ/r6uUbfk10qV9vOzbP1kmnpEpbdJdXlh2fB98WyZf/1Ihv/1dJes3V0mCEuu6Z8fL/rsn62qV7TI9+96rqnT+sr7SOdTsm7LlVVW1840vSmXdpioZc0SaTBnbxvkcnmL/+6hYFq0oF4RYQpAb0DNJLh9VfzXMNRtdYhkGO3iPZKdYZgY/cp8UsQpmW3IYkmnY8EgCJEACJEACJEACJEACJBCbBCiYxeZ7565JIGoILPy+TG55Jl8qq5WiZDGIaPh8t6pC9u6bJI9e215Skny7ZH3za4XcP7fQLSH+5h01snlHqRbD5t6WLXbhq6zCIXc8ny8QzKxWo3KBIck+Pm8tKZX/XtlODlJCldX+2lItK/90eXI9Nr9QVbB0eXlVVbn2g9xiNz+dJ5/+4J6QH95jl/63Qnbrmmgd2u183/5JcsclbZ33+vXwbJtX5ArXRMM9eiU52/OEBEiABEiABEiABEiABEiABGKRgKfbQyxS4J5JgAQikgBCB299zl0sy1KeYPAMs9qKNZVy+6x86y2P8/e/KXMTy6wNkAT/2XeLrLf0+cRHcj3EsvRU939WS5WodvMzeZJT4C5K2QezimV4Fm/ZwhNvFHmIZaZ/jRq2vhDKfrskyvEHpTo/vbt6/p3k8+XuQtx+u1MwM3x5JAESIAESIAESIAESIAESiE0C7r/ZxSYD7poESCBCCXygRK4K5X1l7PJTM2ThQ53lnfs6yXNTOkgry79w8EQrLPUtWiEf2MUnZsizkzvInf9qKwcOdPcIe+8rdy+yrbk1snR1hZlaINS9dGu2LJrZWV68JVv6Wzy5UJ3yw+/c+zs72k4yW7dSHmMJejw8QrL+1z8vcWt17P6p8tSN7WXmxPYy8uBUt2cNvfhxbaVALDSG3GYHDHDfu3nGIwmQAAmQAAmQAAmQAAmQAAnECgFPV4NY2Tn3SQIkEPEE7J5VqP5oEuEP7pMk549Il7UqLNLYNiVyQZDyZv86OUMuUR9jEMyGT9wiKCIAg9hWpD4Zdf03qlxpIw5wiVX7K5HJiGS790yUUYe1FuQpM/b7Blf4pblnPXZuFy8PjW8nfbu7h0y+/VWpIPTTGPaFpP1mnwj1LCl3iN1LzLSv7wghb9LjeTrnm2l3mcqJVl++NtOORxIgARIgARIgARIgARIgARKIZgIUzKL57XJvJBDlBHp0SpAvf3Z5ed35QoFO0L9X7yTtXXb1aZkBE+jSwRIDqXq1zWglfVU4IxL5G/tHJcM3ghlyg+FjNyTnr1T5x3p3c//ndYsS6+qzWy7M8hDL0B65zqx2ihLijFiG+0j+P3DXxAYLZljjpMdzZbsqbmAMIuE5x6SbSx5JgARIgARIgARIgARIgARIIGYJuP9GF7MYuHESIIFIJIBKkm+qqpLIEwZD1clx9+yQtNQ42U9VtzxACUBH75uiK2YGsz8jjpm+1S5tydzSnmfzF5XKkp/KBWGa2/J2unlsmYYQ0uqztBTvBQlQeMBq3nKQWZ8Hco68Z5OfyJMffndV6eypxMd7L1eea94d8AIZlm1IgARIgARIgARIgARIgARIIGoI8FejqHmV3AgJxB6BXl0S5P6r2nkk+S8pc8iiFeXy35cKZMy/t8kbSlQLhyEM8oTrt8ojrxfKciU+QdyqrvGjjDVwIfZiAW0z3T3hGjicQLi79dk8zcf0zc6Kl0dUPjS7QGie80gCJEACJEACJEACJEACJEACsUaAHmax9sa5XxKIMgIII5x3R0d568tSLQItW10pldUu0Qri2bTZ+bJG5RC74Zw2Ids98qfd9FSelNcVHUBo5BFDUgQ5xnp3S9ShlPfPdeUwC3bi9m1aqSqYrt7llnxmrruBn92j8qpZk/yjWMHj17eXbtmNE+ICXwFbkgAJkAAJkAAJkAAJkAAJkEDLJ0DBrOW/I66QBEjAD4HkpDg5/cg0/UGC/BVrKrWA9pGlMuU7qsrlhDMyJTHBe+ijnyk8HkN0MmIZHp50SGu5VeUhM5bROjTzdGnvLmT9k1PtkR/NzOnvOHNeobz+maviZnpqK3n02vYCTz0aCZAACZAACZAACZAACZAACZCAiwB/S3Kx4BkJkEAEEUD4o7UKJTy7LhqZLqnJcXLwnsn6U1C8U75dWVsUoLhsp87ZBY+0UNivf7iKAWC801Q+NavVuKcesz5q0Hm3bPd/pj9UIuChe6W4jbGjQCUl82PPv18ss94rdrYCpxkT2gkqetJIgARIgARIgARIgARIgARIgATcCbj/Jub+jFckQAIk0GIJoIrld6sqdEVKLPKbXyvkuANTpaul2qXVAwxtEH4YKktXhQWs9s5XpUp8aiPxaopNSsy784V862OVO8wVJur2wM/FCQelyhNvFDlzo32gPNsG7pokpw5rrff+nrp+zeI15m24eYtKZIbKs2a1y07J0OLi7ypU1Zt1aBMv7TJDx8vbHLxHAiRAAiRAAiRAAiRAAiRAAi2VAAWzlvpmuC4SCJLAyi0bZd7yr2VA5+56hNOGHBzkSC27GzykzjgqTf73Ya3XFJLtnzp1mwzplyTdlGiGJPx/ba12bqJTu3jp2z103lT77Z4sSPpv7NVPSwTeX23SWsnflnnN84KS4AQzrHvkwany5pLawgU71TDIjTb9lQLBuT8dDpU775njmUtt+qvuAppZpzleqgS1f52cYS55JAESIAESIAESIAESIAESIIGYIkDBLKZeNzcbzQSMUIYjzBznrfhGxux9kESjcDb+dJWTTKX4MqGGEM2+V15n39teNKo/PjKhvbQKocMUxLqPl5bpfGlmOoSA4gODd1ZuoStUcpsSriBwtXJ3TDNd6z1eMTpDVv1VJVZvsBrX0DJotyT5eX2l1zEqqhx6Xq8PeZMESIAESIAESIAESIAESIAESMArgagQzDZs2qo399V3Pzk3ae45b4ToZJdunfRI5jj0gL1CNDKHIYHgCNiFMm+jQDQzFk3CGcSnq8ZkygAVooiwxNVKVCoqdSlJrZUX2qmHp8m5w9OkU1v35PmGR7BHhF5ChHvmnSKZu7DEWZkTotwhg1Lklguy5KrpOfLb37Uhj4VqXT+trZS9+yY1eEqERz47pYPcpcI8FymvttK6SpltVIjpv07KkKGDkrV3XYMHZgcSIAESIAESIAESIAESIAESIAGvBOJUXp3g4oS8Dtf0NyGSWYWypl+BCEQzCmfNQT625wxEKPNGKFq9zbBX/Gu2cXu15BXtFFSXhNAUF4RHlzdu9d2DZ9uGbTVSWu6QPt0SBFU7w2U7lR64bnOVJCfGSY9OUfE3j3Ch4rgkQAIkQAIkQAIkQAIkQAIkEDSBiBbMXlmwUMLlSdZQohTNGkqM7RtD4HWVo8zqNWYfC6IYzF+bSPY223fcZvu2eR0GAs9O7hCUV1wYlsIhSYAESIAESIAESIAESIAESKDJCESsYNYSPMvsb4mimZ0Ir0NNwJ9QNlAl+h+jkvzjaMxfn2j2ODMMeCQBEiABEiABEiABEiABEiABEiCBhhCISMEMXmXwLrPbmaceq2+Z/GL256G6xvz4eAsFxRrCPX+o9sFxIoeAv/BLb0KZdXcQzWDR7HFm3S/PSYAESIAESIAESIAESIAESIAESKAxBCIyAY63MMymFKogiJmPN+GuMS+EfUnASqCxQpkZyxp66Us0s963tjdj8EgCJEACJEACJEACJEACJEACJEACsUIgIj3M7OGYzRkKafd2g5BmPN1i5UvEfYaegD+hDDM2JpSSYZqhf2cckQRIgARIgARIgARIgARIgARIIHoIRIWHGUMgo+cLyZ2INIWYBQ8yfHzNBW8zfBojyvFdkgAJkAAJkAAJkAAJkAAJkAAJkECkEohIwcwOuzkFs+ac286B15FPYNr7rwm8y7yZvzxl3vr4uxeIcLZKrefm40/3NxSfkwAJkAAJkAAJkEDUENiaWyMn3LBV72fK2DZy2pFpUbM3boQESIAESCAwAhEpmHnLYRbYdsPfqiWvLfy75wyNIQBvL29iWTiEMvs6rTnLrLnM0A5rwtqsbez9eU0CJEACJEACJEACJEACJEACJEAC0USgVTRthnshgUgmAE8ubzagc3dZ+c8Gb49Cem9gl13E1xp83Q/pAjgYCZAACZAACZAACcQIgcLSnfL2l6X6s2lHTYvbdUtfX4sDxgWRAAlEJYGI9DCLyjfBTcU8AW/eZYBi9fgKh5cX5p3nw7vNvBRfazPPeSQBEiABEiABEiABEgicAEI+b3suX3e469K20q1DauCdm6BlS19fEyDgFCRAAiQgFMz4JSCBCCEQjkT8vpL+RwgSLpMESIAESIAESIAESIAESIAESIAEwkKAIZlhwcpBSaDxBFCh0ptBODt71nSdV8zb80DuQSjDGFbvNWs/5E2jkQAJkAAJkAAJtCwC1TUOvwsKpI2vQdB3p/8pfHV33q+qDm6Qmp0ijuC6OucO1R6cAzbgBOsPBT9/UwbLF+NWBvlu/K2Jz0mABEggGgnQwywa3yr3FBUErOGX3oStYDzO/IVfWgsMQFCjkQAJkAAJkAAJNC2B/OKdcvX0HD3pxDPbSI9O8fL4giL5eX2l/PlPtbTLjJfBfZLklMNay9A9k3W7jduq5bXPSmX5mkr57e8qSU4S2bVzolxwQroctU9KvRtA/qy5C4vl8+XlsjWvRpIT46TfLokyaLckGXdSumS29v739W9XVsjMeYV67Mevby+FJQ55+m21znVqnVuqJSu9lezeM1EmntFGenfz/SsHBKYXPiiWL34sl1V/VUlCvMjuPZJk+AEpctoRaXL7rHxZu7FKjjswVc4dnu51L8Hu4fcNVXL3nALJSGslt12Ypdh636vXSetu4p28+mmJrPyzSn5X69ypRLOuHeLl4D2S5eKTMqRthvuYE2fkyo6CGqmodCmDj84vlP99WKxHnDGhvUcfPPhFvf/Z7xfLD79XSoH6jnRpH6/f05lHp8mBA2u/B3VLcjtw7cc1AABAAElEQVRAXJv3eam8pfKlbdhaLWVq3uyseOmr3vG4ken6u2TtEOz6rGPwnARIgASihYDv/3pFyw65DxKIYAL+RDNszSqmWdtbt90Qoczaj+ckQAIkQAIkQAJNSwAeUhBfYB98UyafLS+T3EKlwtTZ9vwa+XhpmSxaUS4zJrST9NRWMv7hHLc21WUiv/5RKTc8miuXnpIh/zo5w3R3O/6lBJQL79qhBRjzoKzCIT+urdSfhWqeOy9pK0P6KQXOZkUqab1Z5+IVFfLAywUCsc9YXtFO+fqXClm2ers8eWN72au35xil5Q6Z8mSeLPmp3HSTCnW27DfVT32WK3HoJyXAbVai3t59PfujU2P2gKT7GB+2WPEcNay1Pg/0x4fflckds/OlVDGz2l9KMMTnna/K5LmpHaR3V9evXGuUqPZPjnuS/03bawQfmDfvMbzr62fmunmvYQx8IDReODJDrjjV8x3jHY27e4es21xtXZ5sU8IoPl8q7ucfly7jT890Pg9mfc7OPCEBEiCBKCPg+tc7yjbG7ZBANBGAEIaPr5xjvkQzf0IZGCH005fQFk0MuRcSIAESIAESiDQC8xaVaO8sCF779E8Wh3LHWvJzhTz9VpGUK0+h65SIghDGJOUVNmVsG9l/QK2nEbzRHnm9SHsyzXq3WEYOba2SyivXLYtBhLv6wRwtlsGz6rqz2mhhrFrpNstWV8j0VwoFid8vfyBHXpuWLbt09P1rw83P5OnnY0ekyyGDkrX4AzHpk2VlOgTw4dcK5dnJHSyz155Of7XAKZbt2z9Je5BBXFqtvOQWfl8uH3yrlL96rLF7OGxwiryvRMk0JTrut7t3Qc7X9F8pMXCqEvtgByjuxuPvbyVCYu2vf14ixWU7ZcoTufLybR2lVZ2jGbzxwBiCGt4fbOIZmXLIXrWegO3buL+nX/+o0vPAE+9Q1QbfhZ6d42XDthp58s0iLZg9+06RDFDefEfavAlRVABiWVycyEVKVMO76aw80z77oVzeWFwqEMfg3Tdw10Q5dv/aogMNXZ/eAH+QAAmQQJQS8P1fvijdMLdFApFMIBDhDOKZyX9mFdLs+6ZQZifCaxIgARIgARJoWQQ6KPFk5sT20rGtS0Tp0z1RkhLitEcXPLRgt6pwQiN44Lpn5wTBs3tfLNCC1be/Vsjow13eUxDZ4JWGUEaIZXNuzpbO7VxzdDu0tQxWHl0X3LFDCpWXEsSzB69uh6G9GkL8np7UXof6oQFCOiHe3PF8nCxQwswKFSqKcazhnfCOemtJrSB2sAotna7GT1T7gnVX4twx+6WqcMw41aZU37P/CMUeIHR99GBnp5hln6O+a7MuhJvOvLa9xNcJYnuqUFZ84N31plr7uk3VSrSqkr7qvcGM8GjNNZet3m+vLp6/lkEQnDAjR4ujRwxJkQeucr2DAT1byUPXtJN/3bdDeeNVqrDdQjlctWlVi1D3gfcZDGG5Vg+0s1QY54lDU2XMTdu1qPre12XO709D1qcH5w8SIAESiGIC7kH1UbxRbo0EookAhLO5F050CmP2vUEo8yWWIU/Zzcef7uZV9unvv8iX61fbh+E1CZAACZAACZBAMxI477g0N7HMLOWofV15yXp2SpCjlbhkt8P3drWBN5PVEIZowinHqrxgVrHMtMO4545I05cICTTtzXPr8RYl2EE0s9vBe7rWYEIOTRt4YBnR6PJRGU6xzDzH8eb/y/IpZoVqD8bzyzpvIOenKFERAta0i9s6xTJrv5MOcQmUq1VutmAMHnYQzeAhduM5bbwOMe7E2lBMeJKt+rM2vBQNC0p2CooQwHbtUivW1V7V/kQo75WjM7RX3yAv4bLWtjwnARIggVgl4PmnjFglwX2TQAQSsIZS+hLIzLasCf3NPRzv+WiB/LjpT31r1ZZNcvHQo/U5f5AACZAACZAACTQvgYT4Onch2zI6WsSpYUoYM15F1madlMcYRCzkPMstcs+ZhXxdxk6tJ2/X6GFpuuAA2kL0QeieN2vvI1l+hzauv83nqET3Iq7+RsSDR9MevbyHQ0LMMgTioBpZLNR7sAwd0Cm84uqzXVSxBmMldZ6A5jrQI4RKWJ9uiYL36c2s72SjyoO2R6/aVp2U19quymsNRQnmflysixDYc9GdrEQ/GgmQAAmQgG8CFMx8s+ETEogIAv5EM19CGTZXVF7mFMtw/d2fayiYAQSNBEiABEiABFowAat2ZEIBvS3Xm5CGdibpfIaqgJmpKkT6MoRrpqXGSUmZQyfX99UukPsIobQaEvnDkFMrGGuOPXhbJ4Q/VMlcs7FaVxndoQRKVMoMhW3eUesZiKqaCL30ZXjPyHFmmJp216u8dJNUDjW8v4vv3SHdslG9M0WHyyLfXX3fHTMGjyRAAiQQywQomMXy2+feo4qAyW929qzpbvtC+KWxHzasl435OTKkey/Zpa1n8l3nn3FNBx5JgARIgARIgASijgAqWMI6tvUtlplNd8iMV4JLtUrk7x7WaZ4He4QIBMvO8r8Gb3M09x4gAN75Qr688UWpLryANSLMEV59yUlxOtwU3l3abGJh7U3/P3PqqqNir8hT5s8MU9MOXnAv3JQtj84vFBQpQFgsQmHxgVB6zH4pcs1pmQLhlEYCJEACJOBJgIKZJxPeIYGoJLBo7Up54osP9d5QbfOB0RdISoIrNCIqN81NkQAJkAAJkAAJeBAwRQTgeeTPjGiTmuweEumvn7/nKGiQU7BTFyfw19bb8+bew+NvFOmCBljb/x2fLmOOSHOrRArxasS1W2uXHiS6DCXAVVTW6Cqcpx1Zm0/OGwtzr7vyILMbwjL/e2U7XQTgS1VhFaGs36giEFjf/EWlsnR1pS64gHY0EiABEiABdwL8l9GdB69IIGoJ/LL5b+feqmpq5Letm2Rwt12d93hCAiRAAiRAAiQQGwRQRRO2La9Ge0L5ypVWXLZT8IFZ86bpG4380UWFYv72d5VsyXXPrxbosM25B4Q/zl1YrJeKipPw0gqHQcSCsIXiCEdbCj0EM1eK8nrDGPhg/QsWl8hdLxTI31ur5Yk3i+Sey9oGMyz7kAAJkEBUE6D/bVS/Xm6OBEiABEiABEiABEiABNwJ7Na1VjCDcLJoRYX7Q8vVx9+7igMcMLD+JPeWbgGdItk/bK3K/QXhzpf58oFrzj38oSpSllbUrsxXhclQ5DHrVef1hYILJgTVFyf7/YXfl8n0VwrlqbeK7I90kYgxh6fJvv1riy18qzzO8F2gkQAJkAAJuBOgYObOg1ckQAIkQAIkQAIkQAIkENUEDhucoisoYpNPK0GlstpTLSmvdMjzH9R6UXVWFRr32z20gtmow1pr4QbeU8+/XzuPHfpsdd8ITw5b1YDm3EOyJaPFJ0vL7MvWHmF3zylw3rctXd9PSnDFaRaVeq8SgCqWSOgPcW7G64XO8ewn4PS1ylFmtYoqh/zvo2J5UnmPwYvMm/VW1TdhqEZqLxARyPq8jcl7JEACJBBNBCiYRdPb5F5IgARIgARIgARIgARIwA8BVEe8TlVQhK3ZWCWX3pejE8KbbhBYLlFVFXFElcyHxrcLeUVFhBsevV+qnvLlT0q0N1RuXZJ7JKef9V6xzJznWyQKxR7+UEn5xz+cK7c+my++RCvDxHrsrrzjkNwf9rnKCfaCEhZRoRI54T5fXi4TZuTK4h9d3nnexoYIaezTZeVSUFwrmlnFtYG7JorJXfbWklK56ak8MYzQbr3ydJs2O18eUWLadY/mOqufYtxhe6dIYp0od93MXPnouzLnHuGt9vaXpfKmGhPmTQwNZH26M3+QAAmQQBQTYA6zKH653BoJ+COQkZIqAzp3l1VbNuqm+3TfzV8XPicBEiABEiABEogCAkNVBcXxp2dqUeqndZVy8uStWgTaqZQYJOOHIbfZ/SphfN/uFpeqEO594hmZsn5TlaxTwg+8ofDJVBUbC+s8rnp0SpAN26qdVSjtUzd2D6gWueSnWmFr/wFJcuLQ1vYpfF7fPi5LrnowR3vAPfxaoeADTy3jEbdPvyRZsaZShzpu9ZKnDZU0DxmULEjE/+3KChmuCgQkqt/MZk/tIH0svK8anamFsC+UAPfBt2X6g/xvZcrrLL9OZGudEqcT9+O+MXCcObGd3Ph4nhbWpjyZp0XPLh0SdMVTI8x17RAvk86tFU9NXxwDXZ+1D89JgARIINoI0MMs2t4o90MCDSQwZfhoOf/AI2Tc0KPlssOGN7A3m5MACZAACZAACUQqgfOPS5dZSqAZtFuSIARve36NUywbogSfGRPa6QqN4dpfJ+VlNWtqtgw/IFVMFU6IZUhQj3DEF2/Nlri6yMVW9pjBukU1Zg/7qzBTzNU2o5Vm0JB9Hqhyuj15Ywfp38MlJkIsw1hXqyIAeGZCHr9f7R4uaeaZdG6Wsz9CUyGC2U17+F3TTm65MEsgIILHPzk1WixDpdEj90mRp9Rc3rzEcG/Ov7PliCEpgrY1an0b6wRI7Pvc4eny/E3Z0i7T+6+EgazPvl5ekwAJkEA0EYhT+QA8/2Vu4Tu8f+b/3FZ4/VVj3a6b+qKlraep98/5QkNg2vuvyco6Ty8z4pi9D5LThhxsLgM6nj1rulu7uRdO1NePLv5Alqxb5Xx21eHHyyG77e68NidYw7zlX7utZaDyQrv5+NNNEx5JgASaicC7Hy6WNev+kt/VZ8IV50m/3j0F9979aLFe0cjhw2TkiGHOe3jeV31wj0YCJEAC9RGAmLJ+c5VUVol0y46XrHTvIkp9YzTmGcSmtcrbDMJdD1XFE/oYwg+PnbhFDzt5bBs5/ci0eqcIZg8QqZIS4xoVcgpPL4SvdmwbL9ZQxnoXW/cQyfYhYiFMsnt2grRvUz93rBehmGjX0LkgiCJ0FOvspD7wiPNnDV2fv/H4nARIgAQiiQBDMiPpbXGtUU0AoZF2wWzeim+ce26ocObsWHcyuFtPp2CWmpgku3fq5tbEm1BmGmBtkWB///23/Pzzz9Khg/pr+aBB0rp14KEV2F91dbVs3bpVunVzZ+Nr78HOF2w/+zq2bNkinTt3tt9u1HVlZaVg3PosIyND2rYNTfn5DRs2qFAb33+3SUpKCvked+zYIatXr5bc3Fzp27ev9OnTRxITXR4CvvaO78d3332nvyf77LOPpKen+2oalvtWYQwTrFn7lxbMvE3Wt09PkY9EC2sQ12AUzbyR4j0SaFkE9h23uWUtKMyrWfpMVykp3ynpqa20eNNvF/d/ixEqasxUxYw1Rmb/LekI77rHrmvfkpbEtZAACZBAWAhEpGC2S7dOsmHT1rAAaeygWBuNBIIhAEEMucTCJZod2nuAtEltLRvzc2VI917SPi1DL7M+oQwN4F3WWLEuGB4N6bNkyRI566yzZNOmTc5urdSfTc877zx54oknJCUlxXnf2wlEttmzZ8uLL74oZ5xxhsyYMcNbM+e9YOcLtp+ZGPt7+OGH5YcffpAVK1ZIWVmZlJSUmMchOS5atEiGD68/NHf8+PHy0EMPNXo+iHM9e/asVzAbPHiw3mujJ1MDbN++XSZPniyzZs1ym7NHjx7y4IMPypgxY7xOk5OTIxdddJF8+umnUlxcW8kN3y98V5599tkGC7NeJwngJjzLYMazzHSBEGYXw+BZ9tgD/9aC2UOPzdFeaaY9jyRAAi2XwLJnu7bcxYVhZY/OL5SPvi+Xh1TIYS9VBMBqCM2cofKCweANNXDXJH0ea4z0pvmDBEiABEigWQi4/5epWZbQ+EkhnjWXUNVShbvGU+UIzUEAYY+vq3BIq2eZWQfu4RNMmKYZY1DXnoKPMV9zmeeNmcuMEe7jBx98IKeccopAfDn66KPl0EMP1R5SCxYskOeff15+++03+eqrr1TODxXbYTGIIHPnztVC2bJlyyxP6j8Ndr5g+5nVoD8EQHhHwbp06SIHHHCAeRyy4+bNtd4N8M7z5UWWlZUVkvn++ecfLVzFx6sQFh+ecp06heaPEPAOO/HEE7WHGMSuY489Vg455BD5/PPP5bPPPpPTTjtN5s2bJ6NHj3bbG0TJk046Sb7++mvZbbfd5OKLL5aKigrB9+vll1/WnmoQQtPS6g8Tchs0yAvjKQYxLFAzbU3fQPuxHQmQAAmEm0BllUMlu6/U4Yj/d+d2OVZVzBzcJ0naqFBQhBy+tLDYWRFy6vltnDnOwr0ujk8CJEACJEAChkBUCGZmM81xtAtmzSXcNcfeOWd4CMCbCx9fYlYohDNfY5sdwatsjFoDji3d/vOf/2ix7LrrrpP777/fudwbb7xRi2fffPONvPfeezJy5EjnM5x07dpV98P5nnvuKTU1NbJqlSvHG+57s2DnC7Yf1vDUU0/JZZddppdzySWXyLRp0yRUQpJ9j0YwgzAEb7Zwmplrjz32kB9//DGcU8kzzzyjxTKIc7/++qv0799fz3fLLbfI9ddfLw888IBceumlMmrUKBUW5ErqMmHCBC2WQVzD9ygzM1P3mzJlihxxxBHa+w1ejPj+hduQn0yHWjZwomD7NXAaNicBEiCBBhFA3rBnJreXu+cUyFtLSuWNL2o/1kEy01rJBFVJ89C96vcUt/bhOQmQAAmQAAmEioDrt4JQjdgE4ww9YC+3WV5ZsLBZQjQhln313U9ua+EFCYSKAEQzeHjh480gnCHBP8SvQA3hlygugL7ezCT3h6dbJIhlCEuE509qaqpA+LCa8QbCvUcffdT6SJ/DSwpiCMIbEZJ58MH+iysEO1+w/bBQhFzedNNN2hPrpZde0uJZuMQyzGdErO7dwy+WNuVc+J7A4FlmxDJ9Q/24/fbbtUgG7701a9aY2/oIkQw2ffp0p1iG61122UXuuusunGqhFh6O4TaEXRqPsYbMFWy/hszBtiRAAiQQDAEk+L9VVX98QVVyvP7sNjJCVcvcq3eSnDi0tVyjKk3Ov7OjnKKqZdJIgARIgARIoDkIRI2HGUQzCGnw8Aq3l5fxKsOcdrOLefbnvCaBhhCw5g7zJXJZ71vbW+cJJE9ZpHiUWfe1dOlSfYkwTOP5Y32OEDx4Y3nzXkI+sISEhv0TGOx8wfbDXh577DEdhnnOOefoPG3W/fk7hyD1yCOPCOY3xRD22msvLcDBq8ubNUbEAuf//ve/Aq8+hC1iLoQzGu84+3yNmevbb7+VOXPm6L2tX79e50I77LDDZOrUqbrog30u5C+DDR061P5I57hDIYOCggLN2ghqCBnduHGj/m7tv//+Hv0Qxol+KJIAoc0XU4+OAdywVsMMoLluYipk2ttjLJg9z5m9Ha9JgARIoLkI7NErUfA5+5jwh7c31x45LwmQAAmQQOQRaNhviy1kfxDEIEzZvbvs1029XIplTU08duaDEIaPr1BKq2hmpwKPMnshAWubSMhTZl2v9RyCBsxXVUuTFwuCBnJYWQUy67l1zPrOg50v2H5YC5LRw6699lp9LCoqkj/++ENXdqyvCugnn3wiENm2bdum87chsT1CEfF59dVXdQ4uiFl2s4tYeXl5ml12dra9qds18sQhh1x5ebmuHgkhCd5Z5vPaa69JcnKyWx/7XBDZUKUU3lv2nHPWjvD2mjRpklRVVWmxC7nWIAriAxENOemwX6thbe+//77e980332x9JAsXLtRiGURXa164X375Rbcz3yO3TuoC4Z277rqrFiP//PPPkAlm9mqY9nl9Xb/7kXdhzNd9X+PwPgmQAAmQAAmQAAmQAAmQgEhEhmTixUGcakkCVUtbD7/c0UkAotncCyfWG6Zp37kvsQxCGcby5ZVmH6clXhshypeYY+7v3LlTTNvG7MOMYca1j2Xu2+cLth/EKoh96enpuiLmoEGDpE2bNoLKkRB3kEMLQo3dkKgeyeshliHsFPOjHbygzjzzTJ2vDVUfvYURGhEL1R/3228/7a3VsWNHnfMN3nrI9Wa3tWvX6sILeIZcYfDUwjgIRe3Vq5e8/fbb8vjjj9u7OcM/IbYhVBLCF6pmIlx27Nixgv3bDW0hHkIAfeGFF7RHGLwFcR8ebQirvPrqq+3ddG4yCIzLly+X+fPnO58XFhbKfffdp69R9TIxMdH5rHfv3vrcMHE+sJyY8Ni///7bcrdxp0bgQjVMVLoM5IO2MFNJs3ErYG8SIAESIAESIAESIAESIIGIFczw6lqKSNVS1sGvc+wQ8Cec1UfC5CmLZKHM7A/CDAyePt7MKn4gF1hjLdj5gu33119/6SVDgDvyyCO1d9iBBx6oKzq2a9dOFi1aJPvss49AsLIawhUh9sCr6t5773UWCOjTp4/ceeeduimEJYRpWs3hcDiFRVQYRYjlwIEDdQVIiG7IE+fNK+2KK67QQhVCFMeNG+dMmg9hDwn1YXfffbeHQGeEKFQA/fjjj7VnGURHiFgvvviiFgZNVVCzTuQiGzJkiFxzzTW6aiiqU8IbDTnoxo8fr5uh8iX2YjXwAC94i40ZM0Z7g0FwhECHKplI+G8X9ZAHD5yLi4tl8eLF1uH0OcI1TbivNyHRo0MDbzQkX5lp660apg7VVAUDaCRAAiRAAiRAAiRAAiRAAoETiGjBDNuEWHX9VWOd4lm4c5iZ8XE889Rj9QdroJFAcxCA6FVfYQDrmoxQFikJ/a1r93deX/iev77BPA92vob2M4JZaWmpFnjgxQTBCOGNCK3cd999tRfW5MmT3bYBIQjFDCBCJSUluT2DcAThDIbQTqshxBHiF3KBIWzTiGoQ/O644w7dFGGNeGYMYh5ylsEuv/xyc9t5PP3007WgCW83eLlZ7ZRTTpHDDz9c5z3bsGGD/Pbbb9or7s0339ReZrhnL+aAapTY20MPPWQdSp+PGDFCHyG45eTkeDwfMGCAFtvwYOXKlVpAy8/P12GdEPu8hekef/zxepyJEye6jYnxTz31VDG50ZqiSILHhgK8gdxlzF8WICw2IwESIAESIAESIAESIIE6AhGZw8zb26No5Y0K78UCAaunmLdcZhDKIjGhf6jfXUPFqsbOH+x81n4QjGAIw5w3b55YRRl4YqEgADzO8AzCjQkJNWtHTjCIa/Akw1gQh2AmRNTuhQVxzZsQBQ8+VOpctWqV9vxCIQGEL8IgPCGvWkpKis4RBkHNbvDSwvog0PXr18/5+KqrrhJ87HbyySdrEe2SSy6Rp59+WleotOc/w3hz586VdevW6cT8CEPFfo3Z9waxDt5xEBqvvPJKOf/887X3GPKeTZkyRY477ji55557nB5xZhwwRhgnRDqEfEKUg2cccsQhVBbMsRbkXWupBq+zNWv/omjWUl8Q10UCJEACJEACJEACJNAiCUSNYNYi6XJRJNCEBCCc4YPCALBVWzZGvVAGIQkGDyxvZs3R1b59e29NGnQv2PmC7WdEH4Rdmnxa1gUjQX2HDh20J9jvv//uJpi98847AsEJOdAgeKEdhCucI/9XMHbBBRdowQyeYMYgJMGQ7B9hl/WZEerqa2OenXfeeTpMEmuFKIbQUGPIpXbXXXfpOSGkIccacrrVFxaJPkjijxBRVPI0Bm87eNShwuUNN9yghUBrwQCM+9Zbb+m8aZ9++qnMmjVLh5wedNBBMnv2bB0KirFasmD20GNz9HbpZWbeOo8kQAIkQAIkQAIkQAIk4J8ABTP/jNiCBCKKgNXjLKIWHsRijUiBcD9vBrEIBs+pUAhmwc4XbD/k14KhcqQvQ4VQhE5axSh4lCG5P0Qs5DCDcIaE+sYQmrh69WpzGfARFSFh8KjC2PAqQw4xGNaKQgH1GeYN1CCEdenSRZDQH6GoRjB77rnndJgm3ifynJ144onOsFNw8lbREsLju+++q6dGyKndwBB5zTD2G2+8ofOjWdtArESYKATYn376Sfr27au9/rA2hGaiIqjdu8/avznPTU4zk+OsOdfCuUmABEiABEiABEiABEggkghQMIukt8W1kgAJuBEwnkD23FimkalciEqG1lBH87yhx2DnC7YfhBkY9of8YtYiBmbtRigzYhbuIwwTXnf/93//JzfeeKNp6vcIsQiVLY866igZNswzSbwRJiFWQSyDGREM4iTykXnLA+ZtYsyD+ZBYH+GRdkNuNJPw3xqKCq8u2P33368rgeoLPz+QC86Ijqaqpb0LxDkYCib4MgivqBxq7KmnntKnKBgQiu+XGTcUx3c/XCym2ibG69u7VnwNxdgcgwRIgARIgARIgARIgARigUDEJ/2PhZfEPZIACXgngMqIrVq10knnUbHQbgsWLNC3kAQ/FBbsfMH2g2AGIQzi15w5tWF11n0gHBIiFhhYc4MZ7zFvAhs8orwlxMe4EBhvv/12nbzfhINa50PeLlj//v2dtxHSiJBT5A9DZU1vhqIBEPyshjVjrosvvljnV7M+w/mXX36px0Q7U6QA9+vbmzVUFG2NwcMvNTVVX9org5o2ptqldW/mmbcj8poh51nr1q11KKe3Ns15r2+fWoEMnmW6SqZK/E8jARIgARIgARIgARIgARIInAAFs8BZsSUJkEALIwDvJCRyh7hz9dVXu4ky33//vc4xhSUjyXsoLNj5gu0Hby2ISrCpU6eKEXVwnZub60yYD9EJubaM7b777vr0pZde0vm/zH2IisOHD9chlbhnPLjM85EjRwpCIZHIH95T1pxgy5YtkwceeEA3tVbDhNfVnXfeqe/Dm23RokVmOH2ECAfBEF5r1lxzgwYN0qGNENJQCbOkpMTZDyLghAkT9PWFF17o9GbDDbO3GTNmCIQ4YxDYRo0aZS7d9oa8bdZql3l5ec52OEHVT+R8gziH5P++DF5vKFyAqqTIYYYQzUmTJukcar76NNd9CGWPPfBvmXDFeUz231wvgfOSAAmQAAmQAAmQAAlENgH1iyaNBEiABCKWgPL0cagQQYf6l9ihPJEcF110kUPltXIozx997+yzzw5ob+iHMZTwVm/7YOcLtp8SrRyjR4/Wa8OelKjlOOussxwqV5e+p8I9HSqnmNuaVW4th8qppZ9jT/vvv79DCVT6WglijqysLH3uba+qKqSzn0qm71CJ/jVP9MNYSnBzmwsXWCPWhedKdHIceeSRDhWm6Bg6dKhDCWoOFa7oePDBBz36KQ85hxlXeYDpfWJvZu1du3Z1KPHMrd+HH36ox8NcGBtzqRxkem7DBM9U5VC3fiok08lMFUDQDJXw5zj00EOd+1XCnVsf68UhhxziwBoxNj4qJ5xDCW3WJiE7v/zaaQ58GmrB9mvoPGxPAiRAAiRAAiRAAiRAArFAAJ4ZNBIgARKIaALr1693qJxbTvEFgobKSeVQ3lkO5RUU0N4CFcwwWLDzBdsPe7jjjjucgg/2B/Hm3HPPdShvKa/7U6GHmokReCBaQThTXmpaVMT9Y4891mtf5W3lUEn2neIQ2kKUVJUpHapqpdc+uAmxTYU/OvtBDFOeWA6VnN9nH1W50jFixAgttJm1QhhUec0cKnTUaz+V+8zRq1cv5zwQzk4//XSH8phzKG8+fV95vXn0hfgGIU/lX3P2xZzKa80xf/58j/bWGxDvwEQVU3BgbOWtZ30c0vNgha9g+4V08RyMBEiABEiABEiABEiABKKEQBz2oX5hoJEACZBAxBNAeB/yWCkPIq/VEkO9wWDnC7Yf1r9hwwYd2oi8Xgg19GcIP0TSe4SFWsM2/fXDc4Q8KpFPlFgkvpLlexsHc2KdCJ9EyGYghqqba9eu1TnBkLcN4ZH+zFSpbMg8GBP/2UOoKNaJCpiocunP0KepEvs/9NgcQXVLhFMGWt0S7dEPhlBMGgmQAAmQAAmQAAmQAAmQQOMIUDBrHD/2JgESIAESIIGQErBXuGzI4Ezw3xBabEsCJEACJEACJEACJEACvgkk+H7EJyRAAiRAAiRAAk1NYGRdRct3P1oc8NTwROuLipishhkwMzYkARIgARIgARIgARIggfoI0MOsPjp8RgIkQAIkQAIkQAIkQAIkQAIkQAIkQAIkEHME/CeJiTkk3DAJkAAJkAAJkAAJkAAJkAAJkAAJkAAJkEAsE6BgFstvn3snARIgARIgARIgARIgARIgARIgARIgARLwIEDBzAMJb5AACZAACZAACZAACZAACZAACZAACZAACcQyAQpmsfz2uXcSIAESIAESIAESIAESIAESIAESIAESIAEPAhTMPJDwBgmQAAmQAAmQAAmQAAmQAAmQAAmQAAmQQCwToGAWy2+feycBEiABEiABEiABEiABEiABEiABEiABEvAgQMHMAwlvkAAJkAAJkAAJkAAJkAAJkAAJkAAJkAAJxDIBCmax/Pa5dxIgARIgARIgARIgARIgARIgARIgARIgAQ8CFMw8kPAGCZAACZAACZAACZAACZAACZAACZAACZBALBOgYBbLb597JwESIAESIAESIAESIAESIAESIAESIAES8CBAwcwDCW+QAAmQAAmQAAmQAAmQAAmQAAmQAAmQAAnEMgEKZrH89rl3EiABEiABEiABEiABEiABEiABEiABEiABDwIUzDyQ8AYJkAAJkAAJkAAJkAAJkAAJkAAJkAAJkEAsE6BgFstvn3snARIgARIgARIgARIgARIgARIgARIgARLwIEDBzAMJb5AACZAACZAACZAACZAACZAACZAACZAACcQyAQpmsfz2uXcSIAESIAESIAESIAESIAESIAESIAESIAEPAhTMPJDwBgmQAAmQAAmQAAmQAAmQAAmQAAmQAAmQQCwToGAWy2+feycBEiABEiABEiABEiABEiABEiABEiABEvAgQMHMAwlvkAAJkAAJkAAJkAAJkAAJkAAJkAAJkAAJxDIBCmax/Pa5dxIgARIgARIgARIgARIgARIgARIgARIgAQ8CFMw8kPAGCZAACZAACZAACZAACZAACZAACZAACZBALBOgYBbLb597JwESIAESIAESIAESIAESIAESIAESIAES8CBAwcwDCW+QAAmQAAmQAAmQAAmQAAmQAAmQAAmQAAnEMgEKZrH89rl3EiABEiABEiABEiABEiABEiABEiABEiABDwIUzDyQ8AYJkAAJkAAJkAAJkAAJkAAJkAAJkAAJkEAsE6BgFstvn3snARIgARIgARIgARIgARIgARIgARIgARLwIEDBzAMJb5AACZAACZAACZAACZAACZAACZAACZAACcQyAQpmsfz2uXcSIAESIAESIAESIAESIAESIAESIAESIAEPAhTMPJDwBgmQAAmQAAmQAAmQAAmQAAmQAAmQAAmQQCwToGAWy2+feycBEiABEiABEiABEiABEiABEiABEiABEvAgQMHMAwlvkAAJkAAJkAAJkAAJkAAJkAAJkAAJkAAJxDIBCmax/Pa5dxIgARIgARIgARIgARIgARIgARIgARIgAQ8CFMw8kPAGCZAACZAACZAACZAACZAACZAACZAACZBALBOgYBbLb597JwESIAESIAESIAESIAESIAESIAESIAES8CCQ4HGHN0iABEiABEiABAIm8NvfVbL890pn+0G9E2WPXknOa56QAAmQAAmQAAmQAAmQAAlEHgEKZpH3zrhiEiABEiCBFkTg+1UVMv3VQueKLj0lg4KZkwZPSIAESIAESIAESIAESCAyCTAkMzLfG1dNAiRAAiRAAiRAAiRAAiRAAiRAAiRAAiQQJgIUzMIElsOSAAk0P4HqGke9i9i5U2Rn/U189q+sCrKjbUR/a7Q1d14G2885gDqpqnaIoxHbCBUD65oCOQ9k7821tkDWb22D718g+7H2sZ83tr99PF6TAAmQAAmQAAmQAAmQAAmIxDmUEQQJkAAJRCKBt5aUymuflTiXPvX8LGmb0Uoem18ov/xRJRu2Vkv3jgkyuE+SXD4qQzq1i9cC2QsfFMvXv1TIyj8qpVqJZr26JMiYI1rLmMPTnGPZTyCuffR9mcxfVCprNlRJYelOyUpvJb27JcgBA5Ll/OPSJSkxzt5Nlv1WKQ+9WuC8f96IdDlscIo88UaRLP2tQtZurJZkle6qT7dEuXJ0huzbP9nZ1n6y6q8qwdp/XV8pm3NqpFt2guzTL0kmnpGp73+7skJ3wTqendzB3l1fI9fWK5+W6JxbOYU1kpIUp/c/cNckufikdMnOivfaDzfLKx0y9+MSWag4bNxeLSVlDs0A6xhxQIqcdkSa2osnA58D1vPggjt3SE2dmtm3e6JMPq+NPPByoXyxoly259fIHf9qq+ZMdY4Q7PsBT+zHGMIpD90rxVzq4x3P5wvylBn7z8VtNbNn3imSRcvLJadwp2zNrTGPNcPsrNq/R82a2kES4t2ZbMur0d/bj5eWy+Ydtf16do6XfrskyoUjM6R3V89sCfbv+qRz20ix4v/cu0Xy49oq6dEpXl6b1tG5Bp6QAAmQAAmQAAmQAAmQAAk0joDn/5U3bjz2JgESIIEmIwDhZOWfLiHjbSWgffhdmeQXK3Wrzv5Wohk+vypx7PHr28u9/yuQT38oN4/1EWLIXS8UaPEKQoTd8GeF22flyztflbo9wjwQxPB59+syue2iLC3OWRsVKWHNusYvf65QIkexrNnoWne10mt+XFspl/03R+66tK0cu79LCDJjffBtmfxndr5UKNHK2MZt1YIPcmi1UvrMpu214os34Q593lR8/qP2YbWyCodeH9aIOSC+jRrW2tpEn/+1pVr+dV+O7ChwCUN4AAb5xZWa75wPS+TJG9pLz86N/0/Lyj8rlWBWu4yScodMeSJPPlfilLFqyzIa8362KOHR+n6s3x0z159q79Y2YAb7R4ld1vumPb6X+MDsf5L65tcKmaz2gu+F1dZtqhZ8PllWLlePyZRzjnUXb+3f9ffVu1qwuNT5fagIkcejdU08JwESIAESIAESIAESIIFYJsCQzFh++9w7CUQZAXhOeRM8sM31m6vl5MnbPMQyK4LXPy/R4pr1Hs4ffq3QQyyzt4EoN2FGroegZG8H0c0qllmfw6Fq5vwip1BknkHQ+/fTeU5xxNw3x3+U6GPEMnPPfoTYBE+p+qy4bKdMU23gfWc1CEQTbXuDKLebzRMKog4YlCqBK5QGsc4qlmHseMt/vUL5fkK5bvtYeI/XPJTjIZZZ2yGU9IGXCwTCan32svL0s4qnCa3cvdjq68tnJEACJEACJEACJEACJEAC/gk03g3A/xxsQQIkQAJNRuCsY9Lk6H1TtYfPvM9LlfeXS3iAwJCe2kouU+GZe/RKlB+UZ9hLHxdLTkGttw/C+uDhc+EJ6c71IgRzzofFzmuEMF5zeqbsrcI8NykPo0dV+Oef/1Tr54UlO5UXWIHMGN/O2d7bCUL+EAKKsRDS9/InrrBSeIxBWBm4a6Kz61NvFbl5KrXLbCXj1Rp265qovOKq5Mk3i2SLJSTQ2bHu5HcVQjrlyTzB/ozBg2m4CmmEuPWKmn+RCnU0Bk+2V/+TLRmta1Wp5Wsq5S8lCBrD+u+9vK1eP+a94oEcgagFg3D4nfJ4O2KIe1ij6dvYY6e28Xre1im1AlE43k+ga5ygvPHwXXpdfc+eebvI2W2sCrsdO7zWQywxwSVk3fZcvpsYihDMM49K06HC735d6x1p3hHCeA/ao6ObMOicwHIC4bJ7drx0aOM7lNbSnKckQAIkQAIkQAIkQAIkQAIBEqBgFiAoNiMBEmj5BBBKeMPZrpBKCBKn/Xub28JvvqCNHLNfbcjjXr2TpEh5Vc1+zyWIIczOai8rQc1q0y5pK0ftUysG9e+RKPuqHGLwXIN3FuzLn8q1kNatg3cBA3M+eHU7pxCC/GcQpCCSGdu8o9opmEGUs3pXwZHoiRs6OPNcQVjbb/dkOWnSVtPd44jQPWsS/LOOTpPrznJx2l+t4dL7dsgPKr8ZDDm2PlNhqycfWhuaiZxtVjtoj2QtWuFeZ5UX7pKTMnQ4p2mDXGehtoP3TJb/jGsrEAutFur3Yx3b3zkExQyFKCPVJYqhT5oS8+y54H5ReecgXBqDcIv8ZhBNYdhfUalDlqjvDwwekUtXV8iBA73ntIMQh/DdYYOTPXKk6QH4gwRIgARIgARIgARIgARIoFEE3H/zaNRQ7EwCJEACzUtgF5Xg32pI5m8XWA6wCRD79HMXJLYqscgYxKp1SrgwBu8mu+dUG5X4/8RD3HOO/aTykfmyXTrGO8Uy08YuilgTyP+x2SWyoD3EKntS+K42cS7OXb+RxRbvMYxxphLMrAYR7pxjXV51ePbjOtce7DnJkGj+46VlYnJ5HX9QqjysvOrM57gD3XlY5wrmHEnz77+ynce7DMf7CWZ9gfT5zJJ/De3xnTFimelv54aiFb4MRSYg3NoLCvhqz/skQAIkQAIkQAIkQAIkQAINI+D+22XD+rI1CZAACbR4Aqn2qo0256fWye7qkqnMiI0hIbzVeqmcXd5SRfVVFS6t9rMSmyAiBWr2NdQVh9TdIQpZbfee7nNZn3k7R4jftroE9HiepDyTenTy/Ke/T3f3e9iDMS3SqWqgSEoPy1VVISc9nqfFmkG9E+VA5aF2uArBhEdfOAwFDeziEuZpqvcTij3ZPRdR7RMVS61WXldMwNzbsM393Zv7OJqQVOs9npMACZAACZAACZAACZAACYSOgPtvSKEblyORAAmQQMQTsBcQaG8LBzQbzMpwd9a19zPtgjlus+Uma9/AXFWoxmjyYmH+tj720LaePUCsmn5Ne7nlmTxZocJHjVXXOLToA+EHedbOVl5qV56aIcl2kdJ0CPHRzrk53k+gW9pRlyfPtK8VQn0LYmhnKm2aPjySAAmQAAmQAAmQAAmQAAk0HQEKZk3HmjORAAlEGIFObd2FsFKbB5DZToFK9m+1bBW6GSqzh5SaMMhAx89Ma6UFLFNRscxHBcuCYnfXu45Z7ntATrZnJ3fQ+dQWfl8mX6kqjoVKjDMGr7gXPyqW71ZWyNzbssUeFmrahfLYEt5PoPvJSnf3ZMxSobzJKmF/fZah3h2NBEiABEiABEiABEiABEigeQhQMGse7pyVBEigmQg43HWhelfRo7P7P5Gbtnv3CNpsu7+rrV+9k/h52C3bfQ2oQtkQg3DVQ+V2W6OqacIgcsHrzFTANGNtUoUGrGbPW2aeIYcbPvBaW/lnpS4O8NLHJc6iApjn1z8qZc/dkkyXsB3D8X6s3nihXHhvFbaLCqzGTjqktaDKJo0ESIAESIAESIAESIAESKBlEuCfr1vme+GqSIAEWgCBTFUF0erhhSqH1mqWWCI8q977ptRttbupXGehsl1s+caQbN9U5DRz+KtKidxrVnv7yzLrpT5/50vfe5j6ZJ6MfzhXf/79dJ7eM/KKQRS7+rRMufhE94IBi2xFBjwmC9GNULwfeyjqL+vdiyxgqaU+vPJ8bcN481mf91Y54Kz2+uclklfk8tAzz9C3qfiZOXkkARIgARIgARIgARIgARLwJEDBzJMJ75AACZCAk8B5I9zFICS7X/lnlcBTDcnvb3oqTzZbEvMPUiLSXr1D512FipiD+7jGg3hzzUO5smFbtV7DH/9U62vngtWJ3Yvu3GPT3EIkH1tQKAirrKp2CMJMn3+/WN7/xiWipaXGyajDXJU0UTl0yU/l+oN2H33naot57WGiCDdsKmvs+7ELkp8tV+Gmv1RIjdKy4FF4x/P5HiKpfW/20Mmvf63QfZHjzXisHbZXiluxBTCb9Hiu9vzD+8J7Xbq6Qsbds0Oum5kr733tztg+J69JgARIgARIgARIgARIgATCS8D9T97hnYujkwAJNAGBlVs2yrzlX8uAzt31bKcNObgJZo3eKc5RYtMbX5TKX1tqQxYhVJ03bbtbXjCze1TQnDS2jZs4ZZ415nj5qAy57P4c5xA/rq2UUVO2SaKqeAnRy5/BEwwhgG8tqfUig1gz+Yk83b8Goo5tiEtPzpD2bVyi1/8dn66S/ec6p4FICJEN4uBvyusOoZnGEuLj5OA9U8xl2I+NfT9D+iVJksolVllVCwEi6NXTc3QFUAhegZjdoxBeiCdP3qq7vnJ7tvTpnqi/L7dckCWX3LfDKWgu+61Szrq19ruE+a1C57TZ+bJv/yTp1M49l1wg62EbEiABEiABEiABEiABEiCBxhNw/UbU+LE4AgmQQDMSgFA27f3X9EeLZiu+kXnqc/as6fK6EtBotQQCk0BctCAA3Xd5W+nVxf3vC/awu9TkOLlZCSIDeia6OofobP8ByXLRSHdPNwxtxLLWam5/NvHMTBk22F3IQn+rWIZ8Z2cdnSZnHeM+F/rdqxhgj8YQnjpvUYn8sr7S6UWF/rdemCV2Acn0Ccexse+nkyrQAA88uxmxLEmJkj1sYbH2tnv0ShJ8/BnEuX+fnyWtU1wc0QffJatYhuf3XtGWYpk/oHxOAiRAAiRAAiRAAiRAAmEk4P4bYBgnCufQGzbV/iX/q+9+ck5j7jlvhOhkl26d9EjmOPSAvUI0MochgeAIGI8yHH0ZhDNj9DgzJAI/wkPopVuz5dEFRbJQhSMiRNEYwhf3ViGTN57TRrqr5PrhsitHZwoSxz/+RpFsVF5uxuDldetFWXLav7eZW5Lg5U8hyPc1/Zp22ltuzofFguIBJlwQohBybCEf2YEDk53jWE+O2S9ViYaJgnBOhKRuszBAPrMjVSGAC07IkIG7hl4wtK7D23lj388Vim27zHh5XO3NVEKF+NdH8b5NsX3/2zL5n2Lmy+BZePdlbeVOFb75raoSagz3W+GHxUYNay0HD0qW6a8UynerKqSg2JXHDJVI91Dv85KTMppUdLQsj6ckQAIkQAIkQAIkQAIkQAJ1BOIcyiKZBkQyq1DWHHuBaEbhrDnIx/acgQhl3giN2fsgoWjmjUzg91Bp8k+VOyw7K166tG/6kLl8JbIgNBTVOFHtEmsZYxHMUOFy/p0d690QQgDXb66WRBWOiHHivYhs9Q2A0EWIbmDQqV0rHcJob3+5CiOFKBSoDd0zWR6Z2D7Q5j7bBft+4G23eXu15Cm+vbsmeniC+ZzQ8gBcNqox0lNbKQE1XiBG1memPbzYmjL3W31r4jMSIAESIAESIAESIAESIAGRiBbMXlmwUMLlSdbQLwdFs4YSY/vGEECIpdVrzD4WRDGYvzaRLJztO26zfdtRe73s2a469BHVLa87K1Pn3LJu9j+z8uXNuvxkuD/igFS569K2EkuMrDxi9XyQKjYxe2qHWN0+900CJEACJEACJEACJEACISUQsYJZS/Ass78JimZ2IrwONQF/QtlAleh/jEryj6Mxf33ocWZItdxjSZlDzr5tm2xS1ThRNfNoFR7Zv0eiFClPN1SsRFVHqz09qYPso/JlNbc1l4dZc++b85MACZAACZAACZAACZAACUQ+gYgUzOBVBu8yu5156rH6lskvZn8eqmvMj4+3UFCsIdzzh2ofHCdyCPgLv/QmlFl3Z5L+R7PHmXW/0XaOKp2omujPkEtsytgsGX14a39Nm+Q5BL0qV7o1v3MmqhRwCDGlkQAJkAAJkAAJkAAJkAAJkEBzEwhfhuow7sxbGGZTClUQxMzHm3AXxq1z6Bgj0FihzOCyhl76Es2s963tzRg8Nh+BUYe11kLSHUo0Q34ub4YKlveoxPOH7uVeCdNb26a6R/GrqUhzHhIgARIgARIgARIgARIggVATiEgPM3s4ZnOGQtq93SCkGU+3UL8sjhc7BPwJZSDRmFBKhmlG5ncJCeKXrq7QVSpRqTJdVegc0DNRBqjKlHv0SpK2GfTOisw3y1WTAAmQAAmQAAmQAAmQAAm0NAJR4WHGEMiW9rXiehpDoCnELHiQ4eNrLnib4dMYUa4xDNjXO4F2ma1kuErojw+NBEiABEiABEiABEiABEiABEggfAQiUjCz42hOwaw557Zz4HXkE5j2/msC7zJv5i9Pmbc+/u4FIpytUuu5+fjT/Q3F5yRAAiRAAiRAAiQQNQS25tbICTds1fuZMraNnHZkWtTsjRshARIgARIIjEBECmbecpgFtt3wt2rJawv/7jlDYwjA28ubWBYOocy+TmvOMmsuM7TDmrA2axt7f16TAAmQAAmQAAmQAAmQAAmQAAmQQDQRYMKbaHqb3EtEE4Anlzcb0Lm7rPxng7dHIb03sMsu4msNvu6HdAEcjARIgARIgARIgARihACK+Lz9Zan+bNpR0+J23dLX1+KAcUEkQAJRSSAiPcyi8k1wUzFPwJt3GaBYPb7C4eWFeef58G4zL8XX2sxzHkmABEiABEiABEiABAIngJDP257L1x3uurStdOvQsvKTtvT1BU6aLUmABEggeAIUzIJnx54k0KQEwpGI31fS/ybdGCcjARIgARIgARIgARIgARIgARIggRZGgCGZLeyFcDkkYAigQqU3g3B29qzpOq+Yt+eB3INQhjGs3mvWfsibRiMBEiABEiABEmhZBKprHH4XFEgbX4Og707/U/jq7rxfVR3cIDU7RRzBdXXOHao9OAdswAnWHwp+/qYMli/GrQzy3fhbE5+TAAmQQDQSoIdZNL5V7ikqCFjDL70JW8F4nPkLv7QWGICgRiMBEiABEiABEmhaAvnFO+Xq6Tl60olntpEeneLl8QVF8vP6Svnzn2pplxkvg/skySmHtZaheybrdhu3Vctrn5XK8jWV8tvfVZKcJLJr50S54IR0OWqflHo3gPxZcxcWy+fLy2VrXo0kJ8ZJv10SZdBuSTLupHTJbO397+vfrqyQmfMK9diPX99eCksc8vTbap3r1Dq3VEtWeivZvWeiTDyjjfTu5vtXDghML3xQLF/8WC6r/qqShHiR3XskyfADUuS0I9Lk9ln5snZjlRx3YKqcOzzd616C3cPvG6rk7jkFkpHWSm67MEux9b5Xr5PW3cQ7efXTEln5Z5X8rta5U4lmXTvEy8F7JMvFJ2VI2wz3MSfOyJUdBTVSUelSBh+dXyj/+7BYjzhjQnuPPnjwi3r/s98vlh9+r5QC9R3p0j5ev6czj06TAwfWfg/qluR2gLg27/NSeUvlS9uwtVrK1LzZWfHSV73jcSPT9XfJ2iHY9VnH4DkJkAAJRAsB3//1ipYdch8kEMEE/Ilm2JpVTLO2t267IUKZtR/PSYAESIAESIAEmpYAPKQgvsA++KZMPlteJrmFSoWps+35NfLx0jJZtKJcZkxoJ+mprWT8wzlubarLRH79o1JueDRXLj0lQ/51cobp7nb8SwkoF961Qwsw5kFZhUN+XFupPwvVPHde0laG9FMKnM2KVNJ6s87FKyrkgZcLBGKfsbyinfL1LxWybPV2efLG9rJXb88xSssdMuXJPFnyU7npJhXqbNlvqp/6LFfi0E9KgNusRL29+3r2R6fG7AFJ9zE+bLHiOWpYa30e6I8PvyuTO2bnS6liZrW/lGCIzztflclzUztI766uX7nWKFHtnxz3JP+bttcIPjBv3mN419fPzHXzXsMY+EBovHBkhlxxquc7xjsad/cOWbe52ro82aaEUXy+VNzPPy5dxp+e6XwezPqcnXlCAiRAAlFGwPWvd5RtjNshgWgiACEMH185x3yJZv6EMjBC6KcvoS2aGHIvJEACJEACJBBpBOYtKtHeWRC89umfLA7ljrXk5wp5+q0iKVeeQtcpEQUhjEnKK2zK2Day/4BaTyN4oz3yepH2ZJr1brGMHNpaJZVXrlsWgwh39YM5WiyDZ9V1Z7XRwli10m2Wra6Q6a8UChK/X/5Ajrw2LVt26ej714abn8nTz8eOSJdDBiVr8Qdi0ifLynQI4MOvFcqzkztYZq89nf5qgVMs27d/kvYgg7i0WnnJLfy+XD74Vil/9Vhj93DY4BR5X4mSaUp03G9374Kcr+m/UmLgVCX2wQ5Q3I3H399KhMTaX/+8RIrLdsqUJ3Ll5ds6Sqs6RzN444ExBDW8P9jEMzLlkL1qPQHbt3F/T7/+UaXngSfeoaoN+QCOtgAAQABJREFUvgs9O8fLhm018uSbRVowe/adIhmgvPmOtHkToqgAxLK4OJGLlKiGd9NZeaZ99kO5vLG4VCCOwbtv4K6Jcuz+tUUHGro+vQH+IAESIIEoJeD7v3xRumFuiwQimUAgwhnEM5P/zCqk2fdNocxOhNckQAIkQAIk0LIIdFDiycyJ7aVjW5eI0qd7oiQlxGmPLnhowW5V4YRG8MB1z84Jgmf3vligBatvf62Q0Ye7vKcgssErDaGMEMvm3Jwtndu55uh2aGsZrDy6LrhjhxQqLyWIZw9e3Q5DezWE+D09qb0O9UMDhHRCvLnj+ThZoISZFSpUFONYwzvhHfXWklpB7GAVWjpdjZ+o9gXrrsS5Y/ZLVeGYcapNqb5n/xGKPUDo+ujBzk4xyz5HfddmXQg3nXlte4mvE8T2VKGs+MC760219nWbqpVoVSV91XuDGeHRmmsuW73fXl08fy2DIDhhRo4WR48YkiIPXOV6BwN6tpKHrmkn/7pvh/LGq1Rhu4VyuGrTqhah7gPvMxjCcq0eaGepMM4Th6bKmJu2a1H1va/LnN+fhqxPD84fJEACJBDFBNyD6qN4o9waCUQTAQhncy+c6BTG7HuDUOZLLEOespuPP93Nq+zT33+RL9evtg/DaxIgARIgARIggWYkcN5xaW5imVnKUfu68pL17JQgRytxyW6H7+1qA28mqyEM0YRTjlV5waximWmHcc8dkaYvERJo2pvn1uMtSrCDaGa3g/d0rcGEHJo28MAyotHlozKcYpl5juPN/5flU8wK1R6M55d13kDOT1GiIgSsaRe3dYpl1n4nHeISKFer3GzBGDzsIJrBQ+zGc9p4HWLcibWhmPAkW/VnbXgpGhaU7BQUIYDt2qVWrKu9qv2JUN4rR2dor75BXsJlrW15TgIkQAKxSsDzTxmxSoL7JoEIJGANpfQlkJltWRP6m3s43vPRAvlx05/61qotm+TioUfrc/4gARIgARIgARJoXgIJ8XXuQrZldLSIU8OUMGa8iqzNOimPMYhYyHmWW+SeMwv5uoydWk/ertHD0nTBAbSF6IPQPW/W3key/A5tXH+bz1GJ7kVc/Y2IB4+mPXp5D4eEmGUIxEE1slio92AZOqBTeMXVZ7uoYg3GSuo8Ac11oEcIlbA+3RIF79ObWd/JRpUHbY9eta06Ka+1XZXXGooSzP24WBchsOeiO1mJfjQSIAESIAHfBCiY+WbDJyQQEQT8iWa+hDJsrqi8zCmW4fq7P9dQMAMIGgmQAAmQAAm0YAJW7ciEAnpbrjchDe1M0vkMVQEzU1WI9GUI10xLjZOSModOru+rXSD3EUJpNSTyhyGnVjDWHHvwtk4If6iSuWZjta4yukMJlKiUGQrbvKPWMxBVNRF66cvwnpHjzDA17a5XeekmqRxqeH8X37tDumWjemeKDpdFvrv6vjtmDB5JgARIIJYJUDCL5bfPvUcVAZPf7OxZ0932hfBLYz9sWC8b83NkSPdesktbz+S7zj/jmg48kgAJkAAJkAAJRB0BVLCEdWzrWywzm+6QGa8El2qVyN89rNM8D/YIEQiWneV/Dd7maO49QAC884V8eeOLUl14AWtEmCO8+pKT4nS4Kby7tNnEwtqb/n/m1FVHxV6Rp8yfGaamHbzgXrgpWx6dXygoUoCwWITC4gOh9Jj9UuSa0zIFwimNBEiABEjAkwAFM08mvEMCUUlg0dqV8sQXH+q9odrmA6MvkJQEV2hEVG6amyIBEiABEiABEvAgYIoIwPPInxnRJjXZPSTSXz9/z1HQIKdgpy5O4K+tt+fNvYfH3yjSBQ2wtv87Pl3GHJHmVokU4tWIa7fWLj1IdBlKgKuorNFVOE87sjafnDcW5l535UFmN4Rl/vfKdroIwJeqwipCWb9RRSCwvvmLSmXp6kpdcAHtaCRAAiRAAu4E+C+jOw9ekUDUEvhl89/OvVXV1MhvWzfJ4G67Ou/xhARIgARIgARIIDYIoIombFtejfaE8pUrrbhsp+ADs+ZN0zca+aOLCsX87e8q2ZLrnl8t0GGbcw8If5y7sFgvFRUn4aUVDoOIBWELxRGOthR6CGauFOX1hjHwwfoXLC6Ru14okL+3VssTbxbJPZe1DWZY9iEBEiCBqCZA/9uofr3cHAmQAAmQAAmQAAmQAAm4E9ita61gBuFk0YoK94eWq4+/dxUHOGBg/UnuLd0COkWyf9halfsLwp0v8+UD15x7+ENVpCytqF2ZrwqTochj1qvO6wsFF0wIqi9O9vsLvy+T6a8UylNvFdkf6SIRYw5Pk3371xZb+FZ5nOG7QCMBEiABEnAnQMHMnQevSIAESIAESIAESIAESCCqCRw2OEVXUMQmn1aCSmW1p1pSXumQ5z+o9aLqrCo07rd7aAWzUYe11sINvKeef792Hjv02eq+EZ4ctqoBzbmHZEtGi0+WltmXrT3C7p5T4LxvW7q+n5TgitMsKvVeJQBVLJHQH+LcjNcLnePZT8Dpa5WjzGoVVQ7530fF8qTyHoMXmTfrrapvwlCN1F4gIpD1eRuT90iABEggmghQMIumt8m9kAAJkAAJkAAJkAAJkIAfAqiOeJ2qoAhbs7FKLr0vRyeEN90gsFyiqiriiCqZD41vF/KKigg3PHq/VD3ly5+UaG+o3Lok90hOP+u9Ypk5z7dIFIo9/KGS8o9/OFdufTZffIlWhon12F15xyG5P+xzlRPsBSUsokIlcsJ9vrxcJszIlcU/urzzvI0NEdLYp8vKpaC4VjSzimsDd00Uk7vsrSWlctNTeWIYod165ek2bXa+PKLEtOsezXVWP8W4w/ZOkcQ6Ue66mbny0Xdlzj3CW+3tL0vlTTUmzJsYGsj6dGf+IAESIIEoJsAcZlH8crk1EvBHICMlVQZ07i6rtmzUTffpvpu/LnxOAiRAAiRAAiQQBQSGqgqK40/P1KLUT+sq5eTJW7UItFMpMUjGD0Nus/tVwvi+3S0uVSHc+8QzMmX9pipZp4QfeEPhk6kqNhbWeVz16JQgG7ZVO6tQ2qdu7B5QLXLJT7XC1v4DkuTEoa3tU/i8vn1cllz1YI72gHv4tULBB55axiNun35JsmJNpQ513OolTxsqaR4yKFmQiP/blRUyXBUISFS/mc2e2kH6WHhfNTpTC2FfKAHug2/L9Af538qU11l+ncjWOiVOJ+7HfWPgOHNiO7nx8TwtrE15Mk+Lnl06JOiKp0aY69ohXiadWyuemr44Bro+ax+ekwAJkEC0EaCHWbS9Ue6HBBpIYMrw0XL+gUfIuKFHy2WHDW9gbzYnARIgARIgARKIVALnH5cus5RAM2i3JEEI3vb8GqdYNkQJPjMmtNMVGsO1v07Ky2rW1GwZfkCqmCqcEMuQoB7hiC/emi1xdZGLrewxg3WLaswe9ldhppirbUYrzaAh+zxQ5XR78sYO0r+HS0yEWIaxrlZFAPDMhDx+v9o9XNLMM+ncLGd/hKZCBLOb9vC7pp3ccmGWQEAEj39yarRYhkqjR+6TIk+pubx5ieHenH9nyxFDUgRta9T6NtYJkNj3ucPT5fmbsqVdpvdfCQNZn329vCYBEiCBaCIQp/IBeP7L3MJ3eP/M/7mt8PqrxrpdN/VFS1tPU++f84WGwLT3X5OVdZ5eZsQxex8kpw052FwGdDx71nS3dnMvnKivH138gSxZt8r57KrDj5dDdtvdeW1OsIZ5y792W8tA5YV28/GnmyY8kkDEECgqKlJ/7d8paWlpkpAQuU7V7364WNas+0t+V58JV5wn/Xr3FNx796PF+l2MHD5MRo4Y5ryH533VB/doJEACJBAIAYgp6zdXSWWVSLfseMlK9y6iBDJWMG0gNq1V3mYQ7nqoKp7QxxB+eOzELXq4yWPbyOlHptU7dDB7gEiVlBjXqJBTeHohfLVj23ixhjLWu9i6h0i2DxELYZLdsxOkfZv6uWO9CMVEu4bOBUEUoaNYZyf1gUecP2vo+vyNx+ckQAIkEEkEIve3h0iizLWSQAAEEBppF8zmrfjG2bOhwpmzY93J4G49nYJZamKS7N6pm1sTb0KZaYC1/T97ZwFmVfW18TVMMMHQHdIiIKKIKKCIAYotYLeYqH9FTOzPDsIAE0FRDARbShQRBDGwQQlFQEF6GKZn7rffPex79zlza4qZe++7nudwaufvzCPOy4pIsL///lt+/vlnadhQ/Wt5t26Smhp+aEV1219eXp5s3Fj8S0KgtaWnp0u9elVfBn7z5s2yfPly2blzp3To0EEfiYm+f3EPtH77eW5urmzatEk/atGihcTH+8JK7Ha43rJli6xYsUK2bdsmHTt2DDrfwQcfLCtXrpTp06fL4MGD3UOFdV+a+cIasJSNbGEMXVeuWqsFM3/DdOzQWmSOaGEN4hqMopk/UnxGAtWTwMHD/qmeC6ukVX37UnPZnVMktVJqaPFm31bOvzsQKmrMVMWMNUZm/9XpDO+6CSMbVKclcS0kQAIkUCkEIlIwa9WiiazbUPyLVaVQKcegWBuNBMpCAIIYcolVlmh2ePvOUiclVdbv2CYHtWwrDdLS9TKDCWVoAO+y8op1ZeFRmj4LFy6Us88+WzZs2ODtVkP9s+kFF1wgzz33nCQnJ3ufR8rFF198IQMHBg+Rvf7662XcuHFVtiWIVsOHD5fPP//csYbmzZvLww8/LBdeeKHjebCba665RiZOnKibrF+/XiCauQ3C3G233SaTJk1S+Wx8ztH77LOPjBkzRoYMGeLuUq77vT1foMXCswxmPMtMOwhhbjEMnmUTRt+pBbNxE6ZorzTTnmcSIIHqT+C7ic2r/yIrcIXjZ2TInG9yZJwKOWyrigDYhtDMp1ReMBi8obq0SdLXscZIb5p/kAAJkAAJVAkB599MVbKE8k8K8ayqhKrqKtyVnypHqAoCCHt8R4VD2p5lZh14hqMsYZpmjG7NWwsOY4HmMu/LM5cZo7LPs2bNklNPPVXgkXXMMcfI4Ycfrj2z3n33XXnllVfk999/l6+++krl/FCxHRFk//xT7GUAL7lAXmR169atsh3Bk++QQw4ReIbBm++4444TeLx99tlnArHvoosu0t/ksssuC7nGefPmecWyQI0LCgrkpJNOkqVLlyovhBoyYMAA6du3r8yfP18LdkOHDi2XF5l73r09n3t++954ikEMC9dMW9M33H5sRwIkQAJ7i0Bevkclu8/T4YgXPbhZBqiKmd07JEkdFQqKkMOpczO9FSFHXVjHm+Nsb62P85AACZAACZBAROYwe+vduQ4Ps7NOH1BlgtlXS38SHMb69DpAcNBIoLwEyipmBcphZq8n1NjwKhuiPN5wru7Wp08fWbx4sYwcOVKeeOIJ73LXrFmjxbN///1XPvroIznxxBO97yLhAh5ao0aNkv/973/y5JNPVqslIycYQh1/+OEHufjii+XFF1905Ae76aabZPTo0Tpv2H///Rc0NDYrK0sLbn/++afXa8yfhxk8Ba+++modqvnrr79Kp06dvEzMfAjFRVgnBDVj++67b5lCMss6n5m3Is8IyUSopRHBwh27rP3CHZ/tSIAESKC8BPIKPPLwlJ3ywcIsv0PVTqshN6hKmqeqAgA0EiABEiABEtjbBHy/Veztmcsxn1uQcgto5Ri6VF3hXWaLZaXqzMYkEIIAwiDh4YXDn8HbDOIYxK9wDeGXKC7gz4MNY5jk/vB0iwSxDIINxLKUlBS5++67HRjatWsnxrtp/PjxjneRcGM8zFq2rH6iJXKCgX1SUpIOCXUn07///vsFOcx2796tc8oF443vBnETHmnG/HkD4jvD4Flmi2V4dt9992mRDLnGsLaKsL09X7A1I+yytGIZxitrv2Br4TsSIAESqEgCSPB/j6r++Kqq5HjTOXXkOFUt84D2SXJSn1T5n6o0OePBxhTLKhI4xyIBEiABEigVgagIycSOIZpBSENoZmWHZ5owTMzpNreY537PexIoDQE7d1ggkct+bre35wknT1mkeJTZ+/r222/1LcIwa9eubb/S1wjhg3jz448/lniHBwgnhHfUa6+9pkUb5MI68MADtWcXBLdA9sEHHwhEuF9++UWHIXbv3l2uuOIKHRIaqA9CCRE++umnn8qqVasEnk+nnHKKXHfddVpccvcrj2CG/T7++OOyZMkSvccDDjhATj75ZLnqqqvc03jvv/76a5kyZYqAKQSs1q1byxFHHKFZwHPLNohSDRo00HuoU6eO/UpfQ8Bs0qSJwFMMHmaB7JtvvtGCW9u2beXee++VyZMnB2oqyCcGg0eh25CjDuGgKDoA0cwtqJn2yLU2YcIE+f7777XY16tXL7n55ptl//33N02854qYzztYKS7gFWaqYYbbzVTIdLfHWDB3njN3O96TAAmQQFUT6No2UXCcc2zwKphVvU7OTwIkQAIkEFsEIjIkE5/IHQpZHT4bxDIKZtXhS0TvGkKFUsIbzRbQQAKeYu5CAjahSMhTZq/XvoYYBg8lhAUiEbzbUDUTwg9C9CCO2Z5QCCtEkvj33ntP5zeDJxfEHbSDCDR16lQ54YQT3EPq5PII/4Q1btxYt4dQgzng6XTnnXeW6PP666/L+eefr59DTMKBCo8wiFlffvllCcGvd+/eWvBasGCBFq62b98uyKvVqFEj3S/QH8jXhlxuOTk5UqtWLS0kISwVBtFs2rRpUrNmTUf3sWPHyq233ir5+fm6QAJyppk+EMu+++47gZgYrqEvEv/DVq9eLf7ER8yFsE7kQpszZ44cdNBB3r2heIPpb+ZEiCdCL9EOgpdtECIHDRqkGUIwsyt0mpBM5FiDWFlYWKiZ7Nq1Sw8BoQ1M8N62ss5nj1HaawhcH88pFrlK29efaDZ85AN6GBQBoJEACZAACZAACZAACZAACZSOQESGZGKL1U2cqm7rKd2PAVtHCgF4kL1xyYigYZruvQQSyyCUYaxAXmnucarjvRF1AolI5jnEMdPW7OPGG2/UYhm809auXSsQ1yCiQDiCAIZwzuzsbNNcn2fMmKE9klDBEZU5kS9rx44d8vbbb2uRBuLdsmXLHH2QAP/SSy/VIhk8uDIyMnQ/FCXo2rWr/PTTT349v4yHGSpH9uzZUyBcQaCDkAShEMKP2+C5hgIIePfSSy/pfWAchE/Ci+vDDz+UZ5991tENAhtYQIx79dVXtYcWBCs8h5gHAQpecKUxcIL169fPr1iGd48++qgWy1BJE2GWoey0007TudDA14yPPuD52GOP6e5nnnmmQyyzx5w9e7agqigEPPRBzrSjjjpKf/NLLrlEC592+/LOZ48V7rURy1ANEyJXOAfawkwlzXDnYjsSIAESIAESIAESIAESIIHgBCLWw8xsqzp4mlEsM1+D571NIJTHmb/1wOMsEsMv/e3lvPPO055gt912myBJvtsgAhlvo+XLl8t+++2nm0AMQoVF2IoVKxwhfBCb4G22ceNGHS4IkQWGKpz169fXebmef/55HYKpX+z5A2INPJUgtEAMM4ZwTYhiY8aMkREjRpjH+mw8o+Lj4wUeZPB2gnk8Hu0FBi8sGDzjsHaIPMgLBoNH1SeffKKvzR8DBw6UuXPnyjnnnKO5mOc4IxTxmmuu0aLbunXrdEginsOTCh5wELfGjRuHR157+eWXZdiwYdpzC8Kgv9xi3sZ7LiA+IqwVoiM85wxnux2+BTzFEEaLa4R3QpgzAqc/DzP0R7govOTwbbp06aLbI/wUa7vyyivlmWeecXgRoo/xMDv33HP1PvHMGLzw4IEIz0Ik+ccYtpVlPrt/aa/L6hEWqB9DMkv7BdieBEiABEiABEiABEiABHwEItbDzGwBYtVN157v9Tir7BxmZnycUZ0TB9ZAI4GqIADvMHiK4QhlkZbQP9R+7PfhCDl2+0WLFunbo48+2iGW4SHEK4hfMOT1MgZhBmIVRB6IL26DSAWz+6ACJCo6Ijn+5Zdf7u4ixx9/vAwfPlzPZ3vAQSjDc+QQg/caxCSELkKEeuCB4jC7mTNn6ndmUHjRIWcZDNUk3XbGGWfovUEc+uuvv7yvEV6KEEe3WIYGJkwRHllbt2719gl0AT7IywYBC9U9/YllWCe89xD6iuqfEMvCtc6dO2uhDe1/++03gfce5kIOs6FDh5YQy+xxEX7rNvSDdxnss88+c7+W8sxXYrAqeIDcZcxfVgXgOSUJkAAJkAAJkAAJkEBUEIiapP8UraLi55GbKAMBO6TSnb8Mw0WTR1kZ8Hi72KKaEbWQd2zUqFHeNuYCyeph8OgyZvo0bdpUHnroIfPYezbhm/B+gucSxBiED8JjDfm/kE/Mn/mr4GmqT7rbQ8y74447tFcWvMKefvppr7gHAQkhpZgXYhoOt8FDDsnssS94XtmG52+88YYOWcT+sR+IWsbg9RbM4M0H0QredBAin3jiCb/NsV94+CE/nBEZ/TZ0PYTIB+8yCJDwlEMoJ/YDL7Dbb79di4+PPPKIznPm6hr0FqIYDJ5xtlXWfPYclX39x+q1snLVWopmlQ2a45MACZAACZAACZAACUQlgagRzKLy63BTJFAKAhDOcCBME7Z84/qoCb0MhMFUaIQnlz9DGKUx25PJJI1HEngcgcz2+jJ9/vjjD7/hn2YMCEvoh5xhELFgzZo1M68r5IwiBxDMfv/9d+94Zn0Q6/yFp3obqgt7X3iOnGgQAdEXBQGQKw2edP7ypNnjmGvsGaGbCDFFXrZ33nnHr7cXRCkIlBAP3bnUzFiBzlgjqpIi8T8qgBrr0KGD9sTDvKh4Ce/A0hQowF5hRiQ141bWfGb8vXEeN2GKnoZeZnuDNucgARIgARIgARIgARKINgIUzKLti3I/MU/A9jiLdhitWrXSW0SYoT+DtxcMHlu2YJaWVly2/q677pIjjzzSX1f9DN5axkwfhBwi3DCYwQsNZsQYhFJWpLVp00YPB68w481m1oecXCgUEMyMVxXaIE8ZihWAD0S4k046yZvfDEUNzF6CjQcPLxQMwLpQ8RJVNv0ZigdkZmbq3GMXXXSRo4ktbsJTDcIdRDhUF4Ug9/HHH+v2CFV1G4owIOQSe0HV01Dfx+5vqpXaa67M+ey5K/Ma3mWwfdu3rsxpODYJkAAJkAAJkAAJkAAJRC0BCmZR+2m5MRKIfgLGkwjhc/4MlS9hTZo0cSSsh2AEbyUIacccc4y/riWeGZEJebrC7QPvJxiS7EOEscNCzQR4jgPhocYg+qCyJUIbkYzfbUYghMhlRD2zPoiEEAFRKCAcmzx5sm6GEMrBgweH08XRBnnIUPES4iDEMlTxDGQI14RB6Js/f76+9vfH4sXFXpLHHnusfg3PNIh3MHxLf2a8+EzorL82/p6ZUEx4BBqrzPnMHJV1RqJ/U20Tc3SkYFZZqDkuCZAACZAACZAACZBAlBPw/YYW5Rvl9kiABKKPQO/evbXQhGT37pA67NZUq+zfv79j8z179tT3r7zyiiNPl90IifZtM30WLFigc4jZ78y1uw8EM3guIWm+8ZAybXGGcISwUohbtugHoe++++7Tyfshprlt3rx5+lGnTp28rzAXxkLeMezLn8HTzVTeNO9RJRRmqoma5zjbIZ/2c3P91ltv6cqfCN9EOGbHjh3NK7/nlStX6vVhje4DlTGNIcca3qP6KQyehCkpKfoaxQ/8GYoywGwmdjuzT/sZruFVB0PVTmMVMZ8Za2+fO3Yo9iiDZ9mJA5n0f2/z53wkQAIkQAIkQAIkQAJRRED9MkYjARIggYglcOqpp0JR8px22mkeFdbn3cfSpUs9SsjR75Sg5n2OC+Ul5lGhi/qdCvnT93aDxx57zKM8tzxKELIfe1SooO7To0cPjxK4HO9ULjQ934gRIxzPx4wZo/soIcejhCDvO5VU33PppZfqd6oapvc5LlatWuVRIYn63XPPPedRCfW971WSe48SxvS7KVOmeJ/j4plnntHPVTJ8j/LgcrxTXlMe5YXmOfzwwx37xdzg16tXL4+qOOnts3DhQo8S+/Q7vFf52LzvcKFEO4/y0NOc3HM5GoZ5o8RD71xKPCvRS3m/6fdKJPWoMErHe3wnrFF56XmUh5njnRLx9DtVMMHz4YcfOt6pUFT9LjU11aM82BzvyjqfY5BS3lx94/0eHKW1svYr7TxsTwIkQAIkQAIkQAIkQAKxRCAOm1W/aNBIgARIICIJIHQRoXtbt24VeFkhhBEhi5999pmgGAAqMU6dOrXE3pDsHyGIqCzZsmVL3Q//OYQHGbydunTpokMMkR/LGJ7DW00JWjopPkIfESKIEEIk+E9PT5cPPvjAkRcNubkGDBigx4UHGPoj6b0Sb7TnGXKOwfsMSettQ1J8k68L4Y6oKgkPtrlz52rvq4EDB8rs2bPtLlJUVCTIsYbxEOKJ9aEaJryyUE0S3mWjR4/WXmGmI8Iojz/+eB0WihDVvn37CgobYK/IX2bywE2fPt0bsomwVIRewnOuYcOGIT3Lpk2bJjZHM7d9xt4aNWqkH2Fud2gnvmn37t31ejAnvjm897A3Je7pfsjFBs8827B/eLbB+w3ndu3aiRI8dTVP7BOGkNJbbrnF7qZ/hsoyn2OQUt4MH/mA7jFh9J2l6lnWfqWahI1JgARIgARIgARIgARIINYIxJI6yL2SAAlEJ4E1a9Z4lFDm9cpS/x33qJxWHiWeeJSIFHDT8PgaNGiQR4X7aU8j9FPimee8887zKAHObz+VtN5z7bXXOryv4PGlBCyPqlTptw88xO69916PEte888AL7IwzzvAoQcpvHzz86KOPPEq48/bB+lTeMo+qaOnwOnMPMGHCBI8KK/T2g7faYYcd5lHhh+6m+l7lTPOoHF7e9vAcw9qUiOVRApN+/uCDD3r74jnWEu4Bj7lQFsrDDP2VaOa58sortVebPfd+++3nmTFjht8pjIcZvo0qTuCpW7eud91KEPRMmjTJbz88LMt8AQcL40VZPcXK2i+MJbEJCZAACZAACZAACZAACcQsAXqYqd+6aCRAAtFBAB5UyLsFD6RwqjuaXRcWFmrvI3iIhfKEMn1wRt40VH1E3ix/Cf3ttuYaHlvbt28XJfKE3Qe5x5QoqL2uAiW9N+PbZ8yDggOYC95joQyeXfDUC7d9qPEq6736G1uQ5w37a9++vfbsC3cu9AVL5I2Dd184Vp75whnftBk3YYqguuUNwy8Iu7ol2qMfrLSeaWZenkmABEiABEiABEiABEiABEoSoGBWkgmfkAAJkAAJkMBeJ+CucFmaBTDBf2losS0JkAAJkAAJkAAJkAAJhCaQELoJW5AACZAACZAACVQ2gROP66en+HjOgrCnQjXMjqiIuadv2B3ZkARIgARIgARIgARIgARIICgBepgFxcOXJEACJEACJEACJEACJEACJEACJEACJEACsUagRqxtmPslARIgARIgARIgARIgARIgARIgARIgARIggWAEKJgFo8N3JEACJEACJEACJEACJEACJEACJEACJEACMUeAglnMfXJumARIgARIgARIgARIgARIgARIgARIgARIIBgBCmbB6PAdCZAACZAACZAACZAACZAACZAACZAACZBAzBGgYBZzn5wbJgESIAESIAESIAESIAESIAESIAESIAESCEaAglkwOnxHAiRAAiRAAiRAAiRAAiRAAiRAAiRAAiQQcwQomMXcJ+eGSYAESIAESIAESIAESIAESIAESIAESIAEghGgYBaMDt+RAAmQAAmQAAmQAAmQAAmQAAmQAAmQAAnEHAEKZjH3yblhEiABEiABEiABEiABEiABEiABEiABEiCBYAQomAWjw3ckQAIkQAIkQAIkQAIkQAIkQAIkQAIkQAIxR4CCWcx9cm6YBEiABEiABEiABEiABEiABEiABEiABEggGAEKZsHo8B0JkAAJkAAJkAAJkAAJkAAJkAAJkAAJkEDMEaBgFnOfnBsmARIgARIgARIgARIgARIgARIgARIgARIIRoCCWTA6fEcCJEACJEACJEACJEACJEACJEACJEACJBBzBCiYxdwn54ZJgARIgARIgARIgARIgARIgARIgARIgASCEaBgFowO35EACZAACZAACZAACZAACZAACZAACZAACcQcAQpmMffJuWESIAESIAESIAESIAESIAESIAESIAESIIFgBCiYBaPDdyRAAiRAAiRAAiRAAiRAAiRAAiRAAiRAAjFHgIJZzH1ybpgESIAESIAESIAESIAESIAESIAESIAESCAYAQpmwejwHQmQAAmQAAmQAAmQAAmQAAmQAAmQAAmQQMwRoGAWc5+cGyYBEiABEiABEiABEiABEiABEiABEiABEghGgIJZMDp8RwIkQAIkQAIkQAIkQAIkQAIkQAIkQAIkEHMEKJjF3CfnhkmABEiABEiABEiABEiABEiABEiABEiABIIRoGAWjA7fkQAJkAAJkAAJkAAJkAAJkAAJkAAJkAAJxBwBCmYx98m5YRIgARIgARIgARIgARIgARIgARIgARIggWAEKJgFo8N3JEACJEACJEACJEACJEACJEACJEACJEACMUeAglnMfXJumARIgARIgARIgARIgARIgARIgARIgARIIBgBCmbB6PAdCZAACZAACZAACZAACZAACZAACZAACZBAzBGgYBZzn5wbJgESIAESIAESIAESIAESIAESIAESIAESCEaAglkwOnxHAiRAAiRAAiRAAiRAAiRAAiRAAiRAAiQQcwQomMXcJ+eGSYAESIAESIAESIAESIAESIAESIAESIAEghFICPaS70iABEiABPYuga07i2TdfwWSUjNOWjVOkNTkuL27AM5GAiRAAiRAAiRAAiRAAiRAAiQgFMz4Q0ACJEAC1YDArK+z5alpGbJpe6F3Nd3aJcnkOxrq+4ysIpmzNFv+2VIox/VKkU77JHrbVfbF5h2FkpwUJ+mpdEqubNYcnwRIgARIgARIgARIgARIoHoQoGBWPb4DV0ECJBDDBF76aJc8++6uEgTi432PHpmyU2YrwQw2de5umflEE6mXXjkCFkS7N9Qcf6zLl9//zpcdmUUSpxzd4PHWpU2idO+QJEP7p0mNypnet2lekQAJkAAJkAAJkAAJkAAJkEAVEaBgVkXgOS0JkAAJgMDaTQXy0oeZJWAkJcZJfA1fOOZ3v+d52+QXeOTHVXnS/6Bk77OKulj8S67c+eJ2LZLZY3o8In+rteKAN9yCH3PkkavqSa0UqmY2J16TAAmQAAmQAAmQAAmQAAlEBwH+phMd35G7IAESiFACX/+aKxDAjDVvGC8v3NJAFk1oJs/d3MA8llMOT/FeN6wTL332r+m9r6iLNz/dLdeN21pCLPM3PoS1Sx7aIpu2+UJI/bXjMxIgARIgARIgARIgARIgARKIRAL0MIvEr8Y1kwAJRA2BP/8tcOzl5L6pcnCnkmLYNYNr69xl6zcXSp9uNSUpwed95higjDc7Vdjl+BkZAk8yY13bJsrAQ1KkV5eaWhibvyxH5n6bLbuzixut+adAJqhQ0vuG1TVdeCYBEiABEiABEiABEiABEiCBqCBAwSwqPiM3QQIkYBOAx1ZiGQWlIqUFFak/EuLLJ0hhHFFHqDxfGbuL7KXLvq0CJ/Pv0DJRcIRrBYXh72PZyjzJyi0WwjB+k/rwdGuok/3jHus6onuyDgO94alteKQN4Zl3XlQnJO889U3KK/KVZj9mfaU54+cG3x352spqlb3Gsq6L/UiABEiABEiABEiABEiABEpHgIJZ6XixNQmQQDUlsOjnXPlgYZasVInq1/1XIKnJNaRNswQl8tSUC4+vFVSsWa/av/15lsxflq08qYqUl5VH9mmSIO1bJKq+adK1bVKJXWfleOTKx7d4n/fcr6Zcf0Zteeuz3TLv2xxZvjZPCpTzWOumCTL4yFQ58+g0b1tc3Dx+m2xU4YzwGLNt3NsZMlEVAYCNurCudG5dLJD936QdsnJ9vrfpA1fUk9ZqjW5DYYCPv8qSX//Ml0zlCda+RYIcpXKdDTspXYdbGoHuAJW4/+Zz6ni7b81wrqONWjcqY7qt7wHJulpmTp5PXMM+UBDANniqffFDjrwzf7f89le+wIMNRQo6KsGvr/KQO3dALb9i4sUPbpFCrTaKbnvbBXVk9JsZ8qUaC9U6se/9FJM7X9juna52Wg0Zf6MvfNW8uOul7fKX5cE38uw6cmBH57dcsTZf3lChqEuX5+rxU9Se26nv3q1dolxxarrU9lMZ9NHXd8ova3w55Sbf0UjeVt/9vS+zZPWGfBmiCiLcfr6PrVkPzyRAAiRAAiRAAiRAAiRAApFDwPkbTuSsmyslARIgAU0gVwk346ZlaMHCRpKZXaRFDQgbHy3KltHX1Zf2zUv+Jw9VIC9/bIs3zNCMgVBJHJ99ly1nHpMmNygxzPZag6gDIchYnHJLuu257TL3m+JKluY5RC4ILBjr1vN8IsqqDcUJ9E07c4bYZywrx+d9hv72fNi3bUWq6ZOKw2tznAUEsD8c36zIle//yPOGXNat5Uxh2byBk81Pq/N0v077OD3aUIdg/tNN7alLXENMu2fiDvlUhW/atn1XkRamIE7N+y5Hi18tVM422377K08JZsVPditR8nbFFKGgxgqUrrePEue2ZRRpwdE8B5+2SiA1lpFVpIsTgAsspWacFtqK74r/nPxJpg5D3aPP6YfwssPPDA6sEeGmvTo7Q2TXbnR+iwkqlHXyTB/3/Hznt7Hn5DUJkAAJkAAJkAAJkAAJkEBkEHD+xhQZa+YqSYAESMBLYKzyyIJ3TzCDCAWPJDu5PtrDs+zasVtLiGX2WBBTkAz/ufeLvb7sd/b1r3/mlRDL7PfTlaeVLYbZ7yriGgzcYpk9Lqps2vnJ7He47rlfkjSu5xOvspVwNOyRLVpQKm1i/7uVZ5dbLHPPB0Fu1PPbg64JwpQtlmGMePW3FkImj1W51WxDEQLblv6Wq0JrfU8QTmp7zMET8OnpGWKLZb7WxVf/bS+Ukc9s0+Kc+519b4tleB7vw2g34zUJkAAJkAAJkAAJkAAJkEAEEaBgFkEfi0slARJwElitks5P/8InliUlxukww9fubiTXDqktTSwB6A8VqvnugizvAPDQGj5mq0MMQeXJCSMbyCt3NJSLB9Vy5LJ6dVam/GyF4XkHsi4QAnr/ZfVk0qiGcpUK57O9uOA1ZYs/E29rKLNGN9E5wawh5O5L6urneHdAe2f4oN3OvsZeJilvKdu6tUuSMcqrDmu5bmjtoCGp6AfvuVEq/NHOuQbR7OWPM+XEWzap8NOt8snibHF7ttlz4vrz73O0Z5Z5XlOFOCIk9aVbG8oNZ9bWoa7mHby4EEIajuFbIgQ1Nbk4TBTFCGxb8qvPCw3PF6vqo7bZ7TcpIezpdzLs13K4CjV98vr68n/q+x3cyccdobfPvuds6+ho3SB8s53yYrS/u/WalyRAAiRAAiRAAiRAAiRAAhFEwBe/EkGL5lJJgARIAAQmf7LL4UU0QgkyJlcYcn9BvLjxaV+Ceghe5v2XP+XIBit/GEIPx13fQHswYez9leCEBPAv7cknBm+ld1SeMwhR/iwtJU6ev7mBNKxT7F4EsWuXyiH2uhUiac9Xv3bxv1fYXk8Yt47Kx9WobulclOaoMNAtO305yBDm+Jxaixkba2mg5rv35R3+lu59Bi+sx66uL/e/skPnHDMv4Jn2rQrpxPHY1Bpy6hGpWhBEmKPbZlgCJt4NO7GWzp+G64P2TdIVQC+4fzNutcEz7vhDneKXeYdzbyVi/t+wemJ4mXeo4Nlc7fOfLcX7hgedXVhgieVxBpENedOMzVySLRADjR2qqoBCLDM28JBkGThikyCsE4bcZDefWyeg6NhUFUgYp/ojPxuNBEiABEiABEiABEiABEggOgjQwyw6viN3QQIxSWDVel++LwA4obdTeIHXUH+V8B6eYzjsBO5f/uj0QDrjqDSvWGZgnjMgzeFx9eMqX6J308aca6XU8Ipl5tmhnZ3iGkL8KsNWq3xotg1WSeeNWGaeN2/o/PeRQJUgj+qRLO/c31jOVnnb3GNgrF1KRHptdqacc+9mR+J7vIMI9bUKhTQGwfH0fs5iB13aJDoKBAQLU0X/J66pX0IsM+MPsLzMkDdtmcrRBkOifxQiMNZPCYHwPjQ2X3nB2YZvbxu87Y7umex9BLHUFju9L/ZcwCuQYpmbCu9JgARIgARIgARIgARIILIJOH+Diuy9cPUkQAIxRABeT7bYkq7C4SBa2YZ8V6Ov9XkO2e/+3eoTVPAc1STdhtA6eIwZoQvz7VDVHsMNuUtRlTptM8ns7WcVcf3PFqdgZiprlnVseHPBo2r46bXlU1X0AKGY3/2e68g3BhbXjt0mb/1fI2/oKzjZe0R4J3LEuc2uyInk/Qh7NKGWdlv09yfamTYQzF6xku0vUWGY8BbD2baBvZxC6j9bnbyeV/npXvzQmaMO67IN+7WLCtjv0vaEidrPeE0CJEACJEACJEACJEACJBDZBEr+hhjZ++HqSYAEYoRAxu4iR1hdHVfVx1AYdmQ6BbMGtf2HQdZLr+EVzDDmzlIIZqHWUFHvN213ijsIv6wIQ5jpqYen6gMC49S5mTJNhaWa4gnwNntkyk4Z+79iUXLLTuc68lS1SFToDGWbdxRK66al/+sIwmBLVTETxRtgSPx//RkiX1mCGfaAsE5jEFq3u8QwVDINZVgjjQRIgARIgARIgARIgARIIHYIlP43lNhhw52SAAlUYwLpKtdXkgqdQ94q2O5sp1gTaulIIm+HMmblon9J0QweZbaVNr+Y3beyrt0CWZaVnyucOVEpEvnJbOuh8o0hJNJYswbxMvLsOnJgx5pyywRfXrgle6pRwhvM7XmH0Mb6SnAMZXahgVBt3e8HqNBJU/AAwheEve+svfQ/UIVjqnUYQygqfnYgfBpDdVBfC/PUeU5OCr0PZw/ekQAJkAAJkAAJkAAJkAAJRDIBCmaR/PW4dhKIYQI1lMLRsnG8rFGVMmEQQAoKPQ6RB8+RDL9wj3MQBKAGdYqFj32UR9NXVmJ45Khy56FCRcitltcUxDJ/oYOYpyoNye9t+3tTQdgVNtEPLEeq4gi20Db1nkaCQghuO1rlOEOYJHKGweBFhnBFeIi1bhqv+eM7wBASi4ql7oT9+mUF/YGwTCOYYcjn3tvlXRvu7TxnuId1UOG3KBJg7I4L6+gqmeaeZxIgARIgARIgARIgARIgARLgP5nzZ4AESCBiCezTxKf5w0vKncgfFRQH3bRJTri5+Hj4NV+VSHc+qg8XZZXgMGtpthbhzAtU3ayOZnPA+lDV0W052oPO/dR3366FUxyb9XW276V1tX1XkeQqkcwYPLaMCAlBsnUTn3gHUW2KKhDgzyBY2WKkvzbhPIOo19r6OfhksW/vyGt3WFdfOKYZr71rry984MxfZtqhcAAqq9JIgARIgARIgARIgARIgARijwAFs9j75twxCUQNgTOPdlY3HPPWTvn1z3ydnB65sx6fulNQ4dDYEapaorFBh6Z6hR48m78sR55V3kmZKrQTieu//DFHxr6VYZrr83kDaznuq8vN8YemODzfUC3y0dd36gIFyDcGceqBV3c6lotcXrad5WKJSpij39ypK04i7BWeejOXZMsI5Ylm94VYZxdbOHeAk9Fbn+0WHEjsj35rlffb5E8y5eontsh147bq5/Y6ynJte5FBODWGCqkIC3XbUFUV036On5mHX9up94i22OtsJZae/3+b5TpV2GD1Hi9G9zi8JwESIAESIAESIAESIAESiF4C1dNdInp5c2ckUOkEftu4XqYvWyydm7bUcw09qHelz1lVE6AiYj8lgi1Q4hYMHmUXPrDZkdvMrA3J3484wCeY4f5/Q2vLPRN9XmcvqUqJEz/aJYnKU8rkRjP9j1S5sPp2K+mtZN5X5bm2yskFoQrrN/a2EqlwwOvLhEiad/7OEN3mfJOthUK8h/A0de5ufcCLzBbJ7P5XnJJu38pp/VL1OF+r3GYwhLU+psQ7HHYoJ95B1HzynQy5/fw6uC2zDTgkWV5S381ttpBmv2uvPAUvP7mWTHjX1+edz3cLDvca0e/257bJm/c11qGr9ji8JgESIAESIAESIAESIAESiF4C9DCL3m/LncUYAQhl98+cpg8tmv2wRKar45xJY+UdJaBFq912QR3p1i7JsT232IUE/y/f1rBELq0Te6fKJSfUEjvpPIQhd/9DOteUOy6s65ijut1cNKiW9LGqQZr1GbEstWZJTyvTBmcwePSqejLosBT7sb72J5ZBRLvq1HSB0Oa2+4bVlV6KmdtM3jPzHGLn9Uq0LK91aJko7hBbiIiHdnH+XNjzXHxCusCrDvnbbHOvEbnZHh9ev0Q7uw+vSYAESIAESIAESIAESIAEoo9AVHiYrduwSX+Zr5b+5P1C5pn3QQVdtGrRRI9kzn16HVBBI3MYEigbAeNRhnMgg3BmLNo8zrQYdntDefmTXfLegixdJdHstWn9eFXVMUmuP6O2oBKi2yD6XDuktiBUc9zbGfL7unztEYV2EFJaNEoQhH2ec2yaoG11NghiT17fQMbPyJD3F2YJco3BkHgfolb/Hily83hfdct45Xnmtpoqmf8Dl9eTwUemyfT5u+XLn3JU9VErxlF1gAcWQh0vPTFd2qvk+f4MxRGevamBIC/cq7MyZe3GAh3mirboj7xj8Ni74HglVpZchr8hQz6DN5mdiwzFCewqn+4BwOWW8+rI8UogfHJahqxYm+8tFgDxsH3zRDlIVQq9ZnC6I+TUPQ7vSYAESIAESIAESIAESIAEopNAnEdZJG8NIpktlFXFXiCaUTirCvKxPWc4Qpk/QkMOPEyiTTSz9wmB589/86WJEssg3JTGkO8MFR8z1RhI8J8SwiurNGPv7bYbVHhqxu4iJfwkSFJinLyjBLCHp/jymA1RotgoVR0ymME7bdP2IpWcv1ALb80aJJTw0gvW37xDHjWIZvjLBkKU7dFn2lT1GX8TIqR3+65CgccahD0aCZAACZAACZAACZAACZBA7BKIaMHsrXfnSmV5kpX2R4KiWWmJsX15CCDE0vYac48FUQwWqk0kC2cHD/vHve2Yvv9uYnN5cx5ylokM7e8shoAQ03Pv3ayExAIvI4hlEM3I0YukQi9uV6HC7u9QoRNwMBIgARIgARIgARIgARIggUolELGCWXXwLHN/GYpmbiK8r2gCoYSyLirR/xCV5B9nY6H6RLvHmeEQ7eflKqTwkoe2CLy5DutaU3qrfGZtVP4teE1BSIOHlzFUtZz5RBNHZU3zjmcSIAESIAESIAESIAESIAESIAGRiBTM4FUG7zK3nXX6AP3I5Bdzv6+oe8yPw18oKNZQ2fNX1D44TuQQCBV+6U8os3dnkv5Hs8eZvd9YvL7rpe3yyeLskFuvl15Dxv2vvuzvKpQQsiMbkAAJkAAJkAAJkAAJkAAJkEAMEfCfsbmaA/AXhrk3hSoIYubwJ9xVc3xcXgQRKK9QZrZqh14GEs3s53Z7MwbP1ZvAfZfW00UKJn60S5CLzZ+1apwgT4+oLzjTSIAESIAESIAESIAESIAESIAEAhOISA8zdzhmVYZCur3dIKQZT7fA2PmGBIITCCWUoXd5QikZphmcfyS/Rejlsj/y5Le/8mXVhnxp3jBeOrdOlM5tkqRLGyazj+Rvy7WTAAmQAAmQAAmQAAmQAAnsPQIR6Wbg9jBjCOTe+4HhTJVPYG+IWfAgwxFoLnib4SiPKFf5pDiDPwKtVd4yHKf18/eWz0iABEiABEiABEiABEiABEiABMIhEJGCmXtjVSmYVeXcbg68j3wC98+cJvAu82eh8pT56xPqWTjC2XK1nrsGnRFqKL4nARIgARIgARIggaghsGlboZxw8ya9n9vPV5WPj3JWoI6ajXIjJEACJEACAQlEpGDm9jALuLsqeFGd11YFODhlKQjA28ufWFYZQpl7WXbOMjuXGdphTVib3cbdn/ckQAIkQAIkQAIkQAIkQAIkQAIkEE0EakTTZrgXEohkAvDk8medm7aU3/5d5+9VhT7r0qyVBFpDoOcVugAORgIkQAIkQAIkQAIxQiAjq0g+XJSljw1bCqvdrqv7+qodMC6IBEggKglEpIdZVH4JbirmCfjzLgMU2+OrMry8MO/0AN5t5qMEWpt5zzMJkAAJkAAJkAAJkED4BBDyee/LO3SHh65Ula4bpoTfeS+0rO7r2wsIOAUJkAAJCAUz/hCQQIQQqIxE/IGS/kcIEi6TBEiABEiABEiABEiABEiABEiABCqFAEMyKwUrByWB8hNAhUp/BuHsnEljdV4xf+/DeQahDGPY3mt2P+RNo5EACZAACZAACVQvAgWFnpALCqdNoEHQtyj0FIG6e5/nF5RtkMIiEU/Zunrnrqg9eAcsxQXWXxH8Qk1ZVr4YN6+M3ybUmvieBEiABKKRAD3MovGrck9RQcAOv/QnbJXF4yxU+KVdYACCGo0ESIAESIAESGDvEtiRWSTXjd2qJx1xVh3Zp0m8PPvuLvl5TZ789W+B1K8dL907JMmpR6RKn/1r6nbr/yuQaZ9nybKVefL73/lSM0mkTdNEufiEWnJ0j+SgG0D+rDfmZsr8ZTmyaXuh1EyMk31bJUq3dkky7ORaUjvV/7+vf/1brjwzPUOP/exNDSRjt0de/FCtc7Va58YCqVurhuzXOlFGnFlH2rcI/CsHBKZXZ2XKlz/myPK1+ZIQL7LfPkkysFeyDO2fJvdN2iGr1ufL8YemyHkDa/ndS1n38Me6fHl4yk5JT6sh915SV7H1v1e/k+55iG/y9me75be/8uUPtc4iJZo1bxgvvbvWlMtOTpd66c4xRzy1TbbsLJTcPJ8yOH5Ghrw2O1OP+NQNDUr0wYtf1PefPDNTvv8jT3aqn5FmDeL1dzrrmDQ5tEvxz8GeJTlOENemz8+SD1S+tHWbCiRbzduobrx0VN942Im19M+S3aGs67PH4DUJkAAJRAuBwH97RcsOuQ8SiGACoUQzbM0W0+z29rZLI5TZ/XhNAiRAAiRAAiSwdwnAQwriC2zWkmz5fFm2bMtQKswe27yjUD79Nlu++CFHnrqhvtRKqSHXP7nV0aYgW+TXP/Pk5vHb5MpT0+WKU9JNd8d5rRJQLnloixZgzIvsXI/8uCpPH3PVPA9eXk8O2lcpcC7bpZLWm3Uu+CFXRr+5UyD2Gdu+q0gW/5Ir363YLM/f0kAOaF9yjKwcj9z+/HZZ+FOO6Sa56uq731U/dSxT4tBPSoD7R4l6B3Ys2R+dyrMHJN3H+LAFiudp/VL1dbh/zF6aLQ9M3iFZiplta5VgiOOjr7Ll5VENpX1z369cK5Wo9u9WZ5L/DZsLBQfMn/cYvvVNz2xzeK9hDBwQGi85MV2Gn17yG+MbDXt4i6z+p8BenvynhFEcixT3C4+vJdefUdv7vizr83bmBQmQAAlEGQHff72jbGPcDglEEwEIYTgC5RwLJJqFEsrACKGfgYS2aGLIvZAACZAACZBApBGY/sVu7Z0FwatHp5riUe5YC3/OlRc/2CU5ylNopBJREMKYpLzCbj+/jhzSudjTCN5oT7+zS3syTfo4U07sk6qSyivXLcsgwl03ZqsWy+BZNfLsOloYK1C6zXcrcmXsWxmCxO9Xj94q0+5vJK0aB/614a6Xtuv35x9XS/p2q6nFH4hJ877L1iGAT07LkIm3NbRmL74c+/ZOr1h2cKck7UEGcWmF8pKb+02OzPpaKX9BrLx7OKJ7ssxUomSaEh177udfkAs0/VdKDBylxD5YL8XdePz9rURIrP2d+bslM7tIbn9um7x5b2OpscfRDN54YAxBDd8PNuLM2tL3gGJPwAZ1nN/p1z/z9TzwxDtctcHPQuum8Wn5NPoAAEAASURBVLLuv0J5/v1dWjCb+NEu6ay8+Y5yeROiqADEsrg4kUuVqIZv01R5pn3+fY68tyBLII7Bu69Lm0QZcEhx0YHSrk9vgH+QAAmQQJQSCPw3X5RumNsigUgmEI5wBvHM5D+zhTT3vimUuYnwngRIgARIgASqF4GGSjx5ZkQDaVzPJ6J0aJkoSQlx2qMLHlqwe1Q4oRE8cN+6aYLg3aOv79SC1de/5srgI33eUxDZ4JWGUEaIZVPuaiRN6/vmaHF4qnRXHl0XP7BFMpSXEsSzMdfVx9B+DSF+L97aQIf6oQFCOiHePPBKnLyrhJkfVKgoxrHDO+Ed9cHCYkGstwotHavGT1T7grVU4tyxPVNUOGacapOln7n/qIg9QOiaM6apV8xyzxHs3qwL4abP3NhA4vcIYvurUFYc8O56X6199YYCJVrlS0f13WBGeLRzzTVS37dts5K/lkEQvOGprVoc7X9Qsoy+1vcNOreuIeP+V1+ueGyL8sbLU2G7GXKkalOjGKHuA+8zGMJybQ+0s1UY50l9UmTIHZu1qPrJ4mzvz09p1qcH5x8kQAIkEMUEnEH1UbxRbo0EookAhLM3LhnhFcbce4NQFkgsQ56yuwad4fAq++yPX2TRmhXuYXhPAiRAAiRAAiRQhQQuOD7NIZaZpRx9sC8vWesmCXKMEpfcduSBvjbwZrINYYgmnPJ8lRfMFstMO4x73nFp+hYhgaa9eW+f71aCHUQzt/Xe37cGE3Jo2sADy4hGV5+W7hXLzHuc77qobkAxq6L2YDy/7HnDuT5ViYoQsO6/rJ5XLLP7ndzXJ1CuULnZymLwsINoBg+xW86t43eIYScVh2LCk2z5X8XhpWi4c3eRoAgBrE2zYrGu+K74T4TyXjM4XXv1dfMTLmu35TUJkAAJxCqBkv+UEaskuG8SiEACdihlIIHMbMtO6G+e4fzInHflxw1/6UfLN26Qy/oco6/5BwmQAAmQAAmQQNUSSIjf4y7kWkZjS5zqp4Qx41VkN2uiPMYgYiHn2bZdzpxZyNdl7PQgebsG90vTBQfQFqIPQvf8WYMAyfIb1vH92/xWlehexNffiHjwaOra1n84JMQsQyAOqpFlFb0Ha+iwLuEVF8xaqWINxnbv8QQ09+GeIVTCOrRIFHxPf2Z/k/UqD1rXtsWtmiivtTbKaw1FCd74NFMXIXDnojtFiX40EiABEiCBwAQomAVmwzckEBEEQolmgYQybG5XTrZXLMP90r9WUjADCBoJkAAJkAAJVGMCtnZkQgH9LdefkIZ2Jul8uqqAWVtViAxkCNdMS4mT3dkenVw/ULtwniOE0jYk8ochp1ZZrCr24G+dEP5QJXPl+gJdZXSLEihRKbMi7J8txZ6BqKqJ0MtAhu+MHGeGqWl3k8pLd6vKoYbvd9mjW6RFI1TvTNbhssh3F+xnx4zBMwmQAAnEMgEKZrH89bn3qCJg8pudM2msY18IvzT2/bo1sn7HVjmoZVtpVa9k8l3vP+OaDjyTAAmQAAmQAAlEHQFUsIQ1rhdYLDObblg7XgkuBSqRvzOs07wv6xkiEKxR3dBr8DdHVe8BAuCDr+6Q977M0oUXsEaEOcKrr2ZSnA43hXeXNpdYWPww9J9b91RHxV6RpyyUGaamHbzgXr2jkYyfkSEoUoCwWITC4oBQemzPZPnf0NoC4ZRGAiRAAiRQkgAFs5JM+IQEopLAF6t+k+e+nK33hmqbowdfLMkJvtCIqNw0N0UCJEACJEACJFCCgCkiAM+jUGZEm5SazpDIUP1CvUdBg607i3RxglBt/b2v6j08+94uXdAAa7toUC0Z0j/NUYkU4tVxN24qXnoZ0aUrAS43r1BX4Rx6VHE+OX8szLOWyoPMbQjLfPya+roIwCJVYRWhrEtUEQisb8YXWfLtijxdcAHtaCRAAiRAAk4C/C+jkwfvSCBqCfzyz9/eveUXFsrvmzZI9xZtvM94QQIkQAIkQAIkEBsEUEUT9t/2Qu0JFShXWmZ2keCA2XnT9INy/tFMhWL+/ne+bNzmzK8W7rBVuQeEP74xN1MvFRUn4aVVGQYRC8IWiiMcYxV6KMtcycrrDWPgwPrfXbBbHnp1p/y9qUCee3+XPHJVvbIMyz4kQAIkENUE6H8b1Z+XmyMBEiABEiABEiABEiABJ4F2zYsFMwgnX/yQ63xp3X36ja84QK8uwZPcW93CukSyf9gqlfsLwl0gC+QDV5V7+FNVpMzKLV5ZoAqTFZHHrO0ery8UXDAhqIE4uZ/P/SZbxr6VIS98sMv9SheJGHJkmhzcqbjYwtfK4ww/CzQSIAESIAEnAQpmTh68IwESIAESIAESIAESIIGoJnBE92RdQRGbfFEJKnkFJdWSnDyPvDKr2IuqqarQ2HO/ihXMTjsiVQs38J56ZWbxPG7ok9VzIzx5XFUDqnIPNa2MFvO+zXYvW3uEPTxlp/e5a+n6eVKCL05zV5b/KgGoYomE/hDnnnonwzue+wKcFqscZbbl5nvktTmZ8rzyHoMXmT9rr6pvwlCN1F0gIpz1+RuTz0iABEggmghQMIumr8m9kAAJkAAJkAAJkAAJkEAIAqiOOFJVUIStXJ8vVz62VSeEN90gsFyuqirijCqZ466vX+EVFRFueEzPFD3lm/N2a2+obXuS3CM5/aRPMuWZ6YFFoorYw58qKf/1T26TeybukECilWFin1sq7zgk94fNVznBXlXCIipUIifc/GU5csNT22TBjz7vPH9jQ4Q09tl3ObIzs1g0s8W1Lm0SxeQu+2BhltzxwnYxjNBujfJ0u3/yDnlaiWkjx2/zVj/FuP0OTJbEPaLcyGe2yZyl2d49wlvtw0VZ8r4aE+ZPDA1nfboz/yABEiCBKCbAHGZR/HG5NRIIRSA9OUU6N20pyzeu1017tGwXqgvfkwAJkAAJkAAJRAGBPqqC4vVn1Nai1E+r8+SU2zZpEahIKTFIxg9DbrMnVML4ji0tl6oK3PuIM2vLmg35sloJP/CGwlFbVWzM2ONxtU+TBFn3X4G3CqV76vLuAdUiF/5ULGwd0jlJTuqT6p4i4P19w+rKtWO2ag+4J6dlCA54ahmPuB77JskPK/N0qOMmP3naUEmzb7eagkT8X/+WKwNVgYBE9ZvZ5FENpYPF+9rBtbUQ9qUS4GZ9na0P5H/LVl5nO/aIbKnJcTpxP54bA8dnRtSXW57droW125/frkXPZg0TdMVTI8w1bxgvt55XLJ6avjiHuz67D69JgARIINoI0MMs2r4o90MCpSRw+8DBcuGh/WVYn2PkqiMGlrI3m5MACZAACZAACUQqgQuPryWTlEDTrV2SIARv845Cr1h2kBJ8nrqhvq7QWFn7a6K8rCaNaiQDe6WIqcIJsQwJ6hGO+Po9jSRuT+RiDXfM4J5FlWcPh6gwU8xVL72GZlCafR6qcro9f0tD6bSPT0yEWIaxrlNFAPDOhDx+s8IZLmnmufW8ut7+CE2FCOY27eH3v/py9yV1BQIiePy7tVCLZag0elSPZHlBzeXPSwzPptzZSPoflCxoW6jWt36PAIl9nzewlrxyRyOpX9v/r4ThrM+9Xt6TAAmQQDQRiFP5AEr+l7ma7/CJZ15zrPCma8933O/tm+q2nr29f85XMQTunzlNftvj6WVGHHLgYTL0oN7mNqzzOZPGOtq9cckIfT9+wSxZuHq59921Rw6Svu32896bC6xh+rLFjrV0UV5odw06wzSJyTP+U5mRURwaUrt2bfU/rL7cIzEJJMSmySsEoDK8/nj2Alm5eq38oY4bhl8g+7ZvLXj28ZwFerQTB/aTE4/r532G9x3VgWc0EiABEghFAGLKmn/yJS9fpEWjeKlby7+IEmqcsr6H2LRKeZtBuNtHVfGEPobwwwEjNuohbzu/jpxxVFrQ4cuyB4hUSYlx5Qo5hacXwlcb14sXO5Qx6GL3vESyfYhYCJNs2ShBGtQJzh3rRSgm2pV2LgiiCB3FOpuoAx5xoay06ws1Ht+TAAmQQCQRYEhmJH0trjWqCSA00i2YTf9hiXfPpRXOvB33XHRv0dormKUkJsl+TVo4mvgTykwDrC3W7d9//5UWLYqZbd26VerXr19pSDBXfr76jSUMS05OlsaNGztaQtjbsWOH45n7plGjRpKSUpw7xv2uIu63b98uDRo00ENt2LBBmjdv7nfYLVu2yIoVK2Tbtm3SsWNH6dChgyQm+v613m8n9TA7O1t+/vln2bx5s+y///7SunXrQE0dzwsKCmTp0qWCc48ePaRWrVqO94FuMM/y5ctl586deo3hrjPQeKV9bgtj6Lty1VotmPkbp2MHxWKOaGEN4hqMopk/UnxGAtWPwMHD/ql+i6rEFX37UnPZnVMktVJqaPFm31bO//4jVNSYqYoZa4zM/qvTGd51E0YW/x1fndbFtZAACZBARROISMGsVYsmsm7DpopmUSHjYW00EigLAQhiyCVWWaLZ4e07S52UVFm/Y5sc1LKtNEhL18sMJpShAbzLyivWlYVHLPc56qij5Pfffw8LwcCBA2X27NmOto8++qg89NBDjmfum3fffVdOO+009+O9dg8B6rbbbpNJkyap3DQ+R+d99tlHxowZI0OGDPG7ltzcXBk+fLi88sorUlhY6G3TrFkzmTp1qvTv39/7zL6AyHnppZfKZ599JpmZxdXYaqh/Wj/zzDNl4sSJkprqP28NxDzM9/nnn9vDaQHw4YcflgsvvNDxvLJu4FkGM55lZh4IYW4xDJ5lE0bfqQWzcROmaK80055nEiCB6k3gu4n+/3Gheq+67KsbPyND5nyTI+NUyGFbVQTANoRmPqXygsHgDdWlTZK+jjVGetP8gwRIgARIoEoIOP9mqpIllH9SiGdVJVRVV+Gu/FQ5QlUQQNjjOyoc0vYsM+vAMxxlCdM0Y3Rr3lpwGAs0l3lfnrnMGDyXnsDxxx8vBxxwQNCOS5YskXXr1vlt988/xR4K9erVCygEVaZ3WdCFq5fw7jrppJO0pxdEqwEDBkjfvn1l/vz5WpgaOnSoTJ8+XQYPHuwYCsIaBMIFCxZor7rTTz9dmjZtKgsXLpR58+bpcSAEYmzb4I128skny+LFi6Vdu3Zy2WWXCYQ3tH3zzTe1hxvGSEtzhvrAg+2QQw7Rbbt16ybHHXecpKena9Htiy++kIsuukjy8vL0ePZ8lXFtPMUghoVrpq3pG24/tiMBEiCBvUEgL9+jkt3n6XDEix7cLANUxczuHZKkjgoFRcjh1LmZ3oqQoy6s481xtjfWxjlIgARIgARIAAQiMofZW+/OdXiYnXX6gCoTzL5a+pPgMNan1wGCg0YC5SVQVjErUA4zez2hxoZX2RDl8YYzrZgARKi9FZIZinlWVpbAEwvhgatXr9bXdh8IO3PmzJEZM2YIRKWqMIRYBgrJfO655+Tqq6+W+Ph4+fXXX6VTp07eJd50000yevRoadiwoWzatEmF6PgSrGBP2FuTJk1k0aJF0r59e28/eKvBs65nz57yzTffeJ/j4sorr5QXXnhBi3KffPKJIAcdDIJjf+WRtmbNGnniiSdk5MiR+jn+KFLJdA4++GD54Ycf5OKLL5YXX3xREhJ8/8Zk1gmR7b///gsoTHoHLOcFQjIRamlEsHCHK2u/cMdnOxIgARIoD4G8Ao88PGWnfLAwy+8wtdNqyA2qkuapqgAAjQRIgARIgAT2NoGIFMzg1QXRzLaqEM38rYOCmf1VeF1eAhC2YP48zszYbi+wYIJZOOGXFMoMWee5OglmzzzzjFx33XVy9tlnyxtvvOFcqLqDN9Qvv/yiPbjgIVUVFkwwg2fWq6++KvCkmzlzpmN5u3fv1oIWBCuEQ9piGkJI33//fRk1apQ8+OCDjn4Is4SQBjHx66+/ll69ennft2rVStavX++Xx1tvvaU5wlNt7dq1kpRUHPKDkNj99ttP30MQq1Onjnc8XMBrDc+Qaw7efoceeqjjPW9IgARIgATCJ/Drn/mCfGU/qwMVIFENEjnLUCkTVSdpJEACJEACJFAVBHz/XF4Vs1fgnBDQIFYhNLOywzNNGKZbtMN26F1WgR+VQzlyhwUSzezngXKNRbtQBjHr6aeflm+//VYngod3EkIa77jjDunatWvAnySE40GwQT8kqUcid+TOQs6qUInnn3/+eXnvvffkp59+kpYtW0qfPn3knnvukbp16/qdD/m2MBdCBz/99FOdR6tLly5y1VVX6XBBv538PMQ48MCC3XjjjX5aiJiQTKyrNFaWNSK0EfnSkBts1apV0rlzZznxxBOD5vZC/jIYmLkNRQwQ9gjvORQEsAUzfCcYxncbkvcfeeSRmvGPP/7oFcxQQAFiGbzK/ImHCP/EfBs3bpSVK1d6f15wDQ+5fffdt4RYhrkR0gqBDmNDUKtIg1eYqYYZ7rimQqa7PcaCufOcudvxngRIgASqkkDXtomC45xj06pyGZybBEiABEiABBwEIlIwgyAGYcoOhcSu3PeOne6FG4plewFyjE4BIQxHoFBKWzRzI7p/5rQShQTsNm4PNftdJFxDgDr33HO1aBEXp0rRq1BFhPnhePvtt3WeKuSvsg1eSBCqpkyZoh9DGIGn0JdffqkP9EOOKjsEz+6PRO8ff/yxDheEcAKBCpUXIYjhaNu2rd1cX0OEQ1ggDBU24aH0119/CUIEEfKH5Pfh2LRp03S/ww8/3K8AlJOToytOQvCDoANDlUp4Q4WqCFnaNSKR/imnnCJfffWVngcswBAJ8t955x39zN8fxxxzjOaEHGJ33XWXo8ncuXO1WAaBy/YSg8cZQjRhJjTW0VHdwEsMBhHLGDztYOadeW7OCAtt06aNFlrxPYzAijxoEOwCmRHi8N70CdS2NM8hcH08p1jkKlW/PX3cwpgZy/28NGOzLQmQAAmQAAmQAAmQAAnEIoGI9XGGOFWdBKrqtp5Y/GGOhT1DNHvjkhE68b+//foTztxVN00/CGUYK5BXmmlXnc8QnZAYHh4+N9xwg0DEgOgB76CzzjpLV1FEZUQkZrdt3LhxWiyDiAKBB0IMxoDHGKolQgCCx1ogQy4tVFZEn4yMDJ1PC2F/COOz82CZ/qimCLGsdevWOlwQQhPW+uyzz2rPp8mTJ3vFNNMn0Pmxxx7TrwJ5l2FcGDy1IArCaw6eZhCgEGKIPfqzsqzx7rvv1qwgOEIoBAuEYkLUM0KVv7kQWgnOy5Yt03nWTBv0N/tD9Urbyw/iFYoFwBo1amS6OM7muS2YmTxnxuvO0WHPjREW//77b3+v/T5DfjhYv379dCEBv43K8NAIXKiGiUqX4RxoCzOVNMswLbuQAAmQAAmQAAmQAAmQAAm4CESsYIZ9VBeRqrqsw/VteRvFBEIJZ8G2jkT+qMYZyUKZ2R9yVUEQgccSEr4b4QMikclxBaEF1Q5tw/1BBx0kjz/+uMBTC15GNWvWlFNPPVWHZKItQgwD2fjx4wVCHIQiJKVHaKERonBevny5tysEJISGwiCyGK8peHxB0ELye9hLL72kz8H+QCgnRCbsGWv1Z0YY2rVrl05UDzEQoZ/YIwQ9FAEAK9vKskaIUmbNU6dO1fnI4JGH8EaEOSI3WCDD+uHBB8ESIbDw0ELyfQiK8E5Dkn6IibYhRNMY9uLPjMCGPGjGUBUTHn3IcYbqmm7DPhDCCUNIajiGXGd33nmnwKMR4aiVYaVJ7m/a+quGqUM1B/arjCVyTBIgARIgARIgARIgARKIagIRGZJpfxEjVplwTJNfzJztthVxbedHw9ww+1lFzMExSCBcArbo5c+7zB4nGitfQmT5/vvv7W16ryHKQDhDXq0///xTVzw0L/0lyjfvUIURoZroE8gg8ritR48eOvE7RLz58+frXF5og4qNHo9HevfuLWjjtuuvv17g2QSxB+0gwgQy432FPnb1SLs9REOEjEIEg7db37599dg7duyQyy67TKZPny733nuvTnQPgQpWljVC2ILnHnJ8DRw40F6Cvj7ssMNKPLMfINcZREt4pv3222/eV/CMg+AWKBwWDYMx8g5kXQwaNEhef/11GTFihK4eCqETBk8/CIgmp1o4Od8gxiEMFTzxHcC3OhtDMavz1+HaSIAESIAESIAESIAEqjOBiBfMDFwjXpl7nkkgVgiEEs2iUShzf1sknkcYIDzH1q1bp8UMtDHhiRCi/BmEGniEQbCCZxZC/kL18TeOeQYRCIIZPJCMmUT1CIf0Z82aNRN4aIUyeJYhv1e9evW0d1ug9hAJX3nllRKvUYwAohHGWbNmjfYOu//++3W7sqwRY8D2339/fS7NHwibRV455Jm75pprtMAHLzCs4/bbb9feao888ojcdNNNpRnW29YtqE2YMEHvG+IqikFAFMX3Rv475HVDKCdEM4TVBjP8fEDMQ6GHo48+Wp544olgzavFO3idrVy1lkn/q8XX4CJIgARIgARIgARIgAQiiUDUCGaRBJ1rJYHKIADhDAcKA8CWb1wvQ9Q9BLNoto8++kguv/xyXeUQoXqokAnxBdcm55V7/0iMf9555+mCABDTIJo0btxY59WyQ//c/ULdYwyYnUPLeE9BGCuPIXwUdsUVV0haWtmqiCHs9JxzztHhqgjPNFaWNZo9Nm/e3AwT9hlCHXKcQRAz+0JniH1HHHGEDtG8+eabBXnMUMQBhhBWYyjakJSUZG69Z5OrzniQmRfI3/bBBx/oqqIItUWBBXjowQsO+ePg/QcLJpjh52TYsGEya9YsvT4UNQjmBWfmrurzuAnFhS3oaVbVX4LzkwAJkAAJkAAJkAAJRBqBiM5hFmmwuV4S2BsEjHCGPGXRLpbBowzJ/ZF8H3m54CW0ceNGHeKHd/6qVeIbQHRCPrGDDz5YFi9eLMj3tXr1au2hZgs4pf1eCIOEwQvMmBHRyiPEwSMLlTsRtnndddeZoct0RkVImJ3gvixrNAn2wa40BuEJFUZhqMrpNlTANCGvJi8c2mA+CH4wfG9/hm8P8ydOIkT3/fff12GYCEHFt1q0aJEWSRGaidxrZk/+xobn26uvvirgh6IP9jf21746PDM5zUyOs+qwJq6BBEiABEiABEiABEiABCKFAD3MIuVLcZ0kQAIlCCAME95GF110kdxyyy0l3vt7AO+yN998U79CfyMg+Wtb2mcmFNMW6uA1BTPv/I1ZVFSkHwfKSzZmzBidkP7ss88WCErBDBVAkV8LRQmMd5bd3ohNdr6usqzR7DFYrjd7XnMNDihEADNFGsw7czaCF8JbjSHMEh5gyEkHARG509xmREDT3/0e9/BM69mzp/cVqpfCUGjAHcppGj355JNakIWwCLGsLF51Zqy9cf549gIx1TYxX8f2xbnq9sbcnIMESIAESIAESIAESIAEooUAPcyi5UtyHyQQgwRWrFihd22qI9oI4DWEw23IvZWfn6/FEX/VFu1QRXdfc2/mNfc4b9iwQVd4xDWS2Rs75JBD9CXyZZnk8uYdzgjxwzo6duxoP/ZeYw8TJ07U9zfeeKP3eaALVIK877775OGHH/bbBOuAderUyfu+LGs01T4XLlyovfO8g+25MLng3M8heqWkpOjH8AL0Z6Zqpb1GtDMJ9hEO6TYIgfAYg+jVr194VSGRzw250lJTUwUhoP4M1T5RLABhnfhWgb6Tv75V9axjh2KBDJ5lukrmceHxqKr1cl4SIAESIAESIAESIAESqI4EKJhVx6/CNZEACYRFwCTSR9J8hFQaQ34tVG40AtWWLVvMK0FonqlIiaqTEM9gyHf2/PPP6wqSuLf74N42JH63PatQORF51DAGvJeOOuoob3MIS6iqmJ2drb2Y4BFnDHPceuut+hY51fzZ+PHjtRfdkUce6bfKpruPCWdEbi53BdGXXnpJkMMLoY3wQDNWljV2795dTjrpJIF33MUXXyzbt283w+mQycGDB3vv7QuIg6haCYMQZffDM4SeIi8dvO2OP/54PPLaDTfcoK9RvOCLL77wPi8sLNQVQcEfCf2Nx5y3gXWB9eLb3XbbbTqHGfKe4RuYsFSrqWaFiqPghRxothBqt6tu1xDKJoy+U24YfgGT/Ve3j8P1kAAJkAAJkAAJkAAJRAyBOJVPxn/5uIjZAhdKAiQQqwRQ6fDAAw/0CmPwlELIJTyXIHLAkwnhicj79dRTT3kx3XnnnTrxPR4gFxVymS1dulQyMjKkadOmOg8a3sG7CwUEYJgL4ZAQchCOCNEFAgo8ppAHDWGG8FT65JNPBOKWbQgjhIgGIQ9hkvCAwtioegmR55hjjpHp06c7EtujP0S21q1b6/0h/xaEt3AMed0gPMEgKmI+VKSEBxbswQcflFGjRulr80dZ1ogx+/fvr8VFcOrTp4/mjVBKcIVgib9i4H1nhzHCGwyCG3KOoUjDscceq9vju8FjDXb33XdrTzmzPnNG4v2XX35ZkpOTNWfwx76WL18uqAQ6e/ZsMd5vpo85H3744VpEBFcY1giR9IwzzjBNvGeIoFgzfiawxlCeZQjvDRUu6x08yMXwkQ/otxC8SmNl7VeaOdiWBEiABEiABEiABEiABGKKAAQzGgmQAAlEKgElsniUIAThXx8qJM+jhDOPCuvzKC8q/WzAgAGO7SmRyqNCFj0q0bu3nwq589x1110eFbLpfaaEGG8/Jfro50pk8aiE8Z7TTjvNo0Q5/Qxzdu3a1aOSyXvbuy+UQOZRFSo9qiKnd3yVP82jKkV6lJebu7m+V95luq3K1+VRXlR+2/h7qLymPGPHjvUoocc7F/gozyuPEt78ddHPyrJG5dnnUVUmPUpI1HOpypEeJYB5lDjoUQKWfgZ2blOimUflDfMo4cuxRiXweVRBBndzx73yDPQoMcvbT+Ul8yixzqNCZR3t3Dfo06VLF48SFD1KNNRrdLcx98r7zzu++dkKdlaCo+larvPVN97vwVFaK2u/0s7D9iRAAiRAAiRAAiRAAiQQKwToYaZ+A6KRAAlEPgGE9iGhfLt27XS+qXB2hFA+5DSDIYwvUNL3QGMhnBM5z+CJZDzRArU1z9VfLjp8FB5w8I6qbEMuMXhyYX+oBBmOlWWNqJYJrzsk44f3V7iGuZCsH98P4bLhrhHjw1MNnn3wovOXx869BsxV2m/sHqOy78dNmCKobolwynCrW6I9+sFK65lW2fvh+CRAAiRAAiRAAiRAAiQQqQQomEXql+O6SYAESIAEoo6Au8JlaTbIBP+locW2JEACJEACJEACJEACJBCcQELw13xLAiRAAiRAAiSwtwicuKei5cdzFoQ9JTzROqIiJqthhs2MDUmABEiABEiABEiABEggFAF6mIUixPckQAIkQAIkQAIkQAIkQAIkQAIkQAIkQAIxRaBGTO2WmyUBEiABEiABEiABEiABEiABEiABEiABEiCBEAQomIUAxNckQAIkQAIkQAIkQAIkQAIkQAIkQAIkQAKxRYCCWWx9b+6WBEiABEiABEiABEiABEiABEiABEiABEggBAEKZiEA8TUJkAAJkAAJkAAJkAAJkAAJkAAJkAAJkEBsEaBgFlvfm7slARIgARIgARIgARIgARIgARIgARIgARIIQYCCWQhAfE0CJEACJEACJEACJEACJEACJEACJEACJBBbBCiYxdb35m5JgARIgARIgARIgARIgARIgARIgARIgARCEKBgFgIQX5MACZAACZAACZAACZAACZAACZAACZAACcQWAQpmsfW9uVsSIAESIAESIAESIAESIAESIAESIAESIIEQBCiYhQDE1yRAAiRAAiRAAiRAAiRAAiRAAiRAAiRAArFFgIJZbH1v7pYESIAESIAESIAESIAESIAESIAESIAESCAEAQpmIQDxNQmQAAmQAAmQAAmQAAmQAAmQAAmQAAmQQGwRoGAWW9+buyUBEiABEiABEiABEiABEiABEiABEiABEghBgIJZCEB8TQIkQAIkQAIkQAIkQAIkQAIkQAIkQAIkEFsEKJjF1vfmbkmABEiABEiABEiABEiABEiABEiABEiABEIQoGAWAhBfkwAJkAAJkAAJkAAJkAAJkAAJkAAJkAAJxBYBCmax9b25WxIgARIgARIgARIgARIgARIgARIgARIggRAEKJiFAMTXJEACJEACJEACJEACJEACJEACJEACJEACsUWAgllsfW/ulgRIgARIgARIgARIgARIgARIgARIgARIIAQBCmYhAPE1CZAACZAACZAACZAACZAACZAACZAACZBAbBFIKM92s3Nyy9OdfUmABEiABEiABEiABEiABEiABEiABEiABEig2hGgh1m1+yRcEAmQAAmQAAmQAAmQAAmQAAmQAAmQAAmQQFUSoGBWlfQ5NwmQAAmQAAmQAAmQAAmQAAmQAAmQAAmQQLUjQMGs2n0SLogESIAESIAESIAESIAESIAESIAESIAESKAqCVAwq0r6nJsESIAESIAESIAESIAESIAESIAESIAESKDaEaBgVu0+CRdEAiRAAiRAAiRAAiRAAiRAAiRAAiRAAiRQlQQomFUlfc5NAiRAAiRAAiRAAiRAAiRAAiRAAiRAAiRQ7QhQMKt2n4QLIgESIAESIAESIAESIAESIAESIAESIAESqEoCFMyqkj7nJgESIAESIAESIAESIAESIAESIAESIAESqHYEKJhVu0/CBZEACZAACZAACZAACZAACZAACZAACZAACVQlAQpmVUmfc5MACZAACZAACZAACZAACZAACZAACZAACVQ7AgnVbkVcEAmQAAmQAAlEOIFf1uTL/B/ypF3zBDm6R01JTorwDXH5JEACJEACJEACJEACJBBjBCiYxdgH53ZJgARIgAQql8DfmwrlqtEZ3klWbyiQ64akee95QQIkQAIkQAIkQAIkQAIkUP0JMCSz+n8jrpAESIAESCCCCCxbme9Y7fd/FDjueUMCJEACJEACJEACJEACJFD9CVAwq/7fiCskARIgARKIIAL9D6wpaclx3hWf0Lum95oXJEACJEACJEACJEACJEACkUEgzqOsrEvNzskta1f2IwESIAESIIGoJZCTJ7Lk11zp0DJRWjbiv01F7YfmxkiABEiABEiABEiABKKWAAWzqP203BgJxDYB/FNAkfojvobP02dvEikoFEmIDzxjqPeBe4rkF3gkMaH8+8pXa0wMssZAayjP2s2YefkeSUos/x7MeOGcse54pV3FlWPawqLiMcKZj21IgARIgARIgARIgARIgAQilwCT/kfut+PKSSDmCXy8OEfeXeDzdL3jwlqyeUehvDYnR37/u0AgbnRsGS+990+S8wYkO8SzN+Zly7xvlRvQHjukc6JceUqqudXnjN0eGTk+Q4wfLoSWR65Klwa1a8iYt3bLb38V56aqoUSY52+qIz+sKpC31Lgr1NzbdxWpuROkR6cEufzkNC1MZWR5ZNIn2fLTqjxZtaFQUpNrqCqK8XLFySnSvUOiY277ZldWkXz0Va7MXpon6zcXSq4Sm5rUi5c2zWrIwEOS1eG/BOOb83Lk0299fO69NF1qxHnkpY+y9No3bCmSeulx0rVtotwwNE2a1A/sCYVxZi3NleVrC2R3tkfaNkuQfgcmyYXHJcvNEzIlY7eCraxb+0S5fqiTI54XFnlk3nd58uGiHFm1vlB2qTHq1IqTdmqcgzslyrnHJleKgDbnm1z5ZkW+/LGuQP76t1ASlNDYvEENPeeFx6VIffUt3WZ/20T1t+SzI+vI25/nyBy1fyTwT02Jk/32SZCT+iTLUQeVZP/rn/ky9u0s77AH7Zso15xekom3AS9IgARIgARIgARIgARIgASqHQEKZtXuk3BBJEAC4RLYstOjxSnTfvy7u2Xpb/nKs8w8Efl5TYE+flqdL/cpwcjklurUKkHGz/CJGv9uK1TCVqoSlHx9l6ixIBAZ69AiQYtluP/7v0LH3BM/zpYps7O1MGTaQzjDsWWHR65QYtxNSnz7a6Nyc9pjEMJ+XFUk143LF4hZR/coKb5kKmHp2nEZSqjx9UP3jWq9OJb8mi+zvk6S289Pk0Z1neLPJvUe8xubuQQCY45AuDO2LcMjX/6YJ8v+yJeJt9aRFo2cLmcQup59L0sgvtm2cn2B4Pj+93wlFOZ7RUWIYG6D4PjI67tl5hKfeIc2OzM9ggT5OGZ9nSN3Xpgu+7ermL+WEBL52NRMgWBmW2GeR/5UwhmOjxfnyoOX15JenZ3c3d/2lmd3yVe/+MRVrPtr9bOB4+JBqTLsxBSH19ruHOfPZaN6zu9ir4fXJEACJEACJEACJEACJEAC1ZMA/y++en4XrooESKAMBCAe2WKZPQTevfihTyA7sGOiNKzj+08gRJDf/vSJS+i76Gen2DIggCcX2k6emeUQy/DMGESb8+7f4RDLzDucsebn3kd/+6kIwhZvfW5XCbHM2Upk6fI8uXviroB7N+1fmZXtEMvMc5whzE1W790244ucEmKZ3QZil/HAs5/b1xOU4OYWy+z3uF6/uUhueTZDtma4ILgbhnl/qxrLLZbVUp5htmXneuT+V3YLRMNgZotl7nb47guU4EgjARIgARIgARIgARIgARKILgIV80/50cWEuyEBEohgAoP7JcuRKlQQ4ZMzlDfV/GU+MeNDFdZ48aAUqVurhvYkO+bgJHnrM5/n1CLlRWQ8nCBeLV3uE9Aw3rEHB652mJwUp73I9m+boMMdp83PkQ0qfNJYrvJsatssXs4fmKJDHxf+lCfTPs/1imz/bCmU5X/lq/l9oZkPv7ZbeaDlmyG099fVp6aqcw35VYl7EKKylDcTDJ50b36aLecOSPG293dx1tHJckT3JC0SQcRa/KuPz+ff58odF9TydsOaEd5qG8I3L1ChjHXTRH5cXaDCO7N1TjW7jX39/sIceUOtyxg4XX1aqnRTnmT/bi2SFz7IkrWbijnB8+0RtefHh6eb5mU6b9peJN8rIc8YvN7GXltb9lVehQjVhbcbvONgCJ399LtcOfOoZNO8xLmmWvNlyovsgPYJqr1HXlDC65p/fN8WnoX4maORAAmQAAmQAAmQAAmQAAlEDwEKZtHzLbkTEoh5Aif2TpYbz1JKzh6DF9nwMTvlFyUmwSAAzfo6T84+plgcObZnTYdgBhHL5DH7SYlBCJk0BiEsWI6vW86t5c0l1qVNgkr4HydPvJlpuqt8ZXHyqMp/1rxhccjjgSpn2c9rCpXw5RN2Nm4rUoJZcZdtytPqs+99YhaS/I8fUdvrFYf8aK0ax8v1T2V455ih8rkFE8zOOTbFkUur536JcvKt272iHcIYd2QWaUERg85T89seX81U7q8n/5cuEL1gEPfqpdeQh6b49qlfWH+884XTS++ui2p5xaV9W4kcpL7Rmfds1x5u6AYBD0Ia5iqrQXy0xU3kSINYBuukco+d3LemykHnE0NX7RHPAs1389lpcvyhPrH0AJWnbchd2wUeajCEvUKIw9g0EiABEiABEiABEiABEiCB6CBQ9t9IomP/3AUJkEAUEdinifM/achHdmpfp+cQkuYb69w6QVpaObuQ12qTEq1gX/3sE6twP+AQn2CCe7e1VF5ftnXv4BRPIAAZscy0697BmS9s8w6fQAfhCPnDjCG5vB1CiucQgtq38I2BnGb2GKavObdp6muLZ7VT45SQ5Hz2n/LOMgYetp12RLJXLDPP3cKWXYESwtef//iEqcYqlxe822yrnRYngw5zfiN4y5XHIMLdc0kt73FSn+Jvh9DRYk8/57cx3zzQnPs0cTLCmt3J/hFSSiMBEiABEiABEiABEiABEogeAs7fGqJnX9wJCZAACWgCrV0ikVscObZnkso/5gsZXKiEsiFHJgvCM43FK+XNLZCYd4HOKS59zV+er9SaTpHNzmG2abtPLMMcCOf0Z+1VlU27IAA81vof5JrcX8c9z1JqFnuLmSaWRqc9vcxznPdVXm2lMQh4trVpmuAoqmDeoVKobdhDoMqfdrtQ16jE+YEKCf3ql3wlhBbKlp1FUuBckh7CSTrUqMXvsRclv3kbY3waCZAACZAACZAACZAACZBA9BAo3W8/0bNv7oQESCBGCNRR3kC2QTSxDWGZtmC2SAlmh3ZJlL/35NVCW3hyIfRwb9pOFRppW/3a/udHPjbbdqjiBRVl/213ikANrCIJ4czh3kO9dOe3MGPUc1XW3Lm7/HtAeO29k3YJwkwrw+BlZpv758p+x2sSIAESIAESIAESIAESIIHII0DBLPK+GVdMAiRQCgJIJG+bW+hAmGKHFgmyakNxGOCylQXy6bc+zyH0hRfa3jaEL9qWleMU0Mw7t7jUqK6zn2lXlnN9l8BVvAanN1iwcRvXc7Y1Ob/cfUrsoZTCnHs8eNzdOynTK5YhTPSIA5J0oYF2zRPk7/8K5clpu93dSnWfsdv5Pdw/V6UajI1JgARIgARIgARIgARIgASqHQEKZtXuk3BBJEACFUkAifRtc+fcwruBKj+ZEczyCzzy+lxfZUgk2+/nyrtljxfutb+QzGB9kdDftn+2OPdh3v271ekF1lqHCpq35Ts3a4A1+IoSIE+XKUoQzsitXLm/Au/BubdWrlx04cxlt5n9TY4Sy3xC6QkqR9rt5/uKQdQKXkjUHirg9b+unyt3frqAHfmCBEiABEiABEiABEiABEggIghUnCtCRGyXiyQBEohmAhl+Qvnmfef0FvMnbBx9cKLYyeptT6jeXROlVooz/G5vMHTnXvv0uzyBmGcbChjYCfKTEuNUdcmKW6tb8PrwKydLrMUWpuy14TpdcbNDSSFKrnRVpETOtFlf+wRK9GvbrHz/lrNirVNEPO0IZ063wqLSMdrl8lJEMYYvfnCyaK7FRayeRgIkQAIkQAIkQAIkQAIkEA0EKJhFw1fkHkiABDSBN+dlK/ElV7JyPLoa4tuf5yhhw5fEKl79F2+Aylnmtqb143W4nvs57kNVx/TXpyKetVbeWb27+kJBt+8qkjtezBRTxRIVLEe9sEtsz7Wh/WsKChRUlCG/W2qyb7wfV+XLmLd2y06VJy1faVLLVubLY1OdoY32erCOs492VsC866VMWfF3gV73towiuU/lGbO9ALu2TZT925ZPMEtzCZwzl+SqiqPFVFC58/E3Mh2I3Gt2vFQ3D7+WKT+tLtAFA7D3B1/NlG0ZPvESFVI7t3F6BLrH4D0JkAAJkAAJkAAJkAAJkEBkESjfbyWRtVeulgRigsDv//0j7/28VPZr3Fzv99RuvWJi39gkRJEHlJgB0SguzlOiIiLEL38hmegLIQ2iiG0Qi/ooD7OqsuvPSJVvVyjPsj0OU1+pyp2D78yTmklxWhC014XcZZcMSrUflfu6dmqcnHlUsqMowowFOYIjQelD/ipOuic98+gU+WhxrreIArziLnt0p989QOu78aw0h7efe7xw7nvsmyhf/ugTSrHeT5WnIfaDsFK37XTlI3O/R0L/4WN2CsJz3V5+aHvBcSkVKlS65+c9CZAACZAACZAACZAACZDA3idAD7O9z5wzkkClEIBQ9ui89/SB6/d/+VYfl74xQd5XAlosWNoebyiEzLnFnHbN4+XKUwILSkf1SFKih5PS4d2StLDjfFrGOzvmM8whWjaKl7svSZf0VOfCcq38XBgKIuCDl6dLSk2fN1iYU4Rsdt6AFF011N3Q8A015/+3dx7gURXrG/9SgYQkCCK9NwVEpPciggUbKIoV/4qooGIH670W7P1aKIpYrui1UWwgKAKKVEEB6dJ7DYT05D/vbGZzdnNOsrvZkOzyfs+zOW1mzszvnET35SsQ1p4emiAormA17zWUV850o66Nl2Z1PNtZ+/i6P7BHeWnVyPPfgxCua8Qy74qn+w7lCEJDncy8V3Zi2TnqvTm/o6cXndM4PE8CJEACJEACJEACJEACJBA6BDy/UYTOvD1munPXPn28cOkq9/mdu13n3CeCtFOzelU9Uq2arm2HNi2CNDKHIYHACBiPMmydDOKZsXD2OLuuXwXtnTTp++PuCokQYroq4WvUNRU9wgsND7OtVDFS2p0eIwtX5ye579s+PyTStDvR295nx0qL+tHy+hcpsmxtphxNzVd2qiRGSndVkGD4ZXGFrq04c4Yg9sLtCTJ+Wqp8qzzFDh9zeWhBXETIJgoiPDLhqPsW0VEFRTuIlRNHJ8mE6akye1m6O6wUnSBGnanErXsGxUstJRAGwzC3l4YnyqQfjsvnP6e7vcLgedhJeQyOVsLcvW8ededTA9OVm7IKiGxmLk8NrahDfWerPHImtBOi2wAlzP3fBa53zrTllgRIgARIgARIgARIgARIIDwIROQqC3QpqWmeSY8DHac4/RYtWyWLl60uzhDF7tu+TXOhcFZsjBzATwK+CGV2Q17asp2Ei2j2wQ+pSoQ57l7m7Uo4gkcUvIW27c2WLBVhWb9GpM/hcg++c1QQ9ghLjI+Qac9W1qGH7huUgR3kMMMHVTSTKhYUp0p6isgBlqyS4DeoHikoMjBlXpq89Gl+HrPLupeX+wfnV6S0mw8Eqi27sqRqpSipVtnTe87afuQbybJUiYS+WsfmMfLyiESP5vCEQxgoCjk0rBHlk8fg3f9JVqGw+fcd/0CSNFeiZUZmrvyzO0eHdjqF9nrcnAckQAIkQAIkQAIkQAIkQAIhSyCkPcy+/maOlJQnmT9P1Ah2FM38oca2xSGAEEur15j3WBDFYHZtTKhmOAln3uvvcccB71OFHs9/q4pORG/1LjunTTktlnUb4d9Yhd4oBC+CzRdzXDnLIIZBKKpRxbUQhCjimtUa13J5iZUGNzy/4t4X63Wyc+4+6HTJ5/MQYSsnnnih0+cJsiEJkAAJkAAJkAAJkAAJkIAmELKCGTzLyoJYZt4jimaGBLclSaAooayZSvR/mUryjy0MnmROfcJZOCtM9LA+H+TRWqI8mD6ckSpTlacUcp8ZO7+Dq5qmr2OZfuG2XbstW976KkUXHpi7IlM6nBEjdatF6sqWEMu27smrSKAWXlFVp+ynCivAgsEtGB5mejJB+hGMNQVpKhyGBEiABEiABEiABEiABEighAmEpGCGnGVGoLLyGdC/lz6sWcOVX8x6LZj7uP/2XXsLzAFzql3jNCnp+wdzLRwrNAgUFX7pLZRZV2UNvzxZPc6sPKz7B5JzZNTY/Pxb5lo/lbusZcOQ/PNolhC07WezU91VOhf9nSH42BlywCHXGSqLBsueVrnDTHEBX8ZEgQEaCZAACZAACZAACZAACZAACQSDQEh+I4RY5W0Qy06UUIX74ANx7Otv53hPhcckEDQCxRHKrJMoSjRDW6uYZm1vHedk2G9WN1oXCDgZ1urLGh+5QSXjPzVSeeF5euBZ+6Ka50sjEgTbYJp3ddBgjs2xSIAESIAESIAESIAESIAESKAwAiEpmHkvCEn3T5RYZr037gmhziqaoVLngIt6WZtxnwT8JlCUUIYBA8lBBiEMn8LCNM1kQ0E0q1ctSleJNHP2V7ApFxshTWpHy55D2QKhDOGG56mQQpynuQigsuTNF8VJX8VlxcYsWbs1SzbsyJKaKpdZs7ox6hMlpyt25cOIWSvlXYjqoMYo3BkS3JIACZAACZAACZAACZDAyUMgJKtkeif7P5HeZd6vBsIzrYJZzepKRKNg5o2Jx34QcBKzzBCBCGWmr/f2RN7L+948JgESIAESIAESIAESIAESIAESIIGySiCyrE7Mn3mVhneZmV9p3tvMgdvwIfD87CkeoZHWlSFP2ag+l2kPMev54uzDi2zi1cO1t5rdOAjTxJxoJEACJEACJEACJ4ZA8vFcXfEXVX8nz0o9MTct5l0OH8txz/mznzyrJxdzaHYnARIIMoEjx3IlN7/OVZBHD+5wew/lyLHUkpvsUTX2/iM5wZ00RwsrAiEZklmWqmN6vw1leW7ec+Vx2SIAby+EYnpbYQn9vdsGemwNv7TmMsN4mBPmZm0T6H3YjwRIgARIgARIgATCiQC+0N/ywhFB4ZkPHqmkK0aH0/q4lvAigMrwE6Yfl8a1omXi6CSJyM9A4fdCUZjpt5UZ8t0CiOQR8txtCX6PYdfhr01Z8t63x2XdtixJTnGJZdUrR8qZDWPkrivi5JSE4vn8QCB744sUWbU5S/YcdIllSRVdaVpuvSROzqgXkhKJHUqeCwIBvg1BgMghSCAYBNbYiGUY93TlWbZmz3aBcFaSdnq12jJFCWN2hrldaneB50iABEiABEiABEjgJCbw/cJ0QdXtnq1jKZadxO9BqCz9z42Z2rts085sgXdVYpz/ihmErO8XZsjMxWkCbzVYx+YxQUHw7YJ0eWnyMXeFduQVzszMld1K2Np9MF3l082UZ4Yl6Py5gdzw7y1Z8tC4o26vMuTqjVJiN9axZE2mrNiQLA9cHS8XdioXyPDsE4YEKJiF4UPlkkKTgJ13GVZi9fgqCS8vXwoMOM0tNElz1iRAAiRAAiRAAiRQfAIIa/vu93Q9UP/O/IJdfKIcoaQJDLs4TqokpslZjWP8Fsu+mpsmU+enycYdyrWsBGz7vhx57r/HtKDXoEaUPDokQXnCRUl6Rq4s/FsJZR8dE3h0PjnpmPz3sUp+e8dl5+TKY+8e02JZxQoR8ugNFaXd6bHaO3Tt1kx5+sNjsm1vjjyv5tCmabRUrxzc6u8lgIxDngACxfNnPAET5C1IgARcBCCc3TT5bR0eGSwmCLVEjjIKYsEiynFIgARIgARIgAROFgLLN2TJjn3ZcmpSZNA8bE4Wdlxn6RBoWidaHrquYkAeVO9+c1yLZQjjbK0Et9HXVhR/K9QXtuov56RqsQzVyd+6J0ma1YmSKKVWxJWPkN5nx8oTN1XU3bfuyZbfV2cUNpTttd/+ylReai6xb8wtCdKtVayq8i5aMGvRIEbfE8fZKkrzq7kuIdx2IJ48qQhQMDupHjcXG0oEUA3TzoIhnEEo0+KbEuHsrKTDP+3uyXMkQAIkQAIkQAIlQyCzZBxCfJos8hwFmmC8uPNWDiWCT2EGr5Oi2jj1/+Y3V4GDC1T4FkK7fDV8IS8Nw7Moynxp4zRGZlYRsJ06Ws4X530JBtdgrMGyHJ92i/ue4ybFeW4+TVI1gjg29KI4+d8Tp8ib9yTKRV3KSUyQ4tXAAOHNMIhjifEFf586t4iVaqe45Itpv/ovaE1R3nGw2lUjpW2zgiGklRMjpcdZSjFTNl21DfTvlh6AP8KGQJBe8bDhwYWQQJkhYA2/tIZlmgniHD4Q1qxtzXW7bVHhl9YCAxDUaCRAAiRAAiRAAmWLACrGPfXBMTmgElcjvw/CimpU8fw3cAhA0+any+I1GbJ2a7b2qqhUMVLqV4+SweeWl25nur4UWlcGT6l/TTxmPVXo/jv3JaovywW/1KITQqgmfpcqf6zPlPUq31G0aod733BeBeme94XUaXB4gHw6O03mrsiQfYdzJEHlWGqiEpT3VF+iB/Yob9vtURVmtftAtvRtX04G9iwvH35/XBavzZIN27O0hwq8R7q0jJErern6pynnlE9nH1f5kLJk1T9ZkpmlvkSfFiX92sXK1edW0B4ntjeynMRzmLPc5eXSv3PBeX3yY5r8tCxdmtWN1jmRpsxL18frt2dLmuIDT5+OZ0TLkAvi9BwtQ+uQM3jRxCvPmlfvShQ7Lc76vCBcXNbdNYePVFL3X9S86laLlMdvTJAflAgxY3G6TqB+XM25ibovwvFu7h+nvWtwX+SNWrAqQ5Df6vDRXKmmEqxDULj90nhBMnQnw3s2e2m6YG1gnZKWKzVPjdJrO79DrPbgseuL3Fn3vJGsLw0fECct6kfL+9+nyrJ16n1RfFBAwdf3Be/JtF/TZLVK4J6q7t+wZpS0VWF2N19YQb5V4bLfqbUZFnZzCXQNdmP5c27h6kyZpditUb+fW3dnq99lkVqKHcQkCOn6AAA+1UlEQVTXAeo9j7GJBrRye+CailJJiUrjph1Xv+NZKpQwW6pWipQz6sfItX3LOyaun6Q4z/8zQwlSkfLKHZ5J+jfsyJKXPj0uCSpc8eHr4wsk1x//QJI/S/Sr7b5D2e5qmB3U74WdwbOt/Rkx8s1v6bJN/X74a5t3ufp0bF7w758Zq5MS5WYuztD53VD9t7gFBsy43IYuAfu3MXTXw5mTQFgRsAphdqIZFms9b21vBeGPUGbtx30SIAESIAESIIGyQwBCy4PvJCthwyUEjRmWWEAsQ/LqJyYdlUUq54/V8OVv+QZ8MrVnCMKprJahRKM16ou3r5bj4CWF5Ny3vZyshI/8sTKzc0Un2x5/VO4YGC+D+xQUmHDfnfuzZdiLyYK5GkOVvKVKSMFnkRIZHrkhXolongLhxh2ZOvdQpYQI+VGJQ97rWPR3huKRob6Q58iA7hXkAcUQAovV/tmZpcSHLCUyZsobIxOtl2z3Zy1J18IgxCd4rHjbLiX8YR64578m5ihhyTOEbNU/mUqsy1TPI0ueVuFh1uTr9ZS4OFOtAwYRC+Fv3gahyKzzfpWk3Bj44/zhY5E6JxMEM6th3fhsUut9ViVPf+3z41pwsrbZdSBHixK/qhC2jx5NEoitdvb65yny5S8urx1zHc8Qnzl/pCsRr5zcqZ43hF2rZav3wcx9pRIs3/raJfqYNhAwi3pf4P0zUVVSnPSDK4zP9F27LVvWbkvVCdyrKI8h3Cc7x/krb6BrMPfzdwsvuHHTUmTyLE8PpuMKI35n1n+RpQTMNBl3f5ISNJ25wbsRYqWpIol57FH5vfYcSteVK0dfGy/9lIDsbbuUsAwmdkIQxMWVm1x/N+b/FSsXKyH2RNmB5HzvRIQ4OxmeKWyvEtP9MbwvKM4BK2z8ypYKnMiXZsfJn/uybegTcP7rEfpr4wpIIGwIQAjDB6GUVoHMLNB6ziqaFSWUob8/HmrmftySAAmQAAmQAAmcWAIIWXp4/DEtlsHT4uHrKypPsYJCyoNjj2ohBnl/Bp9TXrq2Kic1lMfQPOVVgjAmiDTw0GivvHD6tM33tECo0/O3eXqcWFcIjxgk/Yahn7cIYtp+/nOqrhYJUayr8mSLjooQiEvaa+N4jkxS3l+oQOcdcpV8PFfuf/uoFsvqVouSuy6Pl+YNopXHU45OrP/Jj8oz5q8M5bkWJSOviDO389j+vipTe8cMuyRO2jSJEQhoEIfGT0vVXnbvfpOq1wBR8Zq+FeRctQ542sCbC/mZ0BZeTj+q+fZtV7hYAK8s2EVFJPtHIvPt+zIERQG6n1VOGlSPlA0qafrHM1O1KIT7/efLFHlEPU9j53Uop+eDL/k/L8uwFczwPGEQ605XXmzeBuFsxqJ07VWHCoYNakTLduWFNPG74/odwvMc9PhhLSLgPYJnXfUqUbL/cLYSwfC80uWQYj9heqr2kPMeHx50RizD87y0WzmpWz1aNikvpS/mpMnPf2RozzOIX8iZ5WTjlYcUErD7+77AOwteaTC8u3jmZ9SL1knhFynR8zPlpYhqjoVZsNZQ2D28r02YflxwX9glXctLL+U52VK95/DGBHMIq0iq/+ZXKXL/YGduX6vfRXiW/t8FFVSC+lhJV5UkkRh/knq+GWp/zIcp0lx57vmTYwy/r/g9jVfPo02Tgu+U91qCeQyPWWMIjXSypDzx9rjyJoRHI7wwfTEIiyZstfDx88fbdyRXmvkyONuENYET+5sQ1ii5OBIoeQK+CGcQz0z+M6uQ5j07CmXeRHhMAiRAAiRAAmWTALxSHn8PXmMukWTkFfECUcXbNqvQLghisAeV19G5FtEHgk3bZtFaJIEQA+8Uq2AGgQ1fmO0MnitjVIU6GASaUSoczMmQpPvpoQmq+ly+mHdmw2hpoUQBVLdDKCO83EyuIDPOI+OTtXAF8ePdB5N0om9cS4yLktsujdMhahBIpsxL0+KKyWVk+mOLPGJP3pygw7bMeQgG9ZQAN/SFIzon0UHlyQLPp+GX5Ytu1ZWgWDUpXq4fc0R3Q3LwwgSzf1RoFzygdDLyNgWfg7m32SIUFYKOsVpqTp2UiHXfW0c1i5lK2Lrpwji3tyDm06pRjKxQnOYo4WnkoHiPsEx44K3c5BKDrM/YjG+2N55fQW5WOaeMYdyWDZPk6icO6XBXeNw0qBktz96a6K44CK4I64OnHQQzhO89YPFgw1gQLt+ZmqKHvV6t7VbL2uBxh8+r/3N5n32vwiIH9qygE7ibeVi3gbwvCKOcpEJ+YQhDHKdCBY3XEMRWvHsI6URVRScL5hqc7uF9HvnywAOGENr7B+d7BuJ3D581Ww/rQhI/KeHs/sHeI+QfY91vjExyvzO4AoGsae0oGaVEc9wLoqy3J2n+CAX3EIY79dlKfuXjKzhKYGfwrhmLjckXrcw5s61QLv/aEfV7EF/eJnbVNLZsD1rGLyzvmvf4liG4e5IScJZvT1IgXDYJhAIBCGcTrx7uFsa85wyhzEksQ56yUX0u88h7Nnfjavl98zrvYXhMAiRAAiRAAiRQygQgbo358JjMUyF4MAggJheX99QqqBCu525N0J/uqgKct1WvHKU9r3B+bRHeN6YvxDrkNoOHBr7IInwQQpGTDe5TwUMsM+06WfIG7VAhe1ZDKNof610C0K0qb5bd+Nf2c4lmSMo+e4mLhXUM7HduEeMhlpnryCMGsQgGgeY6NZa3QThC/i3YVuWJVZhNVzmzYH3auKrsFdYWa7GKZaYtPPRuVUIgDIxNAQFzvV971/ODqPWXCsu0GkIlIRrBnAQzeG3dpPKUeRuqAHY4I//duL5febdYZtoiZxpyvsFwf3jzWA2eZXgvkd9siBLl7AxrRi4szPM95b3nZIG8L0uUmLclL4fVoF4V3GKZ9R7wejtbeRk6WTDX4HQP7/MZ6jFCfMTvKIRGO7ugo0uAhcclvASd7ErlPeqduxBtIboZsRrhuAjj9sf8KV7hz7hFtcXvgDF40Abb8L4aK4nxzdjchh8BCmbh90y5opOIgPY4Q9J/h4qaVhRGKINYZq2C+cqc6TJp0RwZv2CWfLj4F2sX7pMACZAACZAACZQygbenHNehWpjGIJW0HiFYToZk7d2UUIaPU8gkktvDkCDdFxs79bg7r9Hdg+KksUrAX5g5hTshBBNiFQxeXlabrwQgGL7IwvPKziD01FdhhbCdKg+TnUUV4mwCjxxYk9r54pn3GAiNg1m9XbzbIDQWSfRh8Norygr77g/POyPSIWm71c5pqyoQ5q3nJxWWaTUjnmIt8KSyM4heTsKAYYF+PVSYqJ3BI9CYlQcKJixTBRVg/dqXL5Bny/RBqFwfVUQBhqT0ThbI+7Jld/54ffOERbvxzfvgzSHYa7C7t905eC+Z3087D0n0qWXJh+ctVFrHjPRelOWiEd0QgliY6Gbpwl0SIAEHAvl/CR0a8DQJkEDZJmDNWWbnVWatfOm9kmPpabJy1zb36SXbNsoN7Xu6j7lDAiRAAiRAAiRQegSQz8gkR0fi9dstYYSFzQpflJH8/hfllYbE1XtUBTokFYc5Jet3XfX8ibC1ybNcoW/weELOpeKY+zu+p14mu/I8ziCoPTLhqOMt9qhE+rCd+y3uKI6tPS8YgSGymO4Cv/6ZLsiBBqGqZUN7cc/zzoUfwUsISfK9hQ14Z3VR3kKoeGkNy4TH0OK1LoGxsLDRwu4aIfkPIDIC+wVlPcPLe5y96l1CuB+s5qmFw6xzGr5qpru91Ow8B/VADj8c3xdVlACG96VKIQniHYZVvxMnbg1Oc0ARi29V4v4d+3NVeGy2yt2Xq732cq2uUE6dizhfQ+WiM7ZHeak5iaqmTVnb+oogUG84X8e3q05b1lhxPiVPgIJZyTPmHUjghBAw+c1umvy2x/3gUWZsxc7NsuPwQWlVq77UTqpsTnNLAiRAAiRAAiRQBgkYsQxTQ96qd6amOia8N9NHn9Eqh9H+vCTa0eq7c5JKbF/7tEgli+SqpO45kqwi5Ir60ogv2s+oUFAYcoA9cLVz3jJz70C3Jr8QhD4kPy/KDiS7hLOi2pXE9W/ykv374l3my/1N1T/zvKx9kKcOgpkJy0RuMFQ/TVeiGcSkc9oWX7Cz3s+XfQg7xqomFRTazDVsKyfmX0flzUa18oUcazt/9w8edc0BYlkgokZpruGoyuF335v5VVox/wTlfYnCHPCIS1HXkTMQVtTvqBM3q9fePj+rSTqNWdLnrUVAUj0Lu3rcGgUNjCEk2FfzHD9/DO/+KFJhDEVDaCRAwYzvAAmcJATmb1ojExf+pFc7deViGXPh1VI+Jj+HxUmCgcskARIgARIggZAigBAufHNG2CIqUJ6tqtd5J8w3C4I32YPvJOuQR3iV3KY80pA7DKKZsRcnp8jU+WmO4XpoB+HqMVVkAHmUENqJvGXWZNhmrGBtEyq4PJUgsNx7ZX4idKfx48sX7tnk1K+45yE+LFLVJeHZZFd0IZDxDykhFJYQV/DLeeeWsToPGEQWVJ2EYGaqYyJ8FDnpTrSdpooCGEOVwsLsUJ6whTYIqQ2WVc4TMgoLWSzsXqW1BuTpenjcUV2NFd52IwbEyTkqD15CXD5TVGh94n2XUO32sCtsMTbXUFnWmFUoMufK4tb6LiMEuI4S+O3soMqpB0PIb3n1t8lXg4iIv4P422YNMfbub63WacRs7zY8PrkIUDA7uZ43V3sSE/h7z3b36jOzs2X9/t1yZo267nPcIQESIAESIAESKFsE2jaNkadUxUmE4f3fM4d12N6zH6dI0zr2ebhmqS/byA+GL4ZvjExUHj72XzqLWuU7U1L0l3q0u/fKOGlQo2SFmbp5ebgQ6ti1VX7urqLmeaKvf6cqHCIasZsKlQyUrfec9+V5E1nD6Ewb5DDroyqdojIowjLvGBgvv6owWVjf9va5x0zfktpCbELxB3j6wGusMNudl2sOwo+pYllYe1+v1cgrzoCKqxDN/A31LK01rFOFNowH5SPXV5SerYOoIlrg7bV4ldkVBrA0LTO71pxuRhSzm5zxxPQ3FBeefHgHEfrsnUPReh94cxo7Nalk/+6Z+3BbtglQMCvbz4ezIwESIAESIIHQI5CbI1Eqb01kroqryM1UITPqn3TVOVoJEYiIVF/i1f/YR8RITkQ5yRb1RVqdo4U+gU6q6iNEkxiVz+rJmxNk+CtH5OjxHHlceX+9fW+Sh+cYVrt6iytUEV+SnQSdHFNe0QHP/D8z5LOfXAnPLlCVBvt3Ll7eMofbeJw2OZbggbNM5efq6JD436PTCT5AeBwEM9hFXYIjViF32da8ao+1HPKB9VPCGAQzCAUfzzyuq5Uid1Pvs0tGbCkKK4SHuqpwxIYdWTJX5ci7WVXitPOEwrPEdRgKCDgVoSjqfnbXrax+Vx5/8NKyM6eQxtJaw+rN+fF+LVXBBzvLzfXda8quP879vsrFHc/FVId1altWzp+qinLAizU1PVcWrMqUXjbvN57nMpX7DVbPodhFYeupq0LLIZjhnXGyJXn5AeGZx5BMJ0on13n+39TJ9by5WhIgARIgARIoMQIRShyLyTks5XJ2S3TOISWYHZdIUf9jSrGsxJjrgRVfcAZvcAd/PAc8D1r4EGheP1pGKA8jGL54j52aUmBxsXnfwbftzZFNO13imbURvmzOXOL6Mq2yYFkv6X18mRzzkWtceJXdd1XR4ZEFBgngRMczYsRUbnzjixTJzLIP9Vuovuh+8qOrCEEAtylWl+UbsmTHvmydl6tzC3uBxu4GqMi4ZI397+Ins9K0xxr6QRizM1TSNKLHBz+4hMy2zWLklITS+xp3TV9XpVa8Y7OW2iecgrhoChlcqITXYFqHM2Ld4aj/VSIiwuy8bfmGTPlzo0ugshPOSmMN5ZRnnrGfvSqf4jxCft/9RiUYzLMcu4nnXVugRDFUbPW23aowBgp+wLq2jPEI9/RuW5aOEeZs3pM5f6QLwpC9bakSs4xX4yVd/X+nTB8I1RjL2/CPEfDkhF3UpXxA+fG8x+Rx6BMovb+0oc+OKyABEiABEiABEsgjEJ1zRGJz9mnRhlBKnwDEMzwPPBda+BAY1Ku8O3/Zp7PTVF4z15c7s8KzGud7rbzyWYry1HB9qf5nV7audon8ZkgYD0tJzXGLNTjGl+/H3j2qPdhioiNk1DUVtXCFL5F2HydRC2P5awipG3mFS5zbojyubn0pWTbuyFcDICTA6w3zf3vKcZ3Py997FLf9N6qiIez8juV0DjNfx0NFydHjktUX8XQdWot+ENGwDniOwSDANaub/+z0ybwf8BI6v6PLy88wP7ed74Kddaxg7fdV92/RwFVwYIwqDIGceGZuCNX8Yk6avKRy5cEgghS3uqr3vBFyfF0/l2i3dlu2TqIPkRiWnJIrCE1+aNwx95y8++O4NNZwZqNotwiD6rPfK1ERv1t4vyEw3vX6EV0x1cz3qMoh6GQQYf898ahsVyKuMRT8GPFqsltIG3JBnLnk03bz7mz1O3ZUnlbPFPMKtq3clCkj30iWlz49piqtFhx9UG+XSIXceCNfT3YLrmi5Qgmgj6v1wmqqkNyOKjejtxU1fvezILS65I9HVTVehMcaTRJC491qbvBwgwfiZd38F+S858Pj8CBg/5c5PNbGVZAACRRBoGK58tLstFqydu8O3bJ1rfpF9OBlEiABEvAkAC+maOXNpD3JPC/xqAwQiMpNkYjsDMmKrCS5KmSTFvoEHrouXtZvz9KeFqhi+f7DlcTk/0GoIMSCP9ZnCTxs8IHnhvlyiiTZzetHaQ81RGaiYqZJgL5kTYb8vcXlkQPx47aXCxdbkU9rcJ/ghWsiBOuG8yqosMNUQa6nISpnG8Ki4lSYlvFUwtMbrgoZnOhwROTKmqOqVcIu8jNEFSG1iapK6aPvHtMhtAiX3bk/Vz0TlxiCL/8jBxUubPRtHyuTvnd5HiF/WEnlvtIL9OEHRLx/3RivCkMck7VKpEEhidf+lyLILQbvHePx1UF5Do66tmSqq/ZX7/qStRnaI2ip8py8+olDUlGFLkNsgQgCERZJ2605qaxLK401oNrsDedXUM8yVVfCHPPRMY/fT8wPRT3w+wuDkOZkeG9QQRUf5OYCc1TSNXbjBRXkjHr+fdWfOj9dflvpes+RPxEh2cE0eFTCs2vpWpHebcoJ7mG12lWj5M7L4+TNr1x/A6547JD2JDyehsq+rt+XShUj5bEhFd3Co7V/UeMjlPlR1ffh8aqgiRJW73wtWRfViFPvDaoCw/D38u5B8VqUs47N/ZOXAD3MTt5nz5WTgCZwb6+LZPDZXWVIh15yU8dzSIUESIAEfCYQKRkSm3uAYpnPxEqnIcRM13NyfREqnVnwrsEigIp6KAQAIQZfIv+lvC6MIIYvhC/cnijXqpA5eInBcA1fAlurCosTRye5PXNwzSQgx77xtMB+admwS+J0bjaEn+r1qS+1EMsgfiAM8fEbK4oJpTuRc4QICc88hEciD5I/BoHrg4eTdMhlVFSEwBMKYhnOd1XFAyY8kCQQCgozCC3GA62zymuHCoGlbRBsxt6fJFefW0GH08JDEfnYINwkKAECz2mMqq6Kd68kDO/HUyqv300XVnCHp0LYhHcQ3vX31bteP69YRWSES2zxnkdprAE530YrEdHkGDS/u7WrRsqLwxNkzLBEd044u7BBs4bLe5aX525L1MIO8tsZsaya8qBCQYGhFxUuwppxrNs2SqyDqA5RCnnngm0QUPHcUBGzSS378Qf1riAvj0iQRrWi9LsDzy/8nUN+s3anx8i7o5L076Hd3HwZ3/V3sJL+e4LKrQj9hFgGr8XGak4vDU+UAT2C9w8BdvPkudAiEJGrLNApp6bZx6wHOp6v/d5693OPpiOGDvI4PtEHZW0+J3r9vF9wCDw/e4ry9NrpMdilLdvJpWd28DhX1MFNk9/2aDLx6uH6eMKCWbJg8zr3tVs6nyud6zd1H5sdzGHKX4s85tLstJoyqs9lpslJucWfyuTkZL32xET8z0zp/8/qSfkgAlh0OD27GbN/lY3/bNOf4UMHS6MGdQTnZv70mybT75wucl6fru5zuI4PzgXb4FkGEYb5yYJNtgTHU4UAMiKq0NOsBBGXpaEhXOxQ3j6oItioZpQWaMrS/IqaC4QEkxAfCb4hhJSWDXvxiPbKe+i6iqoIgm9eNy+rkNiv56ZpcWvGy5X11OFUtmNfjnomOUoQiC5QtMFpfRDYBjxySFf3e1qJpXYJ0Z36nqjzEGwgBp6SEKEFEQgQJ9Lg2XZUpbdrUN1VxRP3vvbJw4IQX3gkQmQuynxdw3n3HdSebEWNZ65D3LrnSs98gPgGvudQtvLyzBVUiU2MK/oFx/wuGnVID3vn5fFy1TkuYQfhk/hdqVElWufYM/cNZItw4RilZZWU0AkPQHiN+vK/0fB0RZ48iGW1VaEJX/4G+DM+fh+3783WYZgN1d9I848MgXBjn/AlYC/thu96uTISKLMETleilLdgNnXlEvd8/RXO3B3zdlrWqOsWzCrExAruZzU7ocxc925rzof6Njs7W/75Z5OsXbtOEhMTpEmTplK9enXbZe3evVsaNWygr+3YuUtOOeUU23beJ9EvM8M3r45y5cvLaaed5j2EPj506JCsWLFCeQDkSqtWraRKlSq27bxPHjt6VH5f+LucempVOfPMMyUqqvD/g4UoeOTwYe9hPI5PrVpVKlRw5Q7xuKAOtm3dKmvXKV97ZU2bNpO6devq/ZL44evaAn12hc15q1pnSa7N7t5WYQzXN2zaqsUwu7aNG9bVIpoR19Am2KIZwjBFXCEMdnMo6tzu1St0k+rNzyqqKa8Hi4AqDhCde1gyo6oGa0SOE2QC3UYoEZpWZgk8+/Exwacom/9Wwf9GB/psMdaClZlaLIOnHTzMAh2rqHmH0nVwgVAEj0sYvMWsBnEJgjEMBSxgpcXty1/SBJ/imN07VZprKs5aQq2vneAZamvgfAMnEJKCWc3qVWXn7n2Br7oEe2JuNBIIhAAEsTXKu6ukRDN4kyWVj5MdRw5Iq5r15JQ4V06JwoQyrAPeZcUV6wLhUdJ9vvlmujxw//2yZcsWj1tdeOGF8sKLL0nDhg09zgd6cN55/WT9unzPvsLGOffcvjJt+nSPJjt37pTrrr1Gfv/9d4/z7dt3kI8//ljqOAhSixcvkgcffFCWLF4sEAZh5ZUg98ijj8l9993nMZb14JWXX5YXXnjeeqrA/mf/+59cfPElHudXrvxL7rn7bvn11189znfu3FleffU1aXVW8ESRQNfmMbEADvbs2SOf/Pe/ivtHEhkZKYuXLA1glMC7QPyCGc8yMxKEMG8xDF5lL495QHuivf3up3pr2gdji0TyxclZtvyLD2T5lx/pqbS+/HppfcWQYEyLY/hAAM8Nzy8rMsmH1mxyogk4fSk+0fPg/YJPINBnC0/BD35wVQZFJc1yKmQu0LGCv6rSG/H3VZk6HPlhFX7ondMNHnmvfe6qnokwZYS+woLFDaGf/gRpxarwaDy3krBgrakk5sYxSSAcCISkYOYNfueufVKzRukIVbg3jQSCRQBhj1NVOKTVs8yMjXP4BBKmacZoXr224GPM6V7menHuZcYoi9uPPvpQbh02TE+tf//+0rZtO/nzrz9lxg8/yHfffSfLly+XJUuXSaVKlYo9/X59+8qZLVsWOs6iRYtl+/Zt0vJMz3YQy7p17SLwkDrjjDPk/Asu0ONgnhCNunbtKr8t+E1q167jMf7GjRtl4IABcuDAAenYqZP07NFTNm/eLNOmTZXHHn1ENm3aKG+95Rm6awbYtWuX3sXa4+Ls8194e5dh7n3PPVeOHDmi+wwceLnUrFlTvp7ytSxYsED69esrC9Ua69WrZ24T8LY4awvkpunp6fqd+Fi9MzNnznSLjy1atAhkuGL1MYIZxDBfzbQ1fX3tV1g7hGIikXygBs8yI5ZhDLNfUqJZ+rGjsmvlMj3d2md3lGhV7MTODm3dJEd2ukTJ8kmnSPUzWtk10+ey1Hux/Y98EbvWWe0lpoLr98U6DhpHKHEV4yVWryUV1NZXy8nKkiO7tsmhbf9Iw8691UCFf9nKTD0uO1Ys1sNXadBEEqp5ehFb74vnl50bx9BMKxTuk0AZIoBQNOSXW7M1W+atcBVjQIgjctPRXAQW/p2pwyIfVZVdu7eKldZNYqSuCtvbeSBbvl2QrosRoOVVqjCFyf8WLHYoLqD+KAdrOI5DAiRQhgmEhWBWmny379rrcftaNUtHuPOYBA9CmgC8ufBxErOCIZw5jW3AwavsMjUHbMPN4CUETyjY+AkT5Lrrrncv8fjx49KubRstLj0zZozyNHvRfS3QnRdfernQrrhn0yaNdajk7bfd7tF23NixWiyDMDZ12nS3gPWo8hK77LJLZd7cufL222/LM88869Fv4ECXWDZixAjtLWfyrf38889yubr2/sSJMnToLXL22Wd79MOBEczGjh0nl1x6aYHrdicefuhhLZadfvrpMnfuPKmY4MoTMvqhh6T/hRdo0Wz06FEyefKndt39Olectfl1o7zGg664QmbN+lEfVatWTRo3blzAiy6QcQPpg/xkCLX01wLt53Sf6GKIZRhz+Zcf6qHhWeY6/kiLZiUlmK2d/Y0s+/Q9fa8uw+6Vpr0v1PvePzbOmyUrv/mfPh1TvoJcNfZzR3Fty8K5Mu+dfE/MAS9NlKRarmdjHcd6D/we1lTCWschI7R4Zr1m3U9LPiK/TXhFCXILJSfbVSmtQadeSi8r/MvZ0skTZM2PLg/VTjfdJaf39fQCtd4D+3iOmRHF/0cB73F5TAIkUHwCSHJ+75tHPQa696p4laOqhDLoe9wpNA5GXhGnBLJIef2LFJmrREV8rIYcXFeqBPK3XESR0cqF+yRAAv4RCMm/uh3bev7L/tffzpHS8PTCPRcvW+0fcbYmAR8JaOEMSf/Vx84gnCHBP8QvXw3hlygugL52ZpL7w9MtHMUyrHmhCm2ESNWsWTMPsQzX4FE1YOBA7MrChQv1tqR/fPjBB3Lw4EGBV5Y1vDIzM1Pef/99ffvRSpCyenvBw+shdQ42SbWBF5SxTZs26RBQ5Cx74smnPL5k9+7dW66//gbd9PnnnzNdPLY7d+7Qx7Vq53siejSwOVi4yMXqWiU+GrEMzRAC+tDDrnn+rjzNimvFXVsg94dIMWjQlTJlylTZsHGT/N9NNwcyTFD6IOzSeIz5M2Cg/WzvoXJgReYet73ky0mEYsLDDHnLIJDhY3KY4VpJ2IZfZriHte67T9rsZKalyubff7G54jq1fm7+mE6NIlW+wHodukvddl3llDoNlKdZlOxYvkhmqFDZlAP7bLvt/vtPmTrqFtm65FfVPkJOa9pCmvQ6v0jvsr1rV8maWd/Yjul0Uj9H9TxpJEACJUMAhRa6nxXrDgf05y4xqpomxDFUm2zVKFpVPk2QS7qW92eIk6Itqhl+8ngleei6eLm0W3lp2TBGF0S48YIKqiJsJRkxMC6sErlHq/cC7xQ+tVRVTRoJkEDJEwgbDzOIZu3bNJfaNU4r8fBMI87hnt7WoY2nmOd9ncck4A8Ba+4wJ5HLet7a3nofX/KUhbJHGQQjeE1NnjxZJfH/R+rUqa1zZj344Chp0KCBFYU0btJEe5bVrFnL47w5QPjiq6+84va0Mue9t+++O0GmK68v5O6qVau2dFKhjw8/8ohfYZzILfb666/poe8aOdLjFkgqv3//Pi06Qejyth49emgR7bBK0L99+3Zp1KiRbrJkyWK97dixg4fIZvrfMGSITJgwXn6dP9+c8tgaD7Natez5eDRWB8jhcWD/fn0aDLytcuUq+hTCNbFe76IDODdjxgyZo7zffvpptqSkpMjpKvwUHnAIl7VacddmxvLn2X319dcF5mzGKcmttRqmr/cxFTK922MsmHeeM+92vhxHSb4460t77zbu8MvLXcItriP00YRpBtvLbO+6VZK8a7tERkcrb61sgbCE48QaRQvCENca9zzPewlybN9uPd8CF7xORMWWk973/Mt9Fv3mvP6U7N+4VmY8fb9c8O/XPEI0szPSZe6bz0jq4YNSo+XZ0uWWeyXhtBru/k47CN38dYLyZEXJNT8Nz1PVH/OzF5uTAAn4QuCy7uUFn0AsMT5CPn/S9xDuQO4RLn2Q7B+f/p3DZUXO60Ao6LPDXF78zq14hQRIIJgEQlIwQ74yiGPe3l04Xiyl5/GFOdFIoCQIaG+zIsI0ne4LjzLvQgLWtqGepywnJ0duuP56mT59mvamgni1evVq+eOPP2SKEjsmTfpAzjtfeWjkWfPmzQUfJ0NfWJ9z+zg1kaE33yTff/+9TvwOLyqITBBzZsycIVOnTpP69es79rVe+OqrL3XRgS5duqg8am2tl3QoJk4gDBAJ5r0N51BRE7nJdlgEs9WrXPN3qvZpihkgvxk87ayea2lpaYJqnDExMe5qncijlpSUJPHx8d5T0MfwwOrVq5fO8zVt6lSdV83a8Gu1RliPnj1thae7R94l773nCpdD5VHMAYUYkKcN3nDjxo93D1ectZlB/H123gKfGackt97VMH2918yfftNNvYUxp/O+jmttF5kbuGD2w1P36aHgUWa8ynDCiGQQ0+BlZo6t9w10f8OcGbprnTadlBB1SCCgQQhrM9jZU/CUOvXl8PYtsnvNX3J0764CotXGuSpEV4lTles1koNbNvo8tYpVq0uf+5+SL+66TpJ375CV0z+T9tfd5u6/+oev5fjB/Tpc85x7n3DnRHM3cNj5c8oncmTHVqnfqadsXfyrO4zTobnHaTzP7AgKZh5QeEACJEACJEACJEACeQQKfgsLETTw5CpLAhXmQu+yEHl5QniaEM4mXj280DBN7+U5iWUQyvRYasxQtlEPPqDFMohOa1U1ynXr18vefft1JUh4Nd1++22SmuqqLlXYOjMyMuTbb7/VFSIhklhzm3n3mzVrliDH19Zt2/W9fvp5jk68j2qYyNXlq8GTDXbXXZ7eZTiHRP+wU089VW/tfiDsErZ9hyuMEvtGEIPQZWcQpYwIBC82q5l7llMi4J133iEtWzSXxo0aymlVT5WzzmqlOVvbm/0rr7pK78LDb+3atea0IEE/KnnCrh58tfu82XnxxRe0WFZXVfqcO2+e7Ni5Szb9s1lef+MNSUxMFBRnMGIa+hRnbeaewXp2ZryS2BqBC9UwUenSlw/awoKZ3N92bSrhfyAGDzJ8YK3zvMt0pcy8MEwjkhnRLJB7ePdBYv5/fp+jTzfs2kcadj1H72+Y96PkKqHdycpVTJSaZyoBW4liG+bO9GxmOdegS0HPT8/GBY8qVKosDTr30hf+WTDHo8Hq77/Sx80vvEKO7d8r637+Ttb99J2giICTQdj7c+onEhsXr3OjObVzPB/g83QcjxdIgARIgARIgARIIIwIhKxghmdQVkQzimVh9BsRIkspSjgrbBkmT5lT+GZhfcvatd9VPrK33npLT+udd8a6q0XCQ+rfTzypvbMgAk1U4Zp2Bs+w2269Va679hqpV7eODLricomNjZXvlPcYEu072WuvvS4IbaxcubL2/kIo4mf/cyULnz5tmqxZs8apq/v8Tz/9pKtxQgS66OKL3efNTrIS+2BRKpTMyWJiXNdSUo65m7Rt58p5h+qUEAy9DQnsEQYJg3ee1Uw45rGjR3WIKwokoDonvNkgBl515ZXy8ssq9MvLrrzyKhk7bpy632Hp2KG99OjeXVXm7KELKCA/G65dNdgl6Jiu8GT7979c4WqTP/1M2rVrry/Bm+2WW4apzy36eNL7+c+uOGsz9w3GszNjlfTWn3xlpq2dYIZQTXyCYZERrnfH37Gsif6Nd5kWx5RXmTFTBMAcF3e7ZfE8QeVIVK9EdUx4YKFiJby4dv611HH4LBUa2aT3Bfq68SYzjffkeZ25RTVzwY9tYs06ujXmkZWepvcxT4RiwnYsX6jzmP02/hWd/H/qqGGy+KN3dPizbmB+KPEOxQEQktn26qECMc5fC/R5+nsfticBEiABEiABEiCBUCQQ0oIZgEM0GzF0kPY2g3BVs3pV/Smph2HGx3ZA/176Q8+ykqLNcYsioEM1CykMYO1vhLJwSui/4DdXCFqvXr2kSdOm1uVqL6orVIVD2OJF9oURkP/rww8/kK+++sotLnXq3Fl5U7X2GMv74LIBA7xP6YqT7dt30F9q582bW+C694lXX3EJTyNG3GEbcmnaF1UZz7QzW1SqRPEArG3UqAfd4hiu//Xnnzp81bStWbOm2dVbhHhee+21cuGFF6q8YjNVMZXdsnTZH7Jt+w4xax7z9FPi7ZmGzl27dlO53GoJPPUQnrp48SJdjADeYz179tLjW38sXbpEs+qoxEa7ap0j7rhTIMRhPciTBivO2sy9zTrMMba4vz/Pzto3FPYRoukdphnwvANIEm+8yyCUGU8yu/uba8HyMjPhmHXbd5WomFgpn1hJarZso2+9fs4PdlPQ5+CZVqdtFylXMaFAvjLjcdawW59CvdQcB1cX4ivne42mHjmkmx7dk+8Ruk1Vx6ypcpjBEw9J/2GrvvtSNirPOKutmTVdh5iiTbM+F1kv+b4fwPP0fXC2JAESIAESIAESIIHQJuDsuhBi63KLVq7/Fw6x2XO6JBA4AaunmLUAgBkRQlkoJ/Q367DbLs5LcA8PqH89/niBJiZUcfOWzQWu4QQS5f+xfIVkKQ8N5AL74ovP5X+fqbxCKv/ZJ59MLpBXzHYQy0kIOhCKtqocXIXZ8uXLZfbs2bpAwJAbbyysqU/XrKIawi2/+PwL6d27l6AC57Kly6SzEgEhYiGvG9YMMQ05ySpVquQxPq5NePc9j3M4QLv3358kK9S8UVRh0qT35fHH85OZYy3XX3etZCnPtedfeEH69DlXjzFTJfN/WglsXTp3ko8+/q+cc8457rGXLnV5+DRr2sx9zrqDHGyT1PytVpy1Wcex2/f12dn1Levn4HW2YdPW4Ilmfi4437vshiJ7wsvMeJ4ZAa3ITjYNju3fI7tWL9dXEI5prIEKy9zx5xLZtvQ3yUg5KrHxCeaSe5uVkaYEthgVwtlH/p4xRVARs3qL1tobzFTOROXKjOMp7j7+7MAjzBiKEcBQEMBY64HXK2HRxeqsgdfJtNG3yqFt/+icZ4179NPNUg7uk6WT35XIqGhVHOCeIqtomrG5JQESIAESIAESIAES8J1A2Ahmvi+ZLUkgPAlob7O8wgBY4Zq9O8NWKDNPcLkSgGAIb8THyXar0Es7Q/hls2YuwaZFixa6KmP9evXl+eefE+TX+lSFCvpjp6pcXzAj1Dn1fe3VV/Wlm2++2SPpvrV9ogpNhCExv5PBmwtWpUq+xwqOz2zVSiZ/+qk8/9xzsnDhQl3Js0KFCjos8rZbb9NiWp06rrAwtPfFypUrpz2+wGadJU8Z+t6l8p1BhPvyq6/lggtcoWw4j+IKTRXfKy4fKHfeMUJWrf4bp7WZsFWn4gSmnfe2JNaGe/j67LznEwrHb7/7qZ5mULzMIpRjuh9eSchTBg8z70T/TtyMSGa8zMyxU3un8xt/malzkEFQSks+LP/89rNumpPpysGWrbabfv1JTu93aYEhspWHGQxhmRDMtiycJ51uvFMn1M9MS5UqDZrohP87ltt7rhYY0OsECgnAIHRXSHKFURovSpxvcdEgbLQhhBQechDMjuzcphP6Y02/T/yPDjdt2qe/yl9WUYeZmj7YZqgwbYR8lk+qpEU16zWPfTxPGgmQAAmQAAmQAAmQgC0BCma2WHiSBEKXgPE4K/g1MHTX5DRzU+Fx9EMPSffuPZyaCSpZ+mrDVE4ziEKzfvxRV2z0py/ycsGQWN/JUAHyyy+/0JUobx8+wqmZ1FbhjbB9e/c6ttmzx3XNTnTq27ef4IM8Zki+37JlS52f7TMlpMFMAn3HwW0u1KtXT5/dpoodGPv777+11xnCQK1imbmO8M4GDRroNitX/qXmcaa+VDWvYMGR5IJ51kxfp21JrM2XZ+c0n7J83uQ0MznOijvXnNwoiZQcn4aBUAbhC2YS/Vs7FpWzDH0DEsxUCC+8wmA52Vky763nrLd176Napq1glieqoQpm5fqN5eDmDbJ54Vx3SCS8y2DZWS7xzT2gjzt71q7ULSvXb6LErCi9jwqaxg5t2SSnNXOFYuLcKXUb6ksoVIBcZykH9mkPOZxcN/tb/dENLD+WfTZR8Ln4mXe0wGe55LGL50kjARIgARIgARIgARKwJ0DBzJ4Lz5IACYQAAYTRrV69WmJVfqLevX2rWIdKmMif1bZtO+1R5r1MVKWE5wc8u3ao6pMIU/TVtuVVnaxfv75jlzfeeF3nFbti0CDxziFm7QQBCrZv3z49FyMOmjbwLtu7d48+tBPMTDsk0W/TxhWrDi8WUwDh5qGupPqmHbZvvvkf7Sk25IYhOg+a9Rr29+5zCXS1arvEPJxDqCes2mnV9NbuB+aHUM7Fixa7BTPD1TCz62eKEiDk1s78WZtdf+s5M4/Cnp21fVnfnzH7VzHVNjHXYAlmEhGjPLd8E4pMKKaTd5mTGGbOB+pltvvvP+XY3t36EdVp00miYst5PC6EYu78a5ns37ROeW5tllPq1Pe4bj2AOLZw0ps6HPLIru06F5qptqmS61mb+rS/XSX036PmB2vc0xVeif3E6rX03x38ju5aucxDMNu9yhVaipxqKDaQpkRmiHl2dhAVNdUY8ZWrSrmERIkuV96uWf45PE8aCZAACZAACZAACZCALQH7byG2TXmSBEiABMoWAYhesP/+92OdYN5udgcOHPA4vXHjBnnu2WcFwpWdrVEeU/jSihBGJ/FkrVdIIsbZuXOnzJkzRw/Z2qFoACpGfjBpkm5z110j9dbpR40aNfT9UdESlTe97QdVyROiGby+jOeXdxvv4/GqWiUKEkBAs/MGmz9/vjwzZoy89NJL3l318ZyfXWFtTZs0dV83++vXr7N9Bpij4dWkaRN3v7bt2ur9n9WY+/fvc583Oz/+OFMqxsfJmS3zPW3MNbttUWszfcxczDG2vjw7a/tQ2G/c0CW4QihDhcyghGOqhedEeIpPTixMon9cP/+xl52aOZ73Fs0cG9pcgOcYLP7U06TP/U9Jr5GPeXz6PPC0rpyJNht+cU7+j+vIY4Z8ZgiHhBCF8Ei7vGdo62T4e4L+K6d/Jj+/8m/drFGPvh7ebajk2SgvP9nG+bPEFAPYu3aVbFk8X/epdVZeJVlVZfOS58bZfiIjXR5jZ152tb6elFeR02luvj5Pp/48TwIkQAIkQAIkQALhTICCWTg/Xa6NBMKcwK233SaowoiQw9tvv61Avq9XX3lFmjRupEIgv3STOPfcvrqC5ry5c3WFTPcFtZOSkiKjR4/SpxBKiCTzdnbN1YN1kQBzDd5ow4ffrj3HIEb16NnTXPLYjhs7Vs8R4aN2lSGtjeHlNnzECH0KifMh6hiDwPTUU0/qw6G3DCu0yiYEKxQZGDz4Krnnnrt1WOaTTz1thvLYDrhsgD7+6KMPdYEA68VJ77+vBUHkMrthyBD3pVZnnaU95RD6CXYQ+Ixh/5GHHxIIhdWqVVNrdnm64Xq7du21h19qaqrccccdHs8OIucjDz+ih7lq8GAzXIGtP2sznQN9dqZ/qGwhlL085gEZPnRw0MQyrD1bfBPMjHdZYWGXyG+Gj5OZvvAY89WQYwzhk7AGnZXXqfo98jZUzKzXvps+vXHeLB226d3GHMOrCxUzjZlwTHNc2Bbhkx9c01c+uLaffH3f/8mSTyYIcqc16NJbut36gPYos/Y/+8obVU6zUyR59w756u4bZMoDQ+W7f4+U1MMHdZ6ydtfeam0elH1fn2dQbsZBSIAESIAESIAESCDECDAkM8QeGKdLAiSQTwBhim+/M1aLQZ9OniwQwbp1765ykufK/PnztMh0xhln6CqRphcS0T+lBKOHlZBzm8pX9p6qCtm6dWtJPposvygPsd27d2sB6PU3/mO6eGwRHoj7tmzRXM5SYlHt2nVk0SIVZrVnjz7/rEq0b2cQht555x196a6RhXuXmf43DrlRPv74Y/lzxQrp2KG99OrVS6KVtws8vXA/rOWmm24yzT22CIG8+KL+gpxpRsRCe1S7ROJ8O4M49c0307XA2LVLZ10QoVu3bjrsdcGCBbrLQw8/7JH/DJ54GPPCCy8QCIIovtC5U2clVIigz/p167Sg997E93VlTut9n3v+BS3mTZs6VYlpraVr165aXJs9a5aeM8JsR46829pF7weyNnQM9NkVmMDJfEIlic+JiJPIXOdiFMa7DKGYxlMsEGToi7BMnQtNCWu+jIUqllnpafp27tBJm5vj2oa5M3VBgO1/LJK67fJFMe/mSP6PceGxVqNlvujr3c7uGN5lOrn/KVWkUu160qh7XyWYnSNI5u9tCKO8+Nmx8uu4l2TXqj/k8PbNOsdZ9RZnS5ehd0ucGiOYhueoJhLMITkWCZAACZAACZAACYQVgQj1P3P+J+HIQ5Ca5qokFVZEuBgSIIGQIwBRaOTIu7RgBmEKVkslzYd49sorr9om4Z85Y4Y8+uijuoKkWTDEn+uuu17+9e9/S+XKlc1pvd2lKm02athAKlWqJKv/XiO3DhsmM2fO0GGI+EIMYW78hHfd+cI8OquD8ePHyd1KKGvcuIksVwKYU14u737wXkO/6dOn6QT+uJ6YmCjnnXe+vPXWW1IxIcG7iz5GFcpuXbvoebVQCf/Pbn22DLnxxiILIGQqD5hx48bqCpvWcFbkHIPA1b9/f9v7IaH/6FGj5JdffnELdPDQ69Gjhzz77HMCTzQ7Q7L9e+6+W7799hvt4Yc2CDEdMHCgFjbtvPz8XVtxn5113p988okMvfkmQVXVxUuWWi8Fbf++R17UY8FDzB8LtJ8/90DbCJXDLDZnn2O3H566T4tcCMWEaFYc015oeYUDbpw8qzhDhVTfnKwsObZvtxLpqumQ0JKYfEZkVcllDrOSQMsxSYAESIAESIAEwoQABbMweZBcBgmQgAoXUyGAGzZskAQlIhWWUN/KCoLURtUnSQlhderUKRAmZW3rvQ9xaf369YJ8Y4VVxvTuF8gx/m1j8+bNgkT4qHAJka6kDd52+DRWYpmTMOc9B4RJwgMM88U8Y2NjvZvYHqP9pk2bpFy5WO21Z9soiCdP5LPzd9pvv/upoLolwil9TdaP9ugH81do83d+aB+dc0SiclMKdIU3GAQzmAmpLNDIzxMIycS4wRDg/Lx12DbPjoiXrMiksF0fF0YCJEACJEACJEACwSBAwSwYFDkGCZAACZAACQSJgHeFS3+GDWaC/6LuG5O9TyKlYMVMq1dYUWP4eh2eaoEUD/B1/JOpXY7ESGZU1ZNpyVwrCZAACZAACZAACQREgIJZQNjYiQRIgARIgARKjoC/ohk80fAJVjVMX1amQzNzD6jqkTkezeENBtu9ernH+eIc+JK/rDjjnzR9Vc6yjIgqDMU8aR44F0oCJEACJEACJFAcAhTMikOPfUmABEiABEjgJCag5BeJyTlYQDQ7iZGU3aUrsSwzsrLkiG9h0mV3IZwZCZAACZAACZAACZwYAiyPdGI48y4kQAIkQAIkEHYEIL7AYwlhfrSySwDPx/WcKJaV3afEmZEACZAACZAACZQ1AvQwK2tPhPMhARIgARIggRAk4FQIIASXElZTZoL/sHqcXAwJkAAJkAAJkMAJJEDB7ATC5q1IgARIgARIIJwJIK9ZtKqeGZl7PJyXGRJry4mIkyxVDTM3gt5/IfHAOEkSIAESIAESIIEyR4CCWZl7JJwQCZAACZAACYQ4AVUIIErSlXCWrvKbZUpkRDbznJXkI1X5yXJyo0SUOJYTUU6ypZzaZ9aNkkTOsUmABEiABEiABMKfAAWz8H/GXCEJkAAJkAAJkAAJkAAJkAAJkAAJkAAJkIAfBPjPj37AYlMSIAESIAESIAESIAESIAESIAESIAESIIHwJ0DBLPyfMVdIAiRAAiRAAiRAAiRAAiRAAiRAAiRAAiTgBwEKZn7AYlMSIAESIAESIAESIAESIAESIAESIAESIIHwJ0DBLPyfMVdIAiRAAiRAAiRAAiRAAiRAAiRAAiRAAiTgBwEKZn7AYlMSIAESIAESIAESIAESIAESIAESIAESIIHwJ0DBLPyfMVdIAiRAAiRAAiRAAiRAAiRAAiRAAiRAAiTgBwEKZn7AYlMSIAESIAESIAESIAESIAESIAESIAESIIHwJ0DBLPyfMVdIAiRAAiRAAiRAAiRAAiRAAiRAAiRAAiTgBwEKZn7AYlMSIAESIAESIAESIAESIAESIAESIAESIIHwJ0DBLPyfMVdIAiRAAiRAAiRAAiRAAiRAAiRAAiRAAiTgBwEKZn7AYlMSIAESIAESIAESIAESIAESIAESIAESIIHwJ0DBLPyfMVdIAiRAAiRAAiRAAiRAAiRAAiRAAiRAAiTgBwEKZn7AYlMSIAESIAESIAESIAESIAESIAESIAESIIHwJ0DBLPyfMVdIAiRAAiRAAiRAAiRAAiRAAiRAAiRAAiTgB4FoP9oWaPrHijUFzvEECZAACZAACZAACZAACZAACZAACZAACZAACYQyAXqYhfLT49xJgARIgARIgARIgARIgARIgARIgARIgASCTqBYHma1qlcK+oQ4IAmQAAmQAAmQAAmQAAmQAAmQAAmQAAmQAAmUJgF6mJUmfd6bBEiABEiABEiABEiABEiABEiABEiABEigzBGIyFVW5mbFCZEACZAACZAACZAACZAACZAACZAACZAACZBAKRGgh1kpgedtSYAESIAESIAESIAESIAESIAESIAESIAEyiYBCmZl87lwViRAAiRAAiRAAiRAAiRAAiRAAiRAAiRAAqVEgIJZKYHnbUmABEiABEiABEiABEiABEiABEiABEiABMomAQpmZfO5cFYkQAIkQAIkQAIkQAIkQAIkQAIkQAIkQAKlRICCWSmB521JgARIgARIgARIgARIgARIgARIgARIgATKJgEKZmXzuXBWJEACJEACJEACJEACJEACJEACJEACJEACpUSAglkpgedtSYAESIAESIAESIAESIAESIAESIAESIAEyiYBCmZl87lwViRAAiRAAiRAAiRAAiRAAiRAAiRAAiRAAqVEgIJZKYHnbUmABEiABEiABEiABEiABEiABEiABEiABMomAQpmZfO5cFYkQAIkQAIkQAIkQAIkQAIkQAIkQAIkQAKlRICCWSmB521JgARIgARIgARIgARIgARIgARIgARIgATKJgEKZmXzuXBWJEACJEACJEACJEACJEACJEACJEACJEACpUSAglkpgedtSYAESIAESIAESIAESIAESIAESIAESIAEyiYBCmZl87lwViRAAiRAAiRAAiRAAiRAAiRAAiRAAiRAAqVE4P8BKDfHsJ0R/I8AAAAASUVORK5CYII=;" parent="1" vertex="1">
          <mxGeometry x="-810" y="190" width="580.81" height="350" as="geometry" />
        </mxCell>
        <mxCell id="GK1FG8dtGfqj12xNYv7O-50" value="Mongos router" style="verticalLabelPosition=bottom;verticalAlign=top;html=1;strokeWidth=2;shape=mxgraph.arrows2.arrow;dy=0.6;dx=40;notch=0;" parent="1" vertex="1">
          <mxGeometry x="-550" y="30" width="100" height="70" as="geometry" />
        </mxCell>
        <mxCell id="GK1FG8dtGfqj12xNYv7O-57" style="edgeStyle=orthogonalEdgeStyle;rounded=0;orthogonalLoop=1;jettySize=auto;html=1;entryX=0.5;entryY=1;entryDx=0;entryDy=0;exitX=0.5;exitY=0;exitDx=0;exitDy=0;exitPerimeter=0;" parent="1" source="GK1FG8dtGfqj12xNYv7O-52" target="GK1FG8dtGfqj12xNYv7O-29" edge="1">
          <mxGeometry relative="1" as="geometry">
            <mxPoint x="100" y="-5" as="sourcePoint" />
            <mxPoint x="-100" y="35" as="targetPoint" />
            <Array as="points">
              <mxPoint x="-160" y="10" />
              <mxPoint x="-500" y="10" />
            </Array>
          </mxGeometry>
        </mxCell>
        <mxCell id="GK1FG8dtGfqj12xNYv7O-51" value="&lt;div&gt;&lt;br&gt;&lt;/div&gt;MongDB&lt;div&gt;shard1&lt;/div&gt;" style="strokeWidth=2;html=1;shape=mxgraph.flowchart.database;whiteSpace=wrap;" parent="1" vertex="1">
          <mxGeometry x="-210" y="-110" width="100" height="90" as="geometry" />
        </mxCell>
        <mxCell id="GK1FG8dtGfqj12xNYv7O-52" value="&lt;div&gt;&lt;br&gt;&lt;/div&gt;MongDB&lt;div&gt;shard2&lt;/div&gt;" style="strokeWidth=2;html=1;shape=mxgraph.flowchart.database;whiteSpace=wrap;" parent="1" vertex="1">
          <mxGeometry x="-210" y="70" width="100" height="90" as="geometry" />
        </mxCell>
        <mxCell id="GK1FG8dtGfqj12xNYv7O-53" value="Получить данные&amp;nbsp;&lt;div&gt;из хранилища&lt;/div&gt;" style="edgeStyle=orthogonalEdgeStyle;rounded=0;orthogonalLoop=1;jettySize=auto;html=1;exitX=1;exitY=0.5;exitDx=0;exitDy=0;entryX=0;entryY=0.5;entryDx=0;entryDy=0;entryPerimeter=0;" parent="1" target="GK1FG8dtGfqj12xNYv7O-50" edge="1">
          <mxGeometry x="0.44" y="-20" relative="1" as="geometry">
            <mxPoint as="offset" />
            <mxPoint x="-660" y="64.5" as="sourcePoint" />
            <mxPoint x="-320" y="64.5" as="targetPoint" />
          </mxGeometry>
        </mxCell>
        <mxCell id="GK1FG8dtGfqj12xNYv7O-54" value="Балансировка" style="edgeStyle=orthogonalEdgeStyle;rounded=0;orthogonalLoop=1;jettySize=auto;html=1;exitX=1;exitY=0.5;exitDx=0;exitDy=0;entryX=0;entryY=0.5;entryDx=0;entryDy=0;entryPerimeter=0;" parent="1" target="GK1FG8dtGfqj12xNYv7O-51" edge="1">
          <mxGeometry x="0.44" y="-20" relative="1" as="geometry">
            <mxPoint as="offset" />
            <mxPoint x="-450" y="60" as="sourcePoint" />
            <mxPoint x="-340" y="60.5" as="targetPoint" />
          </mxGeometry>
        </mxCell>
        <mxCell id="GK1FG8dtGfqj12xNYv7O-55" value="Балансировка" style="edgeStyle=orthogonalEdgeStyle;rounded=0;orthogonalLoop=1;jettySize=auto;html=1;exitX=1;exitY=0.5;exitDx=0;exitDy=0;entryX=0;entryY=0.5;entryDx=0;entryDy=0;entryPerimeter=0;exitPerimeter=0;" parent="1" source="GK1FG8dtGfqj12xNYv7O-50" target="GK1FG8dtGfqj12xNYv7O-52" edge="1">
          <mxGeometry x="0.4483" y="-10" relative="1" as="geometry">
            <mxPoint as="offset" />
            <mxPoint x="-440.25" y="60" as="sourcePoint" />
            <mxPoint x="-270.25" y="180" as="targetPoint" />
            <Array as="points">
              <mxPoint x="-450" y="60" />
              <mxPoint x="-330" y="60" />
              <mxPoint x="-330" y="115" />
            </Array>
          </mxGeometry>
        </mxCell>
        <mxCell id="GK1FG8dtGfqj12xNYv7O-58" style="edgeStyle=orthogonalEdgeStyle;rounded=0;orthogonalLoop=1;jettySize=auto;html=1;entryX=0.5;entryY=0;entryDx=0;entryDy=0;exitX=0.5;exitY=0;exitDx=0;exitDy=0;exitPerimeter=0;" parent="1" source="GK1FG8dtGfqj12xNYv7O-51" target="GK1FG8dtGfqj12xNYv7O-29" edge="1">
          <mxGeometry relative="1" as="geometry">
            <mxPoint x="-290" y="-100" as="sourcePoint" />
            <mxPoint x="-490" y="-60" as="targetPoint" />
          </mxGeometry>
        </mxCell>
        <mxCell id="GK1FG8dtGfqj12xNYv7O-60" value="" style="endArrow=classic;html=1;rounded=0;exitX=0;exitY=0;exitDx=30;exitDy=21;exitPerimeter=0;entryX=0.338;entryY=1.017;entryDx=0;entryDy=0;entryPerimeter=0;" parent="1" source="GK1FG8dtGfqj12xNYv7O-50" target="GK1FG8dtGfqj12xNYv7O-29" edge="1">
          <mxGeometry width="50" height="50" relative="1" as="geometry">
            <mxPoint x="-320" y="200" as="sourcePoint" />
            <mxPoint x="-270" y="150" as="targetPoint" />
          </mxGeometry>
        </mxCell>
      </root>
    </mxGraphModel>
  </diagram>
</mxfile>
